SplineFontDB: 3.0
FontName: AvoccadoSans
FullName: Avoccado Sans
FamilyName: Avoccado Sans
Weight: Book
Copyright: CC0
Version: 1.0
ItalicAngle: 0
UnderlinePosition: -49.8047
UnderlineWidth: 49.8047
Ascent: 750
Descent: 250
InvalidEm: 0
sfntRevision: 0x00010000
LayerCount: 2
Layer: 0 1 "Back" 1
Layer: 1 1 "Fore" 0
XUID: [1021 934 -226388817 21302]
FSType: 0
OS2Version: 3
OS2_WeightWidthSlopeOnly: 0
OS2_UseTypoMetrics: 1
CreationTime: 1276136336
ModificationTime: 1419392570
PfmFamily: 81
TTFWeight: 400
TTFWidth: 5
LineGap: 0
VLineGap: 0
Panose: 0 0 0 0 0 0 0 0 0 0
OS2TypoAscent: 750
OS2TypoAOffset: 0
OS2TypoDescent: -250
OS2TypoDOffset: 0
OS2TypoLinegap: 0
OS2WinAscent: 955
OS2WinAOffset: 0
OS2WinDescent: 242
OS2WinDOffset: 0
HheadAscent: 750
HheadAOffset: 0
HheadDescent: -250
HheadDOffset: 0
OS2SubXSize: 700
OS2SubYSize: 650
OS2SubXOff: 0
OS2SubYOff: 140
OS2SupXSize: 700
OS2SupYSize: 650
OS2SupXOff: 0
OS2SupYOff: 477
OS2StrikeYSize: 50
OS2StrikeYPos: 250
OS2CapHeight: 0
OS2XHeight: 0
OS2Vendor: 'pyrs'
OS2CodePages: 20000193.45000000
OS2UnicodeRanges: a00000af.4000204a.00000000.00000000
Lookup: 258 0 0 "'kern' Horizontal Kerning in Latin lookup 0" { "'kern' Horizontal Kerning in Latin lookup 0 per glyph data 0"  "'kern' Horizontal Kerning in Latin lookup 0 kerning class 1"  } ['kern' ('latn' <'dflt' > ) ]
MarkAttachClasses: 1
DEI: 91125
KernClass2: 74+ 63 "'kern' Horizontal Kerning in Latin lookup 0 kerning class 1"
 5 space
 40 comma period quotedblbase quotesinglbase
 27 guilsinglleft guillemotleft
 2 at
 15 colon semicolon
 24 quoteright quotedblright
 8 asterisk
 3 bar
 20 hyphen endash emdash
 5 slash
 9 backslash
 10 exclamdown
 12 questiondown
 20 quotedbl quotesingle
 22 quotedblleft quoteleft
 29 guilsinglright guillemotright
 9 ampersand
 3 two
 3 one
 5 three
 4 four
 4 five
 3 six
 5 seven
 5 eight
 9 parenleft
 4 nine
 9 braceleft
 4 zero
 11 bracketleft
 73 A Aring Aacute Adieresis Agrave Atilde Acircumflex Aogonek Abreve Amacron
 1 B

StartChar: t
Encoding: 116 116 4
Width: 285
Flags: W
LayerCount: 2
Back
Fore
SplineSet
99 575 m 1,0,-1
 154 575 l 1,1,-1
 154 396 l 1,2,-1
 273 396 l 1,3,-1
 273 346 l 1,4,-1
 154 346 l 1,5,-1
 154 0 l 1,6,-1
 99 0 l 1,7,-1
 99 346 l 1,8,-1
 19 346 l 1,9,-1
 19 396 l 1,10,-1
 99 396 l 1,11,-1
 99 575 l 1,0,-1
EndSplineSet
EndChar

StartChar: b
Encoding: 98 98 5
Width: 530
Flags: W
LayerCount: 2
Back
Fore
SplineSet
491 200 m 0,0,1
 491 156 491 156 475.5 118 c 128,-1,2
 460 80 460 80 432 52 c 128,-1,3
 404 24 404 24 366 8 c 128,-1,4
 328 -8 328 -8 283 -8 c 0,5,6
 227 -8 227 -8 183.5 18 c 128,-1,7
 140 44 140 44 123 82 c 1,8,9
 123 72 123 72 123.5 62.5 c 128,-1,10
 124 53 124 53 124 42 c 2,11,-1
 124 0 l 1,12,-1
 69 0 l 1,13,-1
 69 766 l 1,14,-1
 124 766 l 1,15,-1
 124 316 l 1,16,17
 143 353 143 353 185 381 c 128,-1,18
 227 409 227 409 285 409 c 0,19,20
 330 409 330 409 367.5 393.5 c 128,-1,21
 405 378 405 378 432.5 350.5 c 128,-1,22
 460 323 460 323 475.5 284.5 c 128,-1,23
 491 246 491 246 491 200 c 0,0,1
432 200 m 0,24,25
 432 233 432 233 421 261.5 c 128,-1,26
 410 290 410 290 389.5 310.5 c 128,-1,27
 369 331 369 331 341 343 c 128,-1,28
 313 355 313 355 280 355 c 256,29,30
 247 355 247 355 218.5 343 c 128,-1,31
 190 331 190 331 169 310.5 c 128,-1,32
 148 290 148 290 136 262 c 128,-1,33
 124 234 124 234 124 201 c 256,34,35
 124 168 124 168 136 140 c 128,-1,36
 148 112 148 112 169 91 c 128,-1,37
 190 70 190 70 218.5 58 c 128,-1,38
 247 46 247 46 280 46 c 256,39,40
 313 46 313 46 341 58 c 128,-1,41
 369 70 369 70 389.5 91 c 128,-1,42
 410 112 410 112 421 140 c 128,-1,43
 432 168 432 168 432 200 c 0,24,25
EndSplineSet
EndChar

StartChar: l
Encoding: 108 108 6
Width: 194
Flags: W
LayerCount: 2
Back
Fore
SplineSet
125 0 m 1,0,-1
 70 0 l 1,1,-1
 70 766 l 1,2,-1
 125 766 l 1,3,-1
 125 0 l 1,0,-1
EndSplineSet
EndChar

StartChar: m
Encoding: 109 109 7
Width: 769
Flags: W
LayerCount: 2
Back
Fore
SplineSet
69 400 m 1,0,-1
 116 400 l 1,1,2
 117 391 117 391 117.5 376.5 c 128,-1,3
 118 362 118 362 119 346.5 c 128,-1,4
 120 331 120 331 120.5 317.5 c 128,-1,5
 121 304 121 304 121 297 c 1,6,7
 143 347 143 347 183.5 377.5 c 128,-1,8
 224 408 224 408 284 409 c 0,9,10
 340 409 340 409 374 379.5 c 128,-1,11
 408 350 408 350 414 302 c 1,12,13
 437 350 437 350 476.5 379 c 128,-1,14
 516 408 516 408 575 409 c 0,15,16
 635 409 635 409 669.5 376 c 128,-1,17
 704 343 704 343 706 289 c 2,18,-1
 706 0 l 1,19,-1
 651 0 l 1,20,-1
 651 270 l 2,21,22
 649 304 649 304 627 328 c 128,-1,23
 605 352 605 352 561 354 c 0,24,25
 530 354 530 354 503.5 343.5 c 128,-1,26
 477 333 477 333 457.5 314.5 c 128,-1,27
 438 296 438 296 427 270.5 c 128,-1,28
 416 245 416 245 415 215 c 2,29,-1
 415 0 l 1,30,-1
 360 0 l 1,31,-1
 360 270 l 2,32,33
 358 304 358 304 336 328 c 128,-1,34
 314 352 314 352 271 354 c 0,35,36
 239 354 239 354 212.5 343.5 c 128,-1,37
 186 333 186 333 166 314 c 128,-1,38
 146 295 146 295 135 269 c 128,-1,39
 124 243 124 243 124 212 c 2,40,-1
 124 0 l 1,41,-1
 69 0 l 1,42,-1
 69 400 l 1,0,-1
EndSplineSet
EndChar

StartChar: i
Encoding: 105 105 8
Width: 190
Flags: W
LayerCount: 2
Back
Fore
SplineSet
56 545 m 0,0,1
 56 562 56 562 68.5 573.5 c 128,-1,2
 81 585 81 585 96 585 c 256,3,4
 111 585 111 585 123 573.5 c 128,-1,5
 135 562 135 562 135 545 c 0,6,7
 135 527 135 527 123 516 c 128,-1,8
 111 505 111 505 96 505 c 256,9,10
 81 505 81 505 68.5 516 c 128,-1,11
 56 527 56 527 56 545 c 0,0,1
123 0 m 1,12,-1
 68 0 l 1,13,-1
 68 400 l 1,14,-1
 123 400 l 1,15,-1
 123 0 l 1,12,-1
EndSplineSet
EndChar

StartChar: h
Encoding: 104 104 9
Width: 481
Flags: W
LayerCount: 2
Back
Fore
SplineSet
68 766 m 1,0,-1
 123 766 l 1,1,-1
 123 303 l 1,2,3
 143 349 143 349 184.5 378.5 c 128,-1,4
 226 408 226 408 286 409 c 0,5,6
 346 409 346 409 381 376 c 128,-1,7
 416 343 416 343 418 289 c 2,8,-1
 418 0 l 1,9,-1
 363 0 l 1,10,-1
 363 270 l 2,11,12
 361 304 361 304 339 328 c 128,-1,13
 317 352 317 352 273 354 c 0,14,15
 241 354 241 354 214 343.5 c 128,-1,16
 187 333 187 333 166.5 314 c 128,-1,17
 146 295 146 295 134.5 269 c 128,-1,18
 123 243 123 243 123 212 c 2,19,-1
 123 0 l 1,20,-1
 68 0 l 1,21,-1
 68 766 l 1,0,-1
EndSplineSet
EndChar

StartChar: c
Encoding: 99 99 10
Width: 413
Flags: W
LayerCount: 2
Back
Fore
SplineSet
348 79 m 1,0,-1
 382 38 l 1,1,2
 355 16 355 16 321.5 4 c 128,-1,3
 288 -8 288 -8 250 -8 c 0,4,5
 206 -8 206 -8 167.5 8.5 c 128,-1,6
 129 25 129 25 100.5 53 c 128,-1,7
 72 81 72 81 55.5 119 c 128,-1,8
 39 157 39 157 39 200 c 256,9,10
 39 243 39 243 55.5 281.5 c 128,-1,11
 72 320 72 320 100.5 348 c 128,-1,12
 129 376 129 376 167.5 392.5 c 128,-1,13
 206 409 206 409 250 409 c 0,14,15
 288 409 288 409 322 397 c 128,-1,16
 356 385 356 385 383 363 c 1,17,18
 375 352 375 352 366 342.5 c 128,-1,19
 357 333 357 333 348 322 c 1,20,21
 307 355 307 355 250 355 c 0,22,23
 217 355 217 355 188.5 343 c 128,-1,24
 160 331 160 331 139 310.5 c 128,-1,25
 118 290 118 290 106 261.5 c 128,-1,26
 94 233 94 233 94 200 c 0,27,28
 94 168 94 168 106 140 c 128,-1,29
 118 112 118 112 139 91 c 128,-1,30
 160 70 160 70 188.5 58 c 128,-1,31
 217 46 217 46 250 46 c 0,32,33
 307 46 307 46 348 79 c 1,0,-1
EndSplineSet
EndChar

StartChar: q
Encoding: 113 113 11
Width: 530
Flags: W
LayerCount: 2
Back
Fore
SplineSet
95 201 m 256,0,1
 95 168 95 168 107 140 c 128,-1,2
 119 112 119 112 140 91 c 128,-1,3
 161 70 161 70 189.5 58 c 128,-1,4
 218 46 218 46 251 46 c 256,5,6
 284 46 284 46 312.5 58 c 128,-1,7
 341 70 341 70 362 91 c 128,-1,8
 383 112 383 112 395 140 c 128,-1,9
 407 168 407 168 407 201 c 0,10,11
 407 233 407 233 395 261 c 128,-1,12
 383 289 383 289 362 310 c 128,-1,13
 341 331 341 331 312.5 343 c 128,-1,14
 284 355 284 355 251 355 c 256,15,16
 218 355 218 355 189.5 343 c 128,-1,17
 161 331 161 331 140 310.5 c 128,-1,18
 119 290 119 290 107 262 c 128,-1,19
 95 234 95 234 95 201 c 256,0,1
40 200 m 0,20,21
 40 245 40 245 56 283.5 c 128,-1,22
 72 322 72 322 99.5 349.5 c 128,-1,23
 127 377 127 377 164.5 393 c 128,-1,24
 202 409 202 409 246 409 c 0,25,26
 277 409 277 409 303 401 c 128,-1,27
 329 393 329 393 349.5 380 c 128,-1,28
 370 367 370 367 384.5 350 c 128,-1,29
 399 333 399 333 407 316 c 1,30,31
 407 326 407 326 407.5 339 c 128,-1,32
 408 352 408 352 408 364.5 c 128,-1,33
 408 377 408 377 408.5 387 c 128,-1,34
 409 397 409 397 409 400 c 2,35,-1
 462 400 l 1,36,-1
 462 -192 l 1,37,-1
 407 -192 l 1,38,-1
 407 41 l 2,39,40
 407 52 407 52 408 62.5 c 128,-1,41
 409 73 409 73 409 83 c 1,42,43
 389 46 389 46 347 19 c 128,-1,44
 305 -8 305 -8 245 -8 c 0,45,46
 199 -8 199 -8 161.5 8.5 c 128,-1,47
 124 25 124 25 97 53 c 128,-1,48
 70 81 70 81 55 119 c 128,-1,49
 40 157 40 157 40 200 c 0,20,21
EndSplineSet
EndChar

StartChar: u
Encoding: 117 117 12
Width: 481
Flags: W
LayerCount: 2
Back
Fore
SplineSet
414 -5 m 1,0,-1
 368 -5 l 1,1,-1
 362 103 l 1,2,3
 341 53 341 53 298 22 c 128,-1,4
 255 -9 255 -9 194 -9 c 0,5,6
 135 -9 135 -9 100.5 24 c 128,-1,7
 66 57 66 57 64 111 c 2,8,-1
 64 400 l 1,9,-1
 119 400 l 1,10,-1
 119 130 l 2,11,12
 121 96 121 96 143 72 c 128,-1,13
 165 48 165 48 209 46 c 0,14,15
 240 46 240 46 267.5 56.5 c 128,-1,16
 295 67 295 67 315 85.5 c 128,-1,17
 335 104 335 104 347 130 c 128,-1,18
 359 156 359 156 359 187 c 2,19,-1
 359 400 l 1,20,-1
 414 400 l 1,21,-1
 414 -5 l 1,0,-1
EndSplineSet
EndChar

StartChar: r
Encoding: 114 114 13
Width: 293
Flags: W
LayerCount: 2
Back
Fore
SplineSet
276 340 m 1,0,1
 246 340 246 340 218.5 330.5 c 128,-1,2
 191 321 191 321 170 304 c 128,-1,3
 149 287 149 287 136.5 262.5 c 128,-1,4
 124 238 124 238 124 208 c 2,5,-1
 124 0 l 1,6,-1
 69 0 l 1,7,-1
 69 400 l 1,8,-1
 116 400 l 1,9,-1
 121 297 l 1,10,11
 133 323 133 323 152 343.5 c 128,-1,12
 171 364 171 364 193.5 378.5 c 128,-1,13
 216 393 216 393 240.5 401 c 128,-1,14
 265 409 265 409 287 409 c 1,15,-1
 276 340 l 1,0,1
EndSplineSet
EndChar

StartChar: e
Encoding: 101 101 14
Width: 455
Flags: W
LayerCount: 2
Back
Fore
SplineSet
399 48 m 1,0,1
 370 22 370 22 331 7 c 128,-1,2
 292 -8 292 -8 250 -8 c 0,3,4
 206 -8 206 -8 167.5 8.5 c 128,-1,5
 129 25 129 25 100.5 53 c 128,-1,6
 72 81 72 81 55.5 119 c 128,-1,7
 39 157 39 157 39 200 c 256,8,9
 39 243 39 243 55.5 281.5 c 128,-1,10
 72 320 72 320 100.5 348.5 c 128,-1,11
 129 377 129 377 167 393.5 c 128,-1,12
 205 410 205 410 248 410 c 0,13,14
 314 410 314 410 362.5 370 c 128,-1,15
 411 330 411 330 434 268 c 1,16,17
 400 255 400 255 358.5 238.5 c 128,-1,18
 317 222 317 222 273.5 204.5 c 128,-1,19
 230 187 230 187 187 169.5 c 128,-1,20
 144 152 144 152 107 137 c 1,21,22
 125 96 125 96 162.5 71 c 128,-1,23
 200 46 200 46 248 46 c 0,24,25
 280 46 280 46 309 57 c 128,-1,26
 338 68 338 68 358 87 c 1,27,-1
 399 48 l 1,0,1
365 282 m 1,28,29
 348 316 348 316 317 335.5 c 128,-1,30
 286 355 286 355 248 355 c 0,31,32
 216 355 216 355 188 342.5 c 128,-1,33
 160 330 160 330 139 309 c 128,-1,34
 118 288 118 288 106 260.5 c 128,-1,35
 94 233 94 233 94 202 c 0,36,37
 94 186 94 186 97 174 c 1,38,39
 128 187 128 187 163 201 c 128,-1,40
 198 215 198 215 233 229.5 c 128,-1,41
 268 244 268 244 302 257.5 c 128,-1,42
 336 271 336 271 365 282 c 1,28,29
EndSplineSet
EndChar

StartChar: p
Encoding: 112 112 15
Width: 530
Flags: W
LayerCount: 2
Back
Fore
SplineSet
432 200 m 0,0,1
 432 233 432 233 421 261.5 c 128,-1,2
 410 290 410 290 389.5 310.5 c 128,-1,3
 369 331 369 331 341 343 c 128,-1,4
 313 355 313 355 280 355 c 256,5,6
 247 355 247 355 218.5 343 c 128,-1,7
 190 331 190 331 169 310.5 c 128,-1,8
 148 290 148 290 136 262 c 128,-1,9
 124 234 124 234 124 201 c 256,10,11
 124 168 124 168 136 140 c 128,-1,12
 148 112 148 112 169 91 c 128,-1,13
 190 70 190 70 218.5 58 c 128,-1,14
 247 46 247 46 280 46 c 256,15,16
 313 46 313 46 341 58 c 128,-1,17
 369 70 369 70 389.5 91 c 128,-1,18
 410 112 410 112 421 140 c 128,-1,19
 432 168 432 168 432 200 c 0,0,1
491 200 m 0,20,21
 491 156 491 156 475.5 118 c 128,-1,22
 460 80 460 80 432 52 c 128,-1,23
 404 24 404 24 366 8 c 128,-1,24
 328 -8 328 -8 283 -8 c 0,25,26
 227 -8 227 -8 183.5 18 c 128,-1,27
 140 44 140 44 123 82 c 1,28,29
 123 72 123 72 123.5 62.5 c 128,-1,30
 124 53 124 53 124 42 c 2,31,-1
 124 -192 l 1,32,-1
 69 -192 l 1,33,-1
 69 400 l 1,34,-1
 122 400 l 2,35,36
 122 397 122 397 122.5 387 c 128,-1,37
 123 377 123 377 123 364.5 c 128,-1,38
 123 352 123 352 123.5 339 c 128,-1,39
 124 326 124 326 124 316 c 1,40,41
 143 353 143 353 185 381 c 128,-1,42
 227 409 227 409 285 409 c 0,43,44
 330 409 330 409 367.5 393.5 c 128,-1,45
 405 378 405 378 432.5 350.5 c 128,-1,46
 460 323 460 323 475.5 284.5 c 128,-1,47
 491 246 491 246 491 200 c 0,20,21
EndSplineSet
EndChar

StartChar: aacute
Encoding: 225 225 16
Width: 528
Flags: W
LayerCount: 2
Back
Fore
SplineSet
39 198 m 0,0,1
 39 241 39 241 55.5 279.5 c 128,-1,2
 72 318 72 318 100.5 347 c 128,-1,3
 129 376 129 376 167 392.5 c 128,-1,4
 205 409 205 409 248 409 c 0,5,6
 278 409 278 409 304 401 c 128,-1,7
 330 393 330 393 350.5 379.5 c 128,-1,8
 371 366 371 366 385 349.5 c 128,-1,9
 399 333 399 333 406 317 c 1,10,-1
 410 400 l 1,11,-1
 461 400 l 1,12,-1
 461 0 l 1,13,-1
 406 0 l 1,14,-1
 406 41 l 2,15,16
 406 52 406 52 406.5 62 c 128,-1,17
 407 72 407 72 407 81 c 1,18,19
 400 64 400 64 386 48.5 c 128,-1,20
 372 33 372 33 351.5 20 c 128,-1,21
 331 7 331 7 305 -0.5 c 128,-1,22
 279 -8 279 -8 248 -8 c 0,23,24
 203 -8 203 -8 164.5 8.5 c 128,-1,25
 126 25 126 25 98.5 53 c 128,-1,26
 71 81 71 81 55 118.5 c 128,-1,27
 39 156 39 156 39 198 c 0,0,1
94 201 m 256,28,29
 94 168 94 168 106 140 c 128,-1,30
 118 112 118 112 139 91 c 128,-1,31
 160 70 160 70 188.5 58 c 128,-1,32
 217 46 217 46 250 46 c 256,33,34
 283 46 283 46 311.5 58 c 128,-1,35
 340 70 340 70 361 91 c 128,-1,36
 382 112 382 112 394 140 c 128,-1,37
 406 168 406 168 406 201 c 0,38,39
 406 233 406 233 394 261 c 128,-1,40
 382 289 382 289 361 310 c 128,-1,41
 340 331 340 331 311.5 343 c 128,-1,42
 283 355 283 355 250 355 c 256,43,44
 217 355 217 355 188.5 343 c 128,-1,45
 160 331 160 331 139 310.5 c 128,-1,46
 118 290 118 290 106 262 c 128,-1,47
 94 234 94 234 94 201 c 256,28,29
230 483 m 1,48,-1
 321 617 l 1,49,-1
 380 617 l 1,50,51
 354 583 354 583 327 549.5 c 128,-1,52
 300 516 300 516 273 483 c 1,53,-1
 230 483 l 1,48,-1
EndSplineSet
EndChar

StartChar: eacute
Encoding: 233 233 17
Width: 455
Flags: W
LayerCount: 2
Back
Fore
SplineSet
399 48 m 1,0,1
 370 22 370 22 331 7 c 128,-1,2
 292 -8 292 -8 250 -8 c 0,3,4
 206 -8 206 -8 167.5 8.5 c 128,-1,5
 129 25 129 25 100.5 53 c 128,-1,6
 72 81 72 81 55.5 119 c 128,-1,7
 39 157 39 157 39 200 c 256,8,9
 39 243 39 243 55.5 281.5 c 128,-1,10
 72 320 72 320 100.5 348.5 c 128,-1,11
 129 377 129 377 167 393.5 c 128,-1,12
 205 410 205 410 248 410 c 0,13,14
 314 410 314 410 362.5 370 c 128,-1,15
 411 330 411 330 434 268 c 1,16,17
 400 255 400 255 358.5 238.5 c 128,-1,18
 317 222 317 222 273.5 204.5 c 128,-1,19
 230 187 230 187 187 169.5 c 128,-1,20
 144 152 144 152 107 137 c 1,21,22
 125 96 125 96 162.5 71 c 128,-1,23
 200 46 200 46 248 46 c 0,24,25
 280 46 280 46 309 57 c 128,-1,26
 338 68 338 68 358 87 c 1,27,-1
 399 48 l 1,0,1
365 282 m 1,28,29
 348 316 348 316 317 335.5 c 128,-1,30
 286 355 286 355 248 355 c 0,31,32
 216 355 216 355 188 342.5 c 128,-1,33
 160 330 160 330 139 309 c 128,-1,34
 118 288 118 288 106 260.5 c 128,-1,35
 94 233 94 233 94 202 c 0,36,37
 94 186 94 186 97 174 c 1,38,39
 128 187 128 187 163 201 c 128,-1,40
 198 215 198 215 233 229.5 c 128,-1,41
 268 244 268 244 302 257.5 c 128,-1,42
 336 271 336 271 365 282 c 1,28,29
215 483 m 1,43,-1
 306 617 l 1,44,-1
 365 617 l 1,45,46
 339 583 339 583 312 549.5 c 128,-1,47
 285 516 285 516 258 483 c 1,48,-1
 215 483 l 1,43,-1
EndSplineSet
EndChar

StartChar: iacute
Encoding: 237 237 18
Width: 190
Flags: W
LayerCount: 2
Back
Fore
SplineSet
123 0 m 1,0,-1
 68 0 l 1,1,-1
 68 400 l 1,2,-1
 123 400 l 1,3,-1
 123 0 l 1,0,-1
69 483 m 1,4,-1
 160 617 l 1,5,-1
 219 617 l 1,6,7
 193 583 193 583 166 549.5 c 128,-1,8
 139 516 139 516 112 483 c 1,9,-1
 69 483 l 1,4,-1
EndSplineSet
EndChar

StartChar: oacute
Encoding: 243 243 19
Width: 497
Flags: W
LayerCount: 2
Back
Fore
SplineSet
39 200 m 0,0,1
 39 243 39 243 55.5 281.5 c 128,-1,2
 72 320 72 320 100.5 348.5 c 128,-1,3
 129 377 129 377 167.5 393.5 c 128,-1,4
 206 410 206 410 250 410 c 256,5,6
 294 410 294 410 332.5 393.5 c 128,-1,7
 371 377 371 377 399 348.5 c 128,-1,8
 427 320 427 320 443 281.5 c 128,-1,9
 459 243 459 243 459 200 c 256,10,11
 459 157 459 157 443 119 c 128,-1,12
 427 81 427 81 398.5 53 c 128,-1,13
 370 25 370 25 332 8.5 c 128,-1,14
 294 -8 294 -8 249 -8 c 0,15,16
 205 -8 205 -8 167 7.5 c 128,-1,17
 129 23 129 23 100.5 51 c 128,-1,18
 72 79 72 79 55.5 117 c 128,-1,19
 39 155 39 155 39 200 c 0,0,1
94 200 m 256,20,21
 94 168 94 168 106 140 c 128,-1,22
 118 112 118 112 139 91 c 128,-1,23
 160 70 160 70 188 58 c 128,-1,24
 216 46 216 46 248 46 c 256,25,26
 280 46 280 46 308.5 58 c 128,-1,27
 337 70 337 70 358 91 c 128,-1,28
 379 112 379 112 391 140 c 128,-1,29
 403 168 403 168 403 200 c 256,30,31
 403 232 403 232 391 260.5 c 128,-1,32
 379 289 379 289 358 310 c 128,-1,33
 337 331 337 331 308.5 343 c 128,-1,34
 280 355 280 355 248 355 c 256,35,36
 216 355 216 355 188 343 c 128,-1,37
 160 331 160 331 139 310 c 128,-1,38
 118 289 118 289 106 260.5 c 128,-1,39
 94 232 94 232 94 200 c 256,20,21
248 483 m 1,40,-1
 339 617 l 1,41,-1
 398 617 l 1,42,43
 372 583 372 583 345 549.5 c 128,-1,44
 318 516 318 516 291 483 c 1,45,-1
 248 483 l 1,40,-1
EndSplineSet
EndChar

StartChar: uacute
Encoding: 250 250 20
Width: 481
Flags: W
LayerCount: 2
Back
Fore
SplineSet
414 -5 m 1,0,-1
 368 -5 l 1,1,-1
 362 103 l 1,2,3
 341 53 341 53 298 22 c 128,-1,4
 255 -9 255 -9 194 -9 c 0,5,6
 135 -9 135 -9 100.5 24 c 128,-1,7
 66 57 66 57 64 111 c 2,8,-1
 64 400 l 1,9,-1
 119 400 l 1,10,-1
 119 130 l 2,11,12
 121 96 121 96 143 72 c 128,-1,13
 165 48 165 48 209 46 c 0,14,15
 240 46 240 46 267.5 56.5 c 128,-1,16
 295 67 295 67 315 85.5 c 128,-1,17
 335 104 335 104 347 130 c 128,-1,18
 359 156 359 156 359 187 c 2,19,-1
 359 400 l 1,20,-1
 414 400 l 1,21,-1
 414 -5 l 1,0,-1
221 483 m 1,22,-1
 312 617 l 1,23,-1
 371 617 l 1,24,25
 345 583 345 583 318 549.5 c 128,-1,26
 291 516 291 516 264 483 c 1,27,-1
 221 483 l 1,22,-1
EndSplineSet
EndChar

StartChar: adieresis
Encoding: 228 228 21
Width: 528
Flags: W
LayerCount: 2
Back
Fore
SplineSet
39 198 m 0,0,1
 39 241 39 241 55.5 279.5 c 128,-1,2
 72 318 72 318 100.5 347 c 128,-1,3
 129 376 129 376 167 392.5 c 128,-1,4
 205 409 205 409 248 409 c 0,5,6
 278 409 278 409 304 401 c 128,-1,7
 330 393 330 393 350.5 379.5 c 128,-1,8
 371 366 371 366 385 349.5 c 128,-1,9
 399 333 399 333 406 317 c 1,10,-1
 410 400 l 1,11,-1
 461 400 l 1,12,-1
 461 0 l 1,13,-1
 406 0 l 1,14,-1
 406 41 l 2,15,16
 406 52 406 52 406.5 62 c 128,-1,17
 407 72 407 72 407 81 c 1,18,19
 400 64 400 64 386 48.5 c 128,-1,20
 372 33 372 33 351.5 20 c 128,-1,21
 331 7 331 7 305 -0.5 c 128,-1,22
 279 -8 279 -8 248 -8 c 0,23,24
 203 -8 203 -8 164.5 8.5 c 128,-1,25
 126 25 126 25 98.5 53 c 128,-1,26
 71 81 71 81 55 118.5 c 128,-1,27
 39 156 39 156 39 198 c 0,0,1
94 201 m 256,28,29
 94 168 94 168 106 140 c 128,-1,30
 118 112 118 112 139 91 c 128,-1,31
 160 70 160 70 188.5 58 c 128,-1,32
 217 46 217 46 250 46 c 256,33,34
 283 46 283 46 311.5 58 c 128,-1,35
 340 70 340 70 361 91 c 128,-1,36
 382 112 382 112 394 140 c 128,-1,37
 406 168 406 168 406 201 c 0,38,39
 406 233 406 233 394 261 c 128,-1,40
 382 289 382 289 361 310 c 128,-1,41
 340 331 340 331 311.5 343 c 128,-1,42
 283 355 283 355 250 355 c 256,43,44
 217 355 217 355 188.5 343 c 128,-1,45
 160 331 160 331 139 310.5 c 128,-1,46
 118 290 118 290 106 262 c 128,-1,47
 94 234 94 234 94 201 c 256,28,29
317 517 m 0,48,49
 317 534 317 534 329 546 c 128,-1,50
 341 558 341 558 357 558 c 0,51,52
 372 558 372 558 384.5 546 c 128,-1,53
 397 534 397 534 397 517 c 0,54,55
 397 499 397 499 384.5 487.5 c 128,-1,56
 372 476 372 476 357 476 c 0,57,58
 341 476 341 476 329 487.5 c 128,-1,59
 317 499 317 499 317 517 c 0,48,49
138 517 m 0,60,61
 138 534 138 534 150 546 c 128,-1,62
 162 558 162 558 178 558 c 0,63,64
 193 558 193 558 205.5 546 c 128,-1,65
 218 534 218 534 218 517 c 0,66,67
 218 499 218 499 205.5 487.5 c 128,-1,68
 193 476 193 476 178 476 c 0,69,70
 162 476 162 476 150 487.5 c 128,-1,71
 138 499 138 499 138 517 c 0,60,61
EndSplineSet
EndChar

StartChar: edieresis
Encoding: 235 235 22
Width: 455
Flags: W
LayerCount: 2
Back
Fore
SplineSet
399 48 m 1,0,1
 370 22 370 22 331 7 c 128,-1,2
 292 -8 292 -8 250 -8 c 0,3,4
 206 -8 206 -8 167.5 8.5 c 128,-1,5
 129 25 129 25 100.5 53 c 128,-1,6
 72 81 72 81 55.5 119 c 128,-1,7
 39 157 39 157 39 200 c 256,8,9
 39 243 39 243 55.5 281.5 c 128,-1,10
 72 320 72 320 100.5 348.5 c 128,-1,11
 129 377 129 377 167 393.5 c 128,-1,12
 205 410 205 410 248 410 c 0,13,14
 314 410 314 410 362.5 370 c 128,-1,15
 411 330 411 330 434 268 c 1,16,17
 400 255 400 255 358.5 238.5 c 128,-1,18
 317 222 317 222 273.5 204.5 c 128,-1,19
 230 187 230 187 187 169.5 c 128,-1,20
 144 152 144 152 107 137 c 1,21,22
 125 96 125 96 162.5 71 c 128,-1,23
 200 46 200 46 248 46 c 0,24,25
 280 46 280 46 309 57 c 128,-1,26
 338 68 338 68 358 87 c 1,27,-1
 399 48 l 1,0,1
365 282 m 1,28,29
 348 316 348 316 317 335.5 c 128,-1,30
 286 355 286 355 248 355 c 0,31,32
 216 355 216 355 188 342.5 c 128,-1,33
 160 330 160 330 139 309 c 128,-1,34
 118 288 118 288 106 260.5 c 128,-1,35
 94 233 94 233 94 202 c 0,36,37
 94 186 94 186 97 174 c 1,38,39
 128 187 128 187 163 201 c 128,-1,40
 198 215 198 215 233 229.5 c 128,-1,41
 268 244 268 244 302 257.5 c 128,-1,42
 336 271 336 271 365 282 c 1,28,29
287 517 m 0,43,44
 287 534 287 534 299 546 c 128,-1,45
 311 558 311 558 327 558 c 0,46,47
 342 558 342 558 354.5 546 c 128,-1,48
 367 534 367 534 367 517 c 0,49,50
 367 499 367 499 354.5 487.5 c 128,-1,51
 342 476 342 476 327 476 c 0,52,53
 311 476 311 476 299 487.5 c 128,-1,54
 287 499 287 499 287 517 c 0,43,44
108 517 m 0,55,56
 108 534 108 534 120 546 c 128,-1,57
 132 558 132 558 148 558 c 0,58,59
 163 558 163 558 175.5 546 c 128,-1,60
 188 534 188 534 188 517 c 0,61,62
 188 499 188 499 175.5 487.5 c 128,-1,63
 163 476 163 476 148 476 c 0,64,65
 132 476 132 476 120 487.5 c 128,-1,66
 108 499 108 499 108 517 c 0,55,56
EndSplineSet
EndChar

StartChar: odieresis
Encoding: 246 246 23
Width: 497
Flags: W
LayerCount: 2
Back
Fore
SplineSet
39 200 m 0,0,1
 39 243 39 243 55.5 281.5 c 128,-1,2
 72 320 72 320 100.5 348.5 c 128,-1,3
 129 377 129 377 167.5 393.5 c 128,-1,4
 206 410 206 410 250 410 c 256,5,6
 294 410 294 410 332.5 393.5 c 128,-1,7
 371 377 371 377 399 348.5 c 128,-1,8
 427 320 427 320 443 281.5 c 128,-1,9
 459 243 459 243 459 200 c 256,10,11
 459 157 459 157 443 119 c 128,-1,12
 427 81 427 81 398.5 53 c 128,-1,13
 370 25 370 25 332 8.5 c 128,-1,14
 294 -8 294 -8 249 -8 c 0,15,16
 205 -8 205 -8 167 7.5 c 128,-1,17
 129 23 129 23 100.5 51 c 128,-1,18
 72 79 72 79 55.5 117 c 128,-1,19
 39 155 39 155 39 200 c 0,0,1
94 200 m 256,20,21
 94 168 94 168 106 140 c 128,-1,22
 118 112 118 112 139 91 c 128,-1,23
 160 70 160 70 188 58 c 128,-1,24
 216 46 216 46 248 46 c 256,25,26
 280 46 280 46 308.5 58 c 128,-1,27
 337 70 337 70 358 91 c 128,-1,28
 379 112 379 112 391 140 c 128,-1,29
 403 168 403 168 403 200 c 256,30,31
 403 232 403 232 391 260.5 c 128,-1,32
 379 289 379 289 358 310 c 128,-1,33
 337 331 337 331 308.5 343 c 128,-1,34
 280 355 280 355 248 355 c 256,35,36
 216 355 216 355 188 343 c 128,-1,37
 160 331 160 331 139 310 c 128,-1,38
 118 289 118 289 106 260.5 c 128,-1,39
 94 232 94 232 94 200 c 256,20,21
308 517 m 0,40,41
 308 534 308 534 320 546 c 128,-1,42
 332 558 332 558 348 558 c 0,43,44
 363 558 363 558 375.5 546 c 128,-1,45
 388 534 388 534 388 517 c 0,46,47
 388 499 388 499 375.5 487.5 c 128,-1,48
 363 476 363 476 348 476 c 0,49,50
 332 476 332 476 320 487.5 c 128,-1,51
 308 499 308 499 308 517 c 0,40,41
129 517 m 0,52,53
 129 534 129 534 141 546 c 128,-1,54
 153 558 153 558 169 558 c 0,55,56
 184 558 184 558 196.5 546 c 128,-1,57
 209 534 209 534 209 517 c 0,58,59
 209 499 209 499 196.5 487.5 c 128,-1,60
 184 476 184 476 169 476 c 0,61,62
 153 476 153 476 141 487.5 c 128,-1,63
 129 499 129 499 129 517 c 0,52,53
EndSplineSet
EndChar

StartChar: udieresis
Encoding: 252 252 24
Width: 481
Flags: W
LayerCount: 2
Back
Fore
SplineSet
414 -5 m 1,0,-1
 368 -5 l 1,1,-1
 362 103 l 1,2,3
 341 53 341 53 298 22 c 128,-1,4
 255 -9 255 -9 194 -9 c 0,5,6
 135 -9 135 -9 100.5 24 c 128,-1,7
 66 57 66 57 64 111 c 2,8,-1
 64 400 l 1,9,-1
 119 400 l 1,10,-1
 119 130 l 2,11,12
 121 96 121 96 143 72 c 128,-1,13
 165 48 165 48 209 46 c 0,14,15
 240 46 240 46 267.5 56.5 c 128,-1,16
 295 67 295 67 315 85.5 c 128,-1,17
 335 104 335 104 347 130 c 128,-1,18
 359 156 359 156 359 187 c 2,19,-1
 359 400 l 1,20,-1
 414 400 l 1,21,-1
 414 -5 l 1,0,-1
305 517 m 0,22,23
 305 534 305 534 317 546 c 128,-1,24
 329 558 329 558 345 558 c 0,25,26
 360 558 360 558 372.5 546 c 128,-1,27
 385 534 385 534 385 517 c 0,28,29
 385 499 385 499 372.5 487.5 c 128,-1,30
 360 476 360 476 345 476 c 0,31,32
 329 476 329 476 317 487.5 c 128,-1,33
 305 499 305 499 305 517 c 0,22,23
126 517 m 0,34,35
 126 534 126 534 138 546 c 128,-1,36
 150 558 150 558 166 558 c 0,37,38
 181 558 181 558 193.5 546 c 128,-1,39
 206 534 206 534 206 517 c 0,40,41
 206 499 206 499 193.5 487.5 c 128,-1,42
 181 476 181 476 166 476 c 0,43,44
 150 476 150 476 138 487.5 c 128,-1,45
 126 499 126 499 126 517 c 0,34,35
EndSplineSet
EndChar

StartChar: agrave
Encoding: 224 224 25
Width: 528
Flags: W
LayerCount: 2
Back
Fore
SplineSet
39 198 m 0,0,1
 39 241 39 241 55.5 279.5 c 128,-1,2
 72 318 72 318 100.5 347 c 128,-1,3
 129 376 129 376 167 392.5 c 128,-1,4
 205 409 205 409 248 409 c 0,5,6
 278 409 278 409 304 401 c 128,-1,7
 330 393 330 393 350.5 379.5 c 128,-1,8
 371 366 371 366 385 349.5 c 128,-1,9
 399 333 399 333 406 317 c 1,10,-1
 410 400 l 1,11,-1
 461 400 l 1,12,-1
 461 0 l 1,13,-1
 406 0 l 1,14,-1
 406 41 l 2,15,16
 406 52 406 52 406.5 62 c 128,-1,17
 407 72 407 72 407 81 c 1,18,19
 400 64 400 64 386 48.5 c 128,-1,20
 372 33 372 33 351.5 20 c 128,-1,21
 331 7 331 7 305 -0.5 c 128,-1,22
 279 -8 279 -8 248 -8 c 0,23,24
 203 -8 203 -8 164.5 8.5 c 128,-1,25
 126 25 126 25 98.5 53 c 128,-1,26
 71 81 71 81 55 118.5 c 128,-1,27
 39 156 39 156 39 198 c 0,0,1
94 201 m 256,28,29
 94 168 94 168 106 140 c 128,-1,30
 118 112 118 112 139 91 c 128,-1,31
 160 70 160 70 188.5 58 c 128,-1,32
 217 46 217 46 250 46 c 256,33,34
 283 46 283 46 311.5 58 c 128,-1,35
 340 70 340 70 361 91 c 128,-1,36
 382 112 382 112 394 140 c 128,-1,37
 406 168 406 168 406 201 c 0,38,39
 406 233 406 233 394 261 c 128,-1,40
 382 289 382 289 361 310 c 128,-1,41
 340 331 340 331 311.5 343 c 128,-1,42
 283 355 283 355 250 355 c 256,43,44
 217 355 217 355 188.5 343 c 128,-1,45
 160 331 160 331 139 310.5 c 128,-1,46
 118 290 118 290 106 262 c 128,-1,47
 94 234 94 234 94 201 c 256,28,29
187 617 m 1,48,49
 210 583 210 583 232.5 549.5 c 128,-1,50
 255 516 255 516 278 483 c 1,51,-1
 234 483 l 1,52,-1
 127 617 l 1,53,-1
 187 617 l 1,48,49
EndSplineSet
EndChar

StartChar: egrave
Encoding: 232 232 26
Width: 455
Flags: W
LayerCount: 2
Back
Fore
SplineSet
399 48 m 1,0,1
 370 22 370 22 331 7 c 128,-1,2
 292 -8 292 -8 250 -8 c 0,3,4
 206 -8 206 -8 167.5 8.5 c 128,-1,5
 129 25 129 25 100.5 53 c 128,-1,6
 72 81 72 81 55.5 119 c 128,-1,7
 39 157 39 157 39 200 c 256,8,9
 39 243 39 243 55.5 281.5 c 128,-1,10
 72 320 72 320 100.5 348.5 c 128,-1,11
 129 377 129 377 167 393.5 c 128,-1,12
 205 410 205 410 248 410 c 0,13,14
 314 410 314 410 362.5 370 c 128,-1,15
 411 330 411 330 434 268 c 1,16,17
 400 255 400 255 358.5 238.5 c 128,-1,18
 317 222 317 222 273.5 204.5 c 128,-1,19
 230 187 230 187 187 169.5 c 128,-1,20
 144 152 144 152 107 137 c 1,21,22
 125 96 125 96 162.5 71 c 128,-1,23
 200 46 200 46 248 46 c 0,24,25
 280 46 280 46 309 57 c 128,-1,26
 338 68 338 68 358 87 c 1,27,-1
 399 48 l 1,0,1
365 282 m 1,28,29
 348 316 348 316 317 335.5 c 128,-1,30
 286 355 286 355 248 355 c 0,31,32
 216 355 216 355 188 342.5 c 128,-1,33
 160 330 160 330 139 309 c 128,-1,34
 118 288 118 288 106 260.5 c 128,-1,35
 94 233 94 233 94 202 c 0,36,37
 94 186 94 186 97 174 c 1,38,39
 128 187 128 187 163 201 c 128,-1,40
 198 215 198 215 233 229.5 c 128,-1,41
 268 244 268 244 302 257.5 c 128,-1,42
 336 271 336 271 365 282 c 1,28,29
163 617 m 1,43,44
 186 583 186 583 208.5 549.5 c 128,-1,45
 231 516 231 516 254 483 c 1,46,-1
 210 483 l 1,47,-1
 103 617 l 1,48,-1
 163 617 l 1,43,44
EndSplineSet
EndChar

StartChar: igrave
Encoding: 236 236 27
Width: 190
Flags: W
LayerCount: 2
Back
Fore
SplineSet
123 0 m 1,0,-1
 68 0 l 1,1,-1
 68 400 l 1,2,-1
 123 400 l 1,3,-1
 123 0 l 1,0,-1
36 617 m 1,4,5
 59 583 59 583 81.5 549.5 c 128,-1,6
 104 516 104 516 127 483 c 1,7,-1
 83 483 l 1,8,-1
 -24 617 l 1,9,-1
 36 617 l 1,4,5
EndSplineSet
EndChar

StartChar: ograve
Encoding: 242 242 28
Width: 497
Flags: W
LayerCount: 2
Back
Fore
SplineSet
39 200 m 0,0,1
 39 243 39 243 55.5 281.5 c 128,-1,2
 72 320 72 320 100.5 348.5 c 128,-1,3
 129 377 129 377 167.5 393.5 c 128,-1,4
 206 410 206 410 250 410 c 256,5,6
 294 410 294 410 332.5 393.5 c 128,-1,7
 371 377 371 377 399 348.5 c 128,-1,8
 427 320 427 320 443 281.5 c 128,-1,9
 459 243 459 243 459 200 c 256,10,11
 459 157 459 157 443 119 c 128,-1,12
 427 81 427 81 398.5 53 c 128,-1,13
 370 25 370 25 332 8.5 c 128,-1,14
 294 -8 294 -8 249 -8 c 0,15,16
 205 -8 205 -8 167 7.5 c 128,-1,17
 129 23 129 23 100.5 51 c 128,-1,18
 72 79 72 79 55.5 117 c 128,-1,19
 39 155 39 155 39 200 c 0,0,1
94 200 m 256,20,21
 94 168 94 168 106 140 c 128,-1,22
 118 112 118 112 139 91 c 128,-1,23
 160 70 160 70 188 58 c 128,-1,24
 216 46 216 46 248 46 c 256,25,26
 280 46 280 46 308.5 58 c 128,-1,27
 337 70 337 70 358 91 c 128,-1,28
 379 112 379 112 391 140 c 128,-1,29
 403 168 403 168 403 200 c 256,30,31
 403 232 403 232 391 260.5 c 128,-1,32
 379 289 379 289 358 310 c 128,-1,33
 337 331 337 331 308.5 343 c 128,-1,34
 280 355 280 355 248 355 c 256,35,36
 216 355 216 355 188 343 c 128,-1,37
 160 331 160 331 139 310 c 128,-1,38
 118 289 118 289 106 260.5 c 128,-1,39
 94 232 94 232 94 200 c 256,20,21
169 617 m 1,40,41
 192 583 192 583 214.5 549.5 c 128,-1,42
 237 516 237 516 260 483 c 1,43,-1
 216 483 l 1,44,-1
 109 617 l 1,45,-1
 169 617 l 1,40,41
EndSplineSet
EndChar

StartChar: ugrave
Encoding: 249 249 29
Width: 481
Flags: W
LayerCount: 2
Back
Fore
SplineSet
414 -5 m 1,0,-1
 368 -5 l 1,1,-1
 362 103 l 1,2,3
 341 53 341 53 298 22 c 128,-1,4
 255 -9 255 -9 194 -9 c 0,5,6
 135 -9 135 -9 100.5 24 c 128,-1,7
 66 57 66 57 64 111 c 2,8,-1
 64 400 l 1,9,-1
 119 400 l 1,10,-1
 119 130 l 2,11,12
 121 96 121 96 143 72 c 128,-1,13
 165 48 165 48 209 46 c 0,14,15
 240 46 240 46 267.5 56.5 c 128,-1,16
 295 67 295 67 315 85.5 c 128,-1,17
 335 104 335 104 347 130 c 128,-1,18
 359 156 359 156 359 187 c 2,19,-1
 359 400 l 1,20,-1
 414 400 l 1,21,-1
 414 -5 l 1,0,-1
201 617 m 1,22,23
 224 583 224 583 246.5 549.5 c 128,-1,24
 269 516 269 516 292 483 c 1,25,-1
 248 483 l 1,26,-1
 141 617 l 1,27,-1
 201 617 l 1,22,23
EndSplineSet
EndChar

StartChar: comma
Encoding: 44 44 30
Width: 229
Flags: W
LayerCount: 2
Back
Fore
SplineSet
155 87 m 1,0,-1
 69 -121 l 1,1,-1
 15 -121 l 1,2,3
 35 -68 35 -68 54 -17 c 128,-1,4
 73 34 73 34 93 87 c 1,5,-1
 155 87 l 1,0,-1
EndSplineSet
EndChar

StartChar: period
Encoding: 46 46 31
Width: 207
Flags: W
LayerCount: 2
Back
Fore
SplineSet
64 41 m 0,0,1
 64 58 64 58 76 70 c 128,-1,2
 88 82 88 82 104 82 c 0,3,4
 119 82 119 82 131.5 70 c 128,-1,5
 144 58 144 58 144 41 c 0,6,7
 144 23 144 23 131.5 11.5 c 128,-1,8
 119 0 119 0 104 0 c 0,9,10
 88 0 88 0 76 11.5 c 128,-1,11
 64 23 64 23 64 41 c 0,0,1
EndSplineSet
EndChar

StartChar: f
Encoding: 102 102 32
Width: 295
Flags: W
LayerCount: 2
Back
Fore
SplineSet
28 345 m 1,0,-1
 28 399 l 1,1,-1
 97 399 l 1,2,-1
 97 517 l 2,3,4
 97 639 97 639 155.5 700.5 c 128,-1,5
 214 762 214 762 311 766 c 1,6,-1
 311 713 l 1,7,8
 237 711 237 711 194.5 659.5 c 128,-1,9
 152 608 152 608 152 517 c 2,10,-1
 152 399 l 1,11,-1
 283 399 l 1,12,-1
 283 345 l 1,13,-1
 152 345 l 1,14,-1
 152 0 l 1,15,-1
 97 0 l 1,16,-1
 97 345 l 1,17,-1
 28 345 l 1,0,-1
EndSplineSet
EndChar

StartChar: aring
Encoding: 229 229 33
Width: 529
Flags: W
LayerCount: 2
Back
Fore
SplineSet
39 198 m 0,0,1
 39 241 39 241 55.5 279.5 c 128,-1,2
 72 318 72 318 100.5 347 c 128,-1,3
 129 376 129 376 167 392.5 c 128,-1,4
 205 409 205 409 248 409 c 0,5,6
 278 409 278 409 304 401 c 128,-1,7
 330 393 330 393 350.5 379.5 c 128,-1,8
 371 366 371 366 385 349.5 c 128,-1,9
 399 333 399 333 406 317 c 1,10,-1
 410 400 l 1,11,-1
 461 400 l 1,12,-1
 461 0 l 1,13,-1
 406 0 l 1,14,-1
 406 41 l 2,15,16
 406 52 406 52 406.5 62 c 128,-1,17
 407 72 407 72 407 81 c 1,18,19
 400 64 400 64 386 48.5 c 128,-1,20
 372 33 372 33 351.5 20 c 128,-1,21
 331 7 331 7 305 -0.5 c 128,-1,22
 279 -8 279 -8 248 -8 c 0,23,24
 203 -8 203 -8 164.5 8.5 c 128,-1,25
 126 25 126 25 98.5 53 c 128,-1,26
 71 81 71 81 55 118.5 c 128,-1,27
 39 156 39 156 39 198 c 0,0,1
94 201 m 256,28,29
 94 168 94 168 106 140 c 128,-1,30
 118 112 118 112 139 91 c 128,-1,31
 160 70 160 70 188.5 58 c 128,-1,32
 217 46 217 46 250 46 c 256,33,34
 283 46 283 46 311.5 58 c 128,-1,35
 340 70 340 70 361 91 c 128,-1,36
 382 112 382 112 394 140 c 128,-1,37
 406 168 406 168 406 201 c 0,38,39
 406 233 406 233 394 261 c 128,-1,40
 382 289 382 289 361 310 c 128,-1,41
 340 331 340 331 311.5 343 c 128,-1,42
 283 355 283 355 250 355 c 256,43,44
 217 355 217 355 188.5 343 c 128,-1,45
 160 331 160 331 139 310.5 c 128,-1,46
 118 290 118 290 106 262 c 128,-1,47
 94 234 94 234 94 201 c 256,28,29
179 512 m 0,48,49
 179 543 179 543 201 565 c 128,-1,50
 223 587 223 587 255 587 c 256,51,52
 287 587 287 587 309 565 c 128,-1,53
 331 543 331 543 331 512 c 0,54,55
 331 480 331 480 309 458 c 128,-1,56
 287 436 287 436 255 436 c 256,57,58
 223 436 223 436 201 458 c 128,-1,59
 179 480 179 480 179 512 c 0,48,49
214 511 m 256,60,61
 214 494 214 494 226 482 c 128,-1,62
 238 470 238 470 255 470 c 256,63,64
 272 470 272 470 284 482 c 128,-1,65
 296 494 296 494 296 511 c 256,66,67
 296 528 296 528 284 540 c 128,-1,68
 272 552 272 552 255 552 c 256,69,70
 238 552 238 552 226 540 c 128,-1,71
 214 528 214 528 214 511 c 256,60,61
EndSplineSet
EndChar

StartChar: v
Encoding: 118 118 34
Width: 426
Flags: W
LayerCount: 2
Back
Fore
SplineSet
214 -24 m 1,0,1
 186 29 186 29 161 82 c 128,-1,2
 136 135 136 135 112 188 c 128,-1,3
 88 241 88 241 63.5 294 c 128,-1,4
 39 347 39 347 12 400 c 1,5,-1
 71 400 l 1,6,7
 101 340 101 340 122 294.5 c 128,-1,8
 143 249 143 249 158.5 212.5 c 128,-1,9
 174 176 174 176 187 144.5 c 128,-1,10
 200 113 200 113 214 81 c 1,11,12
 228 113 228 113 240.5 144.5 c 128,-1,13
 253 176 253 176 268.5 212.5 c 128,-1,14
 284 249 284 249 305 294.5 c 128,-1,15
 326 340 326 340 356 400 c 1,16,-1
 415 400 l 1,17,18
 361 293 361 293 314.5 188 c 128,-1,19
 268 83 268 83 214 -24 c 1,0,1
EndSplineSet
EndChar

StartChar: j
Encoding: 106 106 35
Width: 190
Flags: W
LayerCount: 2
Back
Fore
SplineSet
49 -192 m 1,0,1
 38 -182 38 -182 29 -172.5 c 128,-1,2
 20 -163 20 -163 10 -152 c 1,3,4
 37 -126 37 -126 52.5 -89.5 c 128,-1,5
 68 -53 68 -53 68 -3 c 2,6,-1
 68 400 l 1,7,-1
 123 400 l 1,8,-1
 123 -3 l 2,9,10
 123 -66 123 -66 103 -113.5 c 128,-1,11
 83 -161 83 -161 49 -192 c 1,0,1
57 545 m 0,12,13
 57 562 57 562 69.5 573.5 c 128,-1,14
 82 585 82 585 97 585 c 0,15,16
 113 585 113 585 125 573.5 c 128,-1,17
 137 562 137 562 137 545 c 0,18,19
 137 527 137 527 125 516 c 128,-1,20
 113 505 113 505 97 505 c 0,21,22
 82 505 82 505 69.5 516 c 128,-1,23
 57 527 57 527 57 545 c 0,12,13
EndSplineSet
EndChar

StartChar: s
Encoding: 115 115 36
Width: 331
Flags: W
LayerCount: 2
Back
Fore
SplineSet
279 362 m 1,0,-1
 249 323 l 1,1,2
 241 334 241 334 217.5 343.5 c 128,-1,3
 194 353 194 353 170 353 c 0,4,5
 160 353 160 353 148.5 350 c 128,-1,6
 137 347 137 347 127.5 340.5 c 128,-1,7
 118 334 118 334 111.5 323.5 c 128,-1,8
 105 313 105 313 105 298 c 0,9,10
 105 275 105 275 119 261.5 c 128,-1,11
 133 248 133 248 154 238 c 128,-1,12
 175 228 175 228 199.5 219 c 128,-1,13
 224 210 224 210 245 197 c 128,-1,14
 266 184 266 184 280 163.5 c 128,-1,15
 294 143 294 143 294 111 c 0,16,17
 294 61 294 61 260 26.5 c 128,-1,18
 226 -8 226 -8 163 -8 c 0,19,20
 129 -8 129 -8 93.5 4 c 128,-1,21
 58 16 58 16 36 42 c 1,22,23
 40 46 40 46 46 53 c 128,-1,24
 52 60 52 60 57 66 c 128,-1,25
 62 72 62 72 65.5 76.5 c 128,-1,26
 69 81 69 81 70 81 c 0,27,28
 73 76 73 76 83 70 c 128,-1,29
 93 64 93 64 106 58.5 c 128,-1,30
 119 53 119 53 134 49 c 128,-1,31
 149 45 149 45 163 45 c 0,32,33
 175 45 175 45 188.5 48.5 c 128,-1,34
 202 52 202 52 213.5 60 c 128,-1,35
 225 68 225 68 232 80 c 128,-1,36
 239 92 239 92 239 109 c 0,37,38
 239 132 239 132 225 145.5 c 128,-1,39
 211 159 211 159 190 169 c 128,-1,40
 169 179 169 179 144 187.5 c 128,-1,41
 119 196 119 196 98 209 c 128,-1,42
 77 222 77 222 63 243 c 128,-1,43
 49 264 49 264 49 297 c 0,44,45
 49 327 49 327 60 347.5 c 128,-1,46
 71 368 71 368 88 381.5 c 128,-1,47
 105 395 105 395 126.5 401 c 128,-1,48
 148 407 148 407 168 407 c 0,49,50
 194 407 194 407 225 396 c 128,-1,51
 256 385 256 385 279 362 c 1,0,-1
EndSplineSet
EndChar

StartChar: k
Encoding: 107 107 37
Width: 412
Flags: W
LayerCount: 2
Back
Fore
SplineSet
339 410 m 1,0,-1
 372 376 l 1,1,2
 334 341 334 341 299.5 307.5 c 128,-1,3
 265 274 265 274 227 239 c 1,4,-1
 401 0 l 1,5,-1
 337 0 l 1,6,-1
 188 202 l 1,7,-1
 123 142 l 1,8,-1
 123 0 l 1,9,-1
 68 0 l 1,10,-1
 68 766 l 1,11,-1
 123 766 l 1,12,-1
 123 208 l 1,13,14
 179 260 179 260 231 308.5 c 128,-1,15
 283 357 283 357 339 410 c 1,0,-1
EndSplineSet
EndChar

StartChar: y
Encoding: 121 121 38
Width: 447
Flags: W
LayerCount: 2
Back
Fore
SplineSet
160 -192 m 1,0,-1
 102 -192 l 1,1,2
 115 -165 115 -165 125.5 -141.5 c 128,-1,3
 136 -118 136 -118 146 -94 c 128,-1,4
 156 -70 156 -70 167.5 -43.5 c 128,-1,5
 179 -17 179 -17 194 16 c 1,6,7
 148 108 148 108 104 207.5 c 128,-1,8
 60 307 60 307 14 400 c 1,9,-1
 73 400 l 1,10,11
 103 340 103 340 125 292 c 128,-1,12
 147 244 147 244 164.5 204.5 c 128,-1,13
 182 165 182 165 196 131 c 128,-1,14
 210 97 210 97 224 65 c 1,15,16
 238 97 238 97 251.5 131 c 128,-1,17
 265 165 265 165 282.5 204.5 c 128,-1,18
 300 244 300 244 322 292 c 128,-1,19
 344 340 344 340 374 400 c 1,20,-1
 433 400 l 1,21,-1
 160 -192 l 1,0,-1
EndSplineSet
EndChar

StartChar: oslash
Encoding: 248 248 39
Width: 496
Flags: W
LayerCount: 2
Back
Fore
SplineSet
38 200 m 0,0,1
 38 243 38 243 54.5 281.5 c 128,-1,2
 71 320 71 320 99.5 348.5 c 128,-1,3
 128 377 128 377 166.5 393.5 c 128,-1,4
 205 410 205 410 249 410 c 0,5,6
 281 410 281 410 310 401 c 128,-1,7
 339 392 339 392 364 376 c 1,8,-1
 397 415 l 1,9,-1
 427 390 l 1,10,-1
 394 351 l 1,11,12
 424 322 424 322 441 283.5 c 128,-1,13
 458 245 458 245 458 200 c 0,14,15
 458 157 458 157 442 119 c 128,-1,16
 426 81 426 81 397.5 53 c 128,-1,17
 369 25 369 25 331 8.5 c 128,-1,18
 293 -8 293 -8 248 -8 c 0,19,20
 212 -8 212 -8 179 2.5 c 128,-1,21
 146 13 146 13 120 33 c 1,22,23
 107 18 107 18 96.5 6 c 128,-1,24
 86 -6 86 -6 79 -15 c 1,25,-1
 51 12 l 1,26,27
 58 20 58 20 68 32.5 c 128,-1,28
 78 45 78 45 91 59 c 1,29,30
 66 87 66 87 52 122.5 c 128,-1,31
 38 158 38 158 38 200 c 0,0,1
156 75 m 1,32,33
 175 61 175 61 198 53.5 c 128,-1,34
 221 46 221 46 247 46 c 0,35,36
 279 46 279 46 307.5 58 c 128,-1,37
 336 70 336 70 357 91 c 128,-1,38
 378 112 378 112 390 140 c 128,-1,39
 402 168 402 168 402 200 c 256,40,41
 402 232 402 232 390 260 c 128,-1,42
 378 288 378 288 357 309 c 1,43,44
 334 283 334 283 308.5 253 c 128,-1,45
 283 223 283 223 257 192.5 c 128,-1,46
 231 162 231 162 205 132 c 128,-1,47
 179 102 179 102 156 75 c 1,32,33
93 200 m 0,48,49
 93 143 93 143 128 102 c 1,50,51
 151 128 151 128 176.5 157.5 c 128,-1,52
 202 187 202 187 228 217.5 c 128,-1,53
 254 248 254 248 279.5 277.5 c 128,-1,54
 305 307 305 307 327 333 c 1,55,56
 291 355 291 355 247 355 c 0,57,58
 215 355 215 355 187 343 c 128,-1,59
 159 331 159 331 138 310 c 128,-1,60
 117 289 117 289 105 260.5 c 128,-1,61
 93 232 93 232 93 200 c 0,48,49
EndSplineSet
EndChar

StartChar: w
Encoding: 119 119 40
Width: 645
Flags: W
LayerCount: 2
Back
Fore
SplineSet
295 314 m 1,0,-1
 256 400 l 1,1,-1
 305 400 l 1,2,3
 355 289 355 289 387.5 213.5 c 128,-1,4
 420 138 420 138 444 81 c 1,5,6
 456 117 456 117 469.5 151 c 128,-1,7
 483 185 483 185 499 222 c 128,-1,8
 515 259 515 259 534.5 302 c 128,-1,9
 554 345 554 345 578 400 c 1,10,-1
 633 400 l 1,11,-1
 444 -24 l 1,12,13
 410 48 410 48 381.5 118 c 128,-1,14
 353 188 353 188 319 260 c 1,15,-1
 199 -24 l 1,16,17
 152 83 152 83 106.5 188 c 128,-1,18
 61 293 61 293 15 400 c 1,19,-1
 70 400 l 1,20,21
 94 345 94 345 112.5 301.5 c 128,-1,22
 131 258 131 258 146 221 c 128,-1,23
 161 184 161 184 174 150.5 c 128,-1,24
 187 117 187 117 199 81 c 1,25,26
 207 102 207 102 216 124 c 128,-1,27
 225 146 225 146 236 173 c 128,-1,28
 247 200 247 200 261 234.5 c 128,-1,29
 275 269 275 269 295 314 c 1,0,-1
EndSplineSet
EndChar

StartChar: x
Encoding: 120 120 41
Width: 400
Flags: W
LayerCount: 2
Back
Fore
SplineSet
166 207 m 1,0,1
 132 255 132 255 96 303.5 c 128,-1,2
 60 352 60 352 25 400 c 1,3,-1
 93 400 l 1,4,5
 121 358 121 358 147 323.5 c 128,-1,6
 173 289 173 289 202 248 c 1,7,8
 230 289 230 289 256 323.5 c 128,-1,9
 282 358 282 358 310 399 c 1,10,-1
 372 399 l 1,11,12
 354 373 354 373 337.5 349 c 128,-1,13
 321 325 321 325 304 302 c 128,-1,14
 287 279 287 279 269.5 255 c 128,-1,15
 252 231 252 231 234 204 c 1,16,17
 269 156 269 156 309 102 c 128,-1,18
 349 48 349 48 383 0 c 1,19,-1
 314 0 l 1,20,21
 284 41 284 41 254.5 78.5 c 128,-1,22
 225 116 225 116 196 157 c 1,23,24
 167 116 167 116 140 79 c 128,-1,25
 113 42 113 42 84 0 c 1,26,-1
 22 0 l 1,27,28
 57 52 57 52 94 103.5 c 128,-1,29
 131 155 131 155 166 207 c 1,0,1
EndSplineSet
EndChar

StartChar: z
Encoding: 122 122 42
Width: 403
Flags: W
LayerCount: 2
Back
Fore
SplineSet
371 0 m 1,0,-1
 26 0 l 1,1,-1
 275 352 l 1,2,-1
 106 352 l 2,3,4
 73 352 73 352 53.5 366.5 c 128,-1,5
 34 381 34 381 34 411 c 2,6,-1
 34 438 l 1,7,-1
 84 438 l 1,8,-1
 84 425 l 2,9,10
 84 411 84 411 92 405.5 c 128,-1,11
 100 400 100 400 117 400 c 2,12,-1
 375 400 l 1,13,-1
 130 54 l 1,14,-1
 371 54 l 1,15,-1
 371 0 l 1,0,-1
EndSplineSet
EndChar

StartChar: o
Encoding: 111 111 43
Width: 497
Flags: W
LayerCount: 2
Back
Fore
SplineSet
39 200 m 0,0,1
 39 243 39 243 55.5 281.5 c 128,-1,2
 72 320 72 320 100.5 348.5 c 128,-1,3
 129 377 129 377 167.5 393.5 c 128,-1,4
 206 410 206 410 250 410 c 256,5,6
 294 410 294 410 332.5 393.5 c 128,-1,7
 371 377 371 377 399 348.5 c 128,-1,8
 427 320 427 320 443 281.5 c 128,-1,9
 459 243 459 243 459 200 c 256,10,11
 459 157 459 157 443 119 c 128,-1,12
 427 81 427 81 398.5 53 c 128,-1,13
 370 25 370 25 332 8.5 c 128,-1,14
 294 -8 294 -8 249 -8 c 0,15,16
 205 -8 205 -8 167 7.5 c 128,-1,17
 129 23 129 23 100.5 51 c 128,-1,18
 72 79 72 79 55.5 117 c 128,-1,19
 39 155 39 155 39 200 c 0,0,1
94 200 m 256,20,21
 94 168 94 168 106 140 c 128,-1,22
 118 112 118 112 139 91 c 128,-1,23
 160 70 160 70 188 58 c 128,-1,24
 216 46 216 46 248 46 c 256,25,26
 280 46 280 46 308.5 58 c 128,-1,27
 337 70 337 70 358 91 c 128,-1,28
 379 112 379 112 391 140 c 128,-1,29
 403 168 403 168 403 200 c 256,30,31
 403 232 403 232 391 260.5 c 128,-1,32
 379 289 379 289 358 310 c 128,-1,33
 337 331 337 331 308.5 343 c 128,-1,34
 280 355 280 355 248 355 c 256,35,36
 216 355 216 355 188 343 c 128,-1,37
 160 331 160 331 139 310 c 128,-1,38
 118 289 118 289 106 260.5 c 128,-1,39
 94 232 94 232 94 200 c 256,20,21
EndSplineSet
EndChar

StartChar: ae
Encoding: 230 230 44
Width: 666
Flags: W
LayerCount: 2
Back
Fore
SplineSet
357 97 m 1,0,-1
 354 87 l 1,1,2
 374 67 374 67 401 56.5 c 128,-1,3
 428 46 428 46 459 46 c 0,4,5
 491 46 491 46 520 57 c 128,-1,6
 549 68 549 68 569 87 c 1,7,-1
 610 48 l 1,8,9
 581 22 581 22 542 7 c 128,-1,10
 503 -8 503 -8 461 -8 c 0,11,12
 422 -8 422 -8 387 4.5 c 128,-1,13
 352 17 352 17 325 40 c 1,14,15
 300 16 300 16 263 4 c 128,-1,16
 226 -8 226 -8 182 -8 c 0,17,18
 144 -8 144 -8 116.5 2 c 128,-1,19
 89 12 89 12 71 28.5 c 128,-1,20
 53 45 53 45 44.5 66 c 128,-1,21
 36 87 36 87 36 110 c 0,22,23
 36 138 36 138 48 158 c 128,-1,24
 60 178 60 178 78.5 191.5 c 128,-1,25
 97 205 97 205 120 211.5 c 128,-1,26
 143 218 143 218 166 218 c 2,27,-1
 250 218 l 1,28,29
 256 280 256 280 291 325 c 1,30,31
 265 354 265 354 198 354 c 0,32,33
 154 354 154 354 126 345 c 128,-1,34
 98 336 98 336 76 322 c 1,35,-1
 52 366 l 1,36,37
 80 386 80 386 119 397.5 c 128,-1,38
 158 409 158 409 207 409 c 0,39,40
 251 409 251 409 282 397.5 c 128,-1,41
 313 386 313 386 331 365 c 1,42,43
 357 386 357 386 390 398 c 128,-1,44
 423 410 423 410 459 410 c 0,45,46
 525 410 525 410 573.5 370 c 128,-1,47
 622 330 622 330 645 268 c 1,48,49
 611 255 611 255 569.5 238.5 c 128,-1,50
 528 222 528 222 484.5 204.5 c 128,-1,51
 441 187 441 187 398 169.5 c 128,-1,52
 355 152 355 152 318 137 c 1,53,54
 326 118 326 118 337 104 c 1,55,-1
 357 97 l 1,0,-1
576 282 m 1,56,57
 559 316 559 316 528 335.5 c 128,-1,58
 497 355 497 355 459 355 c 0,59,60
 427 355 427 355 399 342.5 c 128,-1,61
 371 330 371 330 350 309 c 128,-1,62
 329 288 329 288 317 260.5 c 128,-1,63
 305 233 305 233 305 202 c 0,64,65
 305 186 305 186 308 174 c 1,66,67
 339 187 339 187 374 201 c 128,-1,68
 409 215 409 215 444 229.5 c 128,-1,69
 479 244 479 244 513 257.5 c 128,-1,70
 547 271 547 271 576 282 c 1,56,57
88 115 m 0,71,72
 88 95 88 95 97 81.5 c 128,-1,73
 106 68 106 68 120 60 c 128,-1,74
 134 52 134 52 152 49 c 128,-1,75
 170 46 170 46 188 46 c 0,76,77
 258 46 258 46 290 78 c 1,78,79
 259 118 259 118 251 174 c 1,80,-1
 200 174 l 2,81,82
 167 174 167 174 145.5 169 c 128,-1,83
 124 164 124 164 111.5 155.5 c 128,-1,84
 99 147 99 147 93.5 136.5 c 128,-1,85
 88 126 88 126 88 115 c 0,71,72
EndSplineSet
EndChar

StartChar: A
Encoding: 65 65 45
Width: 645
Flags: WO
LayerCount: 2
Back
Fore
SplineSet
15 0 m 1,0,1
 30 36 30 36 55 95.5 c 128,-1,2
 80 155 80 155 109 226 c 128,-1,3
 138 297 138 297 169 373.5 c 128,-1,4
 200 450 200 450 229 521 c 128,-1,5
 258 592 258 592 282.5 651 c 128,-1,6
 307 710 307 710 323 747 c 1,7,8
 338 710 338 710 363 651 c 128,-1,9
 388 592 388 592 417 521 c 128,-1,10
 446 450 446 450 477.5 373.5 c 128,-1,11
 509 297 509 297 538 226 c 128,-1,12
 567 155 567 155 591.5 95.5 c 128,-1,13
 616 36 616 36 632 0 c 1,14,-1
 563 0 l 1,15,16
 543 46 543 46 516 113 c 0,17,-1
 333 572 l 0,18,19
 331 576 331 576 328 585.5 c 128,-1,20
 325 595 325 595 323 603 c 1,21,22
 321 595 321 595 318 585.5 c 128,-1,23
 315 576 315 576 313 572 c 0,24,-1
 130 113 l 0,25,26
 103 46 103 46 83 0 c 1,27,-1
 15 0 l 1,0,1
EndSplineSet
EndChar

StartChar: idieresis
Encoding: 239 239 46
Width: 190
Flags: W
LayerCount: 2
Back
Fore
SplineSet
123 0 m 1,0,-1
 68 0 l 1,1,-1
 68 400 l 1,2,-1
 123 400 l 1,3,-1
 123 0 l 1,0,-1
147 517 m 0,4,5
 147 534 147 534 159 546 c 128,-1,6
 171 558 171 558 187 558 c 0,7,8
 202 558 202 558 214.5 546 c 128,-1,9
 227 534 227 534 227 517 c 0,10,11
 227 499 227 499 214.5 487.5 c 128,-1,12
 202 476 202 476 187 476 c 0,13,14
 171 476 171 476 159 487.5 c 128,-1,15
 147 499 147 499 147 517 c 0,4,5
-32 517 m 0,16,17
 -32 534 -32 534 -20 546 c 128,-1,18
 -8 558 -8 558 8 558 c 0,19,20
 23 558 23 558 35.5 546 c 128,-1,21
 48 534 48 534 48 517 c 0,22,23
 48 499 48 499 35.5 487.5 c 128,-1,24
 23 476 23 476 8 476 c 0,25,26
 -8 476 -8 476 -20 487.5 c 128,-1,27
 -32 499 -32 499 -32 517 c 0,16,17
EndSplineSet
EndChar

StartChar: yacute
Encoding: 253 253 47
Width: 447
Flags: W
LayerCount: 2
Back
Fore
SplineSet
160 -192 m 1,0,-1
 102 -192 l 1,1,2
 115 -165 115 -165 125.5 -141.5 c 128,-1,3
 136 -118 136 -118 146 -94 c 128,-1,4
 156 -70 156 -70 167.5 -43.5 c 128,-1,5
 179 -17 179 -17 194 16 c 1,6,7
 148 108 148 108 104 207.5 c 128,-1,8
 60 307 60 307 14 400 c 1,9,-1
 73 400 l 1,10,11
 103 340 103 340 125 292 c 128,-1,12
 147 244 147 244 164.5 204.5 c 128,-1,13
 182 165 182 165 196 131 c 128,-1,14
 210 97 210 97 224 65 c 1,15,16
 238 97 238 97 251.5 131 c 128,-1,17
 265 165 265 165 282.5 204.5 c 128,-1,18
 300 244 300 244 322 292 c 128,-1,19
 344 340 344 340 374 400 c 1,20,-1
 433 400 l 1,21,-1
 160 -192 l 1,0,-1
210 483 m 1,22,-1
 301 617 l 1,23,-1
 360 617 l 1,24,25
 334 583 334 583 307 549.5 c 128,-1,26
 280 516 280 516 253 483 c 1,27,-1
 210 483 l 1,22,-1
EndSplineSet
EndChar

StartChar: ydieresis
Encoding: 255 255 48
Width: 447
Flags: W
LayerCount: 2
Back
Fore
SplineSet
160 -192 m 1,0,-1
 102 -192 l 1,1,2
 115 -165 115 -165 125.5 -141.5 c 128,-1,3
 136 -118 136 -118 146 -94 c 128,-1,4
 156 -70 156 -70 167.5 -43.5 c 128,-1,5
 179 -17 179 -17 194 16 c 1,6,7
 148 108 148 108 104 207.5 c 128,-1,8
 60 307 60 307 14 400 c 1,9,-1
 73 400 l 1,10,11
 103 340 103 340 125 292 c 128,-1,12
 147 244 147 244 164.5 204.5 c 128,-1,13
 182 165 182 165 196 131 c 128,-1,14
 210 97 210 97 224 65 c 1,15,16
 238 97 238 97 251.5 131 c 128,-1,17
 265 165 265 165 282.5 204.5 c 128,-1,18
 300 244 300 244 322 292 c 128,-1,19
 344 340 344 340 374 400 c 1,20,-1
 433 400 l 1,21,-1
 160 -192 l 1,0,-1
280 517 m 0,22,23
 280 534 280 534 292 546 c 128,-1,24
 304 558 304 558 320 558 c 0,25,26
 335 558 335 558 347.5 546 c 128,-1,27
 360 534 360 534 360 517 c 0,28,29
 360 499 360 499 347.5 487.5 c 128,-1,30
 335 476 335 476 320 476 c 0,31,32
 304 476 304 476 292 487.5 c 128,-1,33
 280 499 280 499 280 517 c 0,22,23
101 517 m 0,34,35
 101 534 101 534 113 546 c 128,-1,36
 125 558 125 558 141 558 c 0,37,38
 156 558 156 558 168.5 546 c 128,-1,39
 181 534 181 534 181 517 c 0,40,41
 181 499 181 499 168.5 487.5 c 128,-1,42
 156 476 156 476 141 476 c 0,43,44
 125 476 125 476 113 487.5 c 128,-1,45
 101 499 101 499 101 517 c 0,34,35
EndSplineSet
EndChar

StartChar: B
Encoding: 66 66 49
Width: 580
Flags: W
LayerCount: 2
Back
Fore
SplineSet
170 652 m 1,0,-1
 170 389 l 1,1,-1
 290 389 l 2,2,3
 355 389 355 389 388 427.5 c 128,-1,4
 421 466 421 466 421 525 c 0,5,6
 421 592 421 592 381 622 c 128,-1,7
 341 652 341 652 277 652 c 2,8,-1
 170 652 l 1,0,-1
170 330 m 1,9,-1
 170 62 l 1,10,-1
 292 62 l 2,11,12
 326 62 326 62 356 70.5 c 128,-1,13
 386 79 386 79 408.5 95.5 c 128,-1,14
 431 112 431 112 444 137 c 128,-1,15
 457 162 457 162 457 195 c 0,16,17
 457 231 457 231 442 257 c 128,-1,18
 427 283 427 283 401.5 299 c 128,-1,19
 376 315 376 315 343.5 322.5 c 128,-1,20
 311 330 311 330 277 330 c 2,21,-1
 170 330 l 1,9,-1
102 0 m 1,22,-1
 102 714 l 1,23,-1
 269 714 l 2,24,25
 319 714 319 714 359.5 704 c 128,-1,26
 400 694 400 694 429 672 c 128,-1,27
 458 650 458 650 473.5 615 c 128,-1,28
 489 580 489 580 489 530 c 0,29,30
 489 501 489 501 483 474.5 c 128,-1,31
 477 448 477 448 464 425.5 c 128,-1,32
 451 403 451 403 430 386.5 c 128,-1,33
 409 370 409 370 378 361 c 1,34,35
 406 355 406 355 432.5 342 c 128,-1,36
 459 329 459 329 479.5 308 c 128,-1,37
 500 287 500 287 512.5 257.5 c 128,-1,38
 525 228 525 228 525 189 c 0,39,40
 525 141 525 141 506 105 c 128,-1,41
 487 69 487 69 455.5 46 c 128,-1,42
 424 23 424 23 383 11.5 c 128,-1,43
 342 0 342 0 298 0 c 2,44,-1
 102 0 l 1,22,-1
EndSplineSet
EndChar

StartChar: D
Encoding: 68 68 50
Width: 713
Flags: W
LayerCount: 2
Back
Fore
SplineSet
103 714 m 1,0,-1
 269 714 l 2,1,2
 377 714 377 714 452 681 c 128,-1,3
 527 648 527 648 574 596 c 128,-1,4
 621 544 621 544 642 479.5 c 128,-1,5
 663 415 663 415 663 352 c 0,6,7
 663 271 663 271 634 206 c 128,-1,8
 605 141 605 141 556 95 c 128,-1,9
 507 49 507 49 442 24.5 c 128,-1,10
 377 0 377 0 304 0 c 2,11,-1
 103 0 l 1,12,-1
 103 714 l 1,0,-1
297 65 m 2,13,14
 359 65 359 65 413.5 85 c 128,-1,15
 468 105 468 105 508.5 142.5 c 128,-1,16
 549 180 549 180 572 234 c 128,-1,17
 595 288 595 288 595 356 c 0,18,19
 595 418 595 418 573.5 471.5 c 128,-1,20
 552 525 552 525 512 564 c 128,-1,21
 472 603 472 603 416 625.5 c 128,-1,22
 360 648 360 648 290 648 c 2,23,-1
 172 648 l 1,24,-1
 172 65 l 1,25,-1
 297 65 l 2,13,14
EndSplineSet
EndChar

StartChar: E
Encoding: 69 69 51
Width: 611
Flags: W
LayerCount: 2
Back
Fore
SplineSet
103 0 m 1,0,-1
 103 714 l 1,1,-1
 553 714 l 1,2,-1
 553 652 l 1,3,-1
 171 652 l 1,4,-1
 171 391 l 1,5,-1
 513 391 l 1,6,-1
 513 327 l 1,7,-1
 171 327 l 1,8,-1
 171 64 l 1,9,-1
 567 64 l 1,10,-1
 567 0 l 1,11,-1
 103 0 l 1,0,-1
EndSplineSet
EndChar

StartChar: H
Encoding: 72 72 52
Width: 747
Flags: W
LayerCount: 2
Back
Fore
SplineSet
102 0 m 1,0,-1
 102 714 l 1,1,-1
 171 714 l 1,2,-1
 171 392 l 1,3,-1
 577 392 l 1,4,-1
 577 714 l 1,5,-1
 647 714 l 1,6,7
 647 679 647 679 647 622.5 c 128,-1,8
 647 566 647 566 647 498.5 c 128,-1,9
 647 431 647 431 646.5 357.5 c 128,-1,10
 646 284 646 284 646 216.5 c 128,-1,11
 646 149 646 149 645.5 92 c 128,-1,12
 645 35 645 35 645 0 c 1,13,-1
 577 0 l 1,14,-1
 577 327 l 1,15,-1
 171 327 l 1,16,-1
 171 0 l 1,17,-1
 102 0 l 1,0,-1
EndSplineSet
EndChar

StartChar: I
Encoding: 73 73 53
Width: 272
Flags: W
LayerCount: 2
Back
Fore
SplineSet
102 714 m 1,0,-1
 171 714 l 1,1,-1
 171 0 l 1,2,-1
 102 0 l 1,3,-1
 102 714 l 1,0,-1
EndSplineSet
EndChar

StartChar: J
Encoding: 74 74 54
Width: 296
Flags: W
LayerCount: 2
Back
Fore
SplineSet
-36 -146 m 1,0,-1
 -36 -82 l 1,1,2
 0 -80 0 -80 30 -66.5 c 128,-1,3
 60 -53 60 -53 81.5 -28 c 128,-1,4
 103 -3 103 -3 115.5 34 c 128,-1,5
 128 71 128 71 128 119 c 2,6,-1
 128 714 l 1,7,-1
 197 714 l 1,8,-1
 197 116 l 2,9,10
 197 54 197 54 179 5.5 c 128,-1,11
 161 -43 161 -43 129.5 -76 c 128,-1,12
 98 -109 98 -109 55.5 -127 c 128,-1,13
 13 -145 13 -145 -36 -146 c 1,0,-1
EndSplineSet
EndChar

StartChar: K
Encoding: 75 75 55
Width: 622
Flags: W
LayerCount: 2
Back
Fore
SplineSet
537 0 m 1,0,1
 462 95 462 95 393 184.5 c 128,-1,2
 324 274 324 274 249 370 c 1,3,4
 231 352 231 352 213 335 c 128,-1,5
 195 318 195 318 176 301 c 1,6,7
 176 223 176 223 176.5 150.5 c 128,-1,8
 177 78 177 78 177 0 c 1,9,-1
 102 0 l 1,10,-1
 102 714 l 1,11,-1
 177 714 l 1,12,-1
 177 414 l 2,13,14
 177 406 177 406 176 398 c 128,-1,15
 175 390 175 390 174 381 c 1,16,17
 179 388 179 388 183.5 393 c 128,-1,18
 188 398 188 398 193 405 c 0,19,20
 273 480 273 480 350 559 c 128,-1,21
 427 638 427 638 507 714 c 1,22,-1
 595 714 l 1,23,24
 522 640 522 640 449 565.5 c 128,-1,25
 376 491 376 491 302 417 c 1,26,27
 386 310 386 310 463 208.5 c 128,-1,28
 540 107 540 107 623 0 c 1,29,-1
 537 0 l 1,0,1
EndSplineSet
EndChar

StartChar: M
Encoding: 77 77 56
Width: 897
Flags: W
LayerCount: 2
Back
Fore
SplineSet
102 746 m 1,0,1
 121 718 121 718 149 677.5 c 128,-1,2
 177 637 177 637 210 590 c 128,-1,3
 243 543 243 543 278 494 c 128,-1,4
 313 445 313 445 345.5 399.5 c 128,-1,5
 378 354 378 354 405 316 c 128,-1,6
 432 278 432 278 449 254 c 1,7,8
 458 267 458 267 481.5 301 c 128,-1,9
 505 335 505 335 536.5 380 c 128,-1,10
 568 425 568 425 605 477.5 c 128,-1,11
 642 530 642 530 677.5 580.5 c 128,-1,12
 713 631 713 631 744.5 674.5 c 128,-1,13
 776 718 776 718 796 746 c 1,14,-1
 796 0 l 1,15,-1
 724 0 l 1,16,-1
 724 509 l 2,17,18
 724 518 724 518 725 528 c 128,-1,19
 726 538 726 538 726 545 c 1,20,21
 709 521 709 521 685.5 487.5 c 128,-1,22
 662 454 662 454 636 416 c 128,-1,23
 610 378 610 378 583 338.5 c 128,-1,24
 556 299 556 299 531 262 c 128,-1,25
 506 225 506 225 484.5 193 c 128,-1,26
 463 161 463 161 449 140 c 1,27,28
 435 158 435 158 411 191.5 c 128,-1,29
 387 225 387 225 358.5 266.5 c 128,-1,30
 330 308 330 308 299 352.5 c 128,-1,31
 268 397 268 397 241.5 436 c 128,-1,32
 215 475 215 475 194.5 504.5 c 128,-1,33
 174 534 174 534 167 545 c 1,34,35
 167 538 167 538 168.5 528 c 128,-1,36
 170 518 170 518 170 509 c 2,37,-1
 170 0 l 1,38,-1
 102 0 l 1,39,-1
 102 746 l 1,0,1
EndSplineSet
EndChar

StartChar: N
Encoding: 78 78 57
Width: 811
Flags: W
LayerCount: 2
Back
Fore
SplineSet
710 714 m 1,0,-1
 710 -33 l 1,1,2
 681 2 681 2 638.5 50.5 c 128,-1,3
 596 99 596 99 546.5 154 c 128,-1,4
 497 209 497 209 444.5 266.5 c 128,-1,5
 392 324 392 324 343 379 c 128,-1,6
 294 434 294 434 253.5 481.5 c 128,-1,7
 213 529 213 529 187 564 c 0,8,9
 184 568 184 568 178 575.5 c 128,-1,10
 172 583 172 583 167 590 c 1,11,-1
 170 558 l 1,12,-1
 170 0 l 1,13,-1
 102 0 l 1,14,-1
 102 747 l 1,15,16
 131 710 131 710 173 662 c 128,-1,17
 215 614 215 614 264.5 560 c 128,-1,18
 314 506 314 506 366 449 c 128,-1,19
 418 392 418 392 466.5 338.5 c 128,-1,20
 515 285 515 285 557 237.5 c 128,-1,21
 599 190 599 190 626 155 c 0,22,23
 628 150 628 150 634 142.5 c 128,-1,24
 640 135 640 135 645 128 c 1,25,-1
 642 161 l 1,26,-1
 642 714 l 1,27,-1
 710 714 l 1,0,-1
EndSplineSet
EndChar

StartChar: P
Encoding: 80 80 58
Width: 550
Flags: W
LayerCount: 2
Back
Fore
SplineSet
171 351 m 1,0,-1
 277 351 l 2,1,2
 325 351 325 351 357 366.5 c 128,-1,3
 389 382 389 382 407.5 405.5 c 128,-1,4
 426 429 426 429 433.5 455.5 c 128,-1,5
 441 482 441 482 441 504 c 0,6,7
 441 531 441 531 430.5 557.5 c 128,-1,8
 420 584 420 584 400 604.5 c 128,-1,9
 380 625 380 625 349 637.5 c 128,-1,10
 318 650 318 650 278 650 c 2,11,-1
 171 650 l 1,12,-1
 171 351 l 1,0,-1
103 0 m 1,13,-1
 103 714 l 1,14,-1
 276 714 l 2,15,16
 321 714 321 714 363 701.5 c 128,-1,17
 405 689 405 689 437.5 663 c 128,-1,18
 470 637 470 637 489.5 598 c 128,-1,19
 509 559 509 559 509 505 c 0,20,21
 509 464 509 464 496 424.5 c 128,-1,22
 483 385 483 385 455.5 354.5 c 128,-1,23
 428 324 428 324 384 305 c 128,-1,24
 340 286 340 286 278 286 c 2,25,-1
 171 286 l 1,26,-1
 171 0 l 1,27,-1
 103 0 l 1,13,-1
EndSplineSet
EndChar

StartChar: R
Encoding: 82 82 59
Width: 602
Flags: W
LayerCount: 2
Back
Fore
SplineSet
102 0 m 1,0,-1
 102 714 l 1,1,-1
 275 714 l 2,2,3
 320 714 320 714 362 701.5 c 128,-1,4
 404 689 404 689 436.5 663 c 128,-1,5
 469 637 469 637 488.5 598 c 128,-1,6
 508 559 508 559 508 505 c 0,7,8
 508 445 508 445 481 391 c 128,-1,9
 454 337 454 337 392 308 c 1,10,11
 401 293 401 293 416 268 c 128,-1,12
 431 243 431 243 449 213.5 c 128,-1,13
 467 184 467 184 486.5 152 c 128,-1,14
 506 120 506 120 524 91 c 128,-1,15
 542 62 542 62 557 38 c 128,-1,16
 572 14 572 14 581 0 c 1,17,-1
 498 0 l 1,18,19
 490 12 490 12 477 33 c 128,-1,20
 464 54 464 54 448 80 c 128,-1,21
 432 106 432 106 414 135 c 128,-1,22
 396 164 396 164 379 192 c 128,-1,23
 362 220 362 220 346.5 245 c 128,-1,24
 331 270 331 270 320 288 c 1,25,26
 310 286 310 286 299 286 c 128,-1,27
 288 286 288 286 277 286 c 2,28,-1
 170 286 l 1,29,-1
 170 0 l 1,30,-1
 102 0 l 1,0,-1
170 351 m 1,31,-1
 276 351 l 2,32,33
 324 351 324 351 356 367 c 128,-1,34
 388 383 388 383 406.5 406.5 c 128,-1,35
 425 430 425 430 432.5 456.5 c 128,-1,36
 440 483 440 483 440 505 c 0,37,38
 440 532 440 532 429.5 558 c 128,-1,39
 419 584 419 584 399 604.5 c 128,-1,40
 379 625 379 625 348 637.5 c 128,-1,41
 317 650 317 650 277 650 c 2,42,-1
 170 650 l 1,43,-1
 170 351 l 1,31,-1
EndSplineSet
EndChar

StartChar: U
Encoding: 85 85 60
Width: 695
Flags: W
LayerCount: 2
Back
Fore
SplineSet
348 -8 m 0,0,1
 294 -8 294 -8 247.5 9.5 c 128,-1,2
 201 27 201 27 167 59 c 128,-1,3
 133 91 133 91 113.5 137.5 c 128,-1,4
 94 184 94 184 94 243 c 2,5,-1
 94 714 l 1,6,-1
 162 714 l 1,7,-1
 162 246 l 2,8,9
 162 203 162 203 176 168 c 128,-1,10
 190 133 190 133 215 108.5 c 128,-1,11
 240 84 240 84 274 70.5 c 128,-1,12
 308 57 308 57 348 57 c 0,13,14
 387 57 387 57 421 70.5 c 128,-1,15
 455 84 455 84 480 108.5 c 128,-1,16
 505 133 505 133 519.5 168 c 128,-1,17
 534 203 534 203 534 246 c 2,18,-1
 534 714 l 1,19,-1
 602 714 l 1,20,-1
 602 243 l 2,21,22
 602 184 602 184 582.5 137.5 c 128,-1,23
 563 91 563 91 528.5 59 c 128,-1,24
 494 27 494 27 447.5 9.5 c 128,-1,25
 401 -8 401 -8 348 -8 c 0,0,1
EndSplineSet
EndChar

StartChar: Y
Encoding: 89 89 61
Width: 635
Flags: W
LayerCount: 2
Back
Fore
SplineSet
353 249 m 1,0,-1
 353 0 l 1,1,-1
 284 0 l 1,2,-1
 284 249 l 1,3,4
 271 271 271 271 249.5 307.5 c 128,-1,5
 228 344 228 344 203 388.5 c 128,-1,6
 178 433 178 433 150.5 481.5 c 128,-1,7
 123 530 123 530 98 574.5 c 128,-1,8
 73 619 73 619 52 655.5 c 128,-1,9
 31 692 31 692 18 714 c 1,10,-1
 95 714 l 1,11,12
 113 684 113 684 139 638 c 128,-1,13
 165 592 165 592 194.5 540.5 c 128,-1,14
 224 489 224 489 253.5 436 c 128,-1,15
 283 383 283 383 307 339 c 1,16,-1
 319 309 l 1,17,-1
 331 339 l 1,18,19
 356 383 356 383 385 436 c 128,-1,20
 414 489 414 489 442.5 540.5 c 128,-1,21
 471 592 471 592 496.5 638 c 128,-1,22
 522 684 522 684 540 714 c 1,23,-1
 618 714 l 1,24,-1
 353 249 l 1,0,-1
EndSplineSet
EndChar

StartChar: asciitilde
Encoding: 126 126 62
Width: 471
Flags: W
LayerCount: 2
Back
Fore
SplineSet
228 491 m 0,0,1
 212 508 212 508 200.5 513.5 c 128,-1,2
 189 519 189 519 175 519 c 0,3,4
 167 519 167 519 158 517 c 128,-1,5
 149 515 149 515 140 509.5 c 128,-1,6
 131 504 131 504 124.5 494 c 128,-1,7
 118 484 118 484 116 469 c 1,8,-1
 83 471 l 1,9,10
 84 491 84 491 92.5 506 c 128,-1,11
 101 521 101 521 113.5 531.5 c 128,-1,12
 126 542 126 542 141 547 c 128,-1,13
 156 552 156 552 171 552 c 0,14,15
 194 552 194 552 212 543 c 128,-1,16
 230 534 230 534 246 517 c 256,17,18
 262 500 262 500 273.5 494.5 c 128,-1,19
 285 489 285 489 299 489 c 0,20,21
 306 489 306 489 315.5 491 c 128,-1,22
 325 493 325 493 334 498.5 c 128,-1,23
 343 504 343 504 349.5 514 c 128,-1,24
 356 524 356 524 358 539 c 1,25,-1
 391 537 l 1,26,27
 390 517 390 517 381.5 502 c 128,-1,28
 373 487 373 487 360.5 476.5 c 128,-1,29
 348 466 348 466 333 461 c 128,-1,30
 318 456 318 456 303 456 c 0,31,32
 280 456 280 456 262 465.5 c 128,-1,33
 244 475 244 475 228 491 c 0,0,1
EndSplineSet
EndChar

StartChar: ntilde
Encoding: 241 241 63
Width: 482
Flags: W
LayerCount: 2
Back
Fore
SplineSet
69 400 m 1,0,-1
 116 400 l 1,1,-1
 121 297 l 1,2,3
 143 347 143 347 186 378 c 128,-1,4
 229 409 229 409 289 409 c 0,5,6
 348 409 348 409 382.5 376 c 128,-1,7
 417 343 417 343 419 289 c 2,8,-1
 419 0 l 1,9,-1
 364 0 l 1,10,-1
 364 270 l 2,11,12
 362 304 362 304 340 328 c 128,-1,13
 318 352 318 352 274 354 c 0,14,15
 242 354 242 354 215 343.5 c 128,-1,16
 188 333 188 333 167.5 314 c 128,-1,17
 147 295 147 295 135.5 269 c 128,-1,18
 124 243 124 243 124 212 c 2,19,-1
 124 0 l 1,20,-1
 69 0 l 1,21,-1
 69 400 l 1,0,-1
250 499 m 0,22,23
 234 516 234 516 222.5 521.5 c 128,-1,24
 211 527 211 527 197 527 c 0,25,26
 189 527 189 527 180 525 c 128,-1,27
 171 523 171 523 162 517.5 c 128,-1,28
 153 512 153 512 146.5 502 c 128,-1,29
 140 492 140 492 138 477 c 1,30,-1
 105 479 l 1,31,32
 106 499 106 499 114.5 514 c 128,-1,33
 123 529 123 529 135.5 539.5 c 128,-1,34
 148 550 148 550 163 555 c 128,-1,35
 178 560 178 560 193 560 c 0,36,37
 216 560 216 560 234 551 c 128,-1,38
 252 542 252 542 268 525 c 256,39,40
 284 508 284 508 295.5 502.5 c 128,-1,41
 307 497 307 497 321 497 c 0,42,43
 328 497 328 497 337.5 499 c 128,-1,44
 347 501 347 501 356 506.5 c 128,-1,45
 365 512 365 512 371.5 522 c 128,-1,46
 378 532 378 532 380 547 c 1,47,-1
 413 545 l 1,48,49
 412 525 412 525 403.5 510 c 128,-1,50
 395 495 395 495 382.5 484.5 c 128,-1,51
 370 474 370 474 355 469 c 128,-1,52
 340 464 340 464 325 464 c 0,53,54
 302 464 302 464 284 473.5 c 128,-1,55
 266 483 266 483 250 499 c 0,22,23
EndSplineSet
EndChar

StartChar: F
Encoding: 70 70 64
Width: 552
Flags: W
LayerCount: 2
Back
Fore
SplineSet
103 0 m 1,0,-1
 103 714 l 1,1,-1
 512 714 l 1,2,-1
 512 651 l 1,3,-1
 171 651 l 1,4,-1
 171 381 l 1,5,-1
 472 381 l 1,6,-1
 472 317 l 1,7,-1
 171 317 l 1,8,-1
 171 0 l 1,9,-1
 103 0 l 1,0,-1
EndSplineSet
EndChar

StartChar: L
Encoding: 76 76 65
Width: 563
Flags: W
LayerCount: 2
Back
Fore
SplineSet
102 0 m 1,0,-1
 102 714 l 1,1,-1
 170 714 l 1,2,-1
 170 65 l 1,3,-1
 550 65 l 1,4,-1
 550 0 l 1,5,-1
 102 0 l 1,0,-1
EndSplineSet
EndChar

StartChar: C
Encoding: 67 67 66
Width: 644
Flags: W
LayerCount: 2
Back
Fore
SplineSet
618 48 m 1,0,1
 586 28 586 28 533 10 c 128,-1,2
 480 -8 480 -8 410 -8 c 0,3,4
 327 -8 327 -8 260.5 21 c 128,-1,5
 194 50 194 50 147.5 99.5 c 128,-1,6
 101 149 101 149 75.5 214 c 128,-1,7
 50 279 50 279 50 352 c 0,8,9
 50 431 50 431 79 499 c 128,-1,10
 108 567 108 567 158 616.5 c 128,-1,11
 208 666 208 666 275 694 c 128,-1,12
 342 722 342 722 418 722 c 0,13,14
 445 722 445 722 472.5 718.5 c 128,-1,15
 500 715 500 715 525 708 c 128,-1,16
 550 701 550 701 571 692 c 128,-1,17
 592 683 592 683 607 672 c 1,18,19
 602 664 602 664 599 659 c 128,-1,20
 596 654 596 654 593 648.5 c 128,-1,21
 590 643 590 643 586 636 c 128,-1,22
 582 629 582 629 576 618 c 1,23,24
 544 638 544 638 501.5 648 c 128,-1,25
 459 658 459 658 420 658 c 0,26,27
 357 658 357 658 302 634 c 128,-1,28
 247 610 247 610 206.5 568.5 c 128,-1,29
 166 527 166 527 142.5 472.5 c 128,-1,30
 119 418 119 418 119 357 c 0,31,32
 119 299 119 299 140 245.5 c 128,-1,33
 161 192 161 192 200 151.5 c 128,-1,34
 239 111 239 111 293 86.5 c 128,-1,35
 347 62 347 62 413 62 c 0,36,37
 442 62 442 62 469 66.5 c 128,-1,38
 496 71 496 71 519 78.5 c 128,-1,39
 542 86 542 86 559.5 94 c 128,-1,40
 577 102 577 102 587 110 c 1,41,-1
 618 48 l 1,0,1
EndSplineSet
EndChar

StartChar: Q
Encoding: 81 81 67
Width: 832
Flags: W
LayerCount: 2
Back
Fore
SplineSet
49 356 m 256,0,1
 49 431 49 431 77.5 497.5 c 128,-1,2
 106 564 106 564 155.5 614 c 128,-1,3
 205 664 205 664 271.5 693 c 128,-1,4
 338 722 338 722 413 722 c 256,5,6
 488 722 488 722 555 693 c 128,-1,7
 622 664 622 664 671.5 614 c 128,-1,8
 721 564 721 564 750 497.5 c 128,-1,9
 779 431 779 431 779 356 c 0,10,11
 779 263 779 263 735.5 185.5 c 128,-1,12
 692 108 692 108 620 60 c 1,13,-1
 802 65 l 1,14,-1
 802 0 l 1,15,-1
 489 0 l 1,16,17
 470 -4 470 -4 451.5 -6 c 128,-1,18
 433 -8 433 -8 413 -8 c 0,19,20
 338 -8 338 -8 271.5 20.5 c 128,-1,21
 205 49 205 49 155.5 98.5 c 128,-1,22
 106 148 106 148 77.5 214.5 c 128,-1,23
 49 281 49 281 49 356 c 256,0,1
117 356 m 256,24,25
 117 294 117 294 140.5 239.5 c 128,-1,26
 164 185 164 185 204 144.5 c 128,-1,27
 244 104 244 104 298 80.5 c 128,-1,28
 352 57 352 57 413 57 c 256,29,30
 474 57 474 57 528.5 80.5 c 128,-1,31
 583 104 583 104 623.5 144.5 c 128,-1,32
 664 185 664 185 687.5 239.5 c 128,-1,33
 711 294 711 294 711 356 c 256,34,35
 711 418 711 418 687.5 472.5 c 128,-1,36
 664 527 664 527 623.5 568 c 128,-1,37
 583 609 583 609 528.5 632.5 c 128,-1,38
 474 656 474 656 413 656 c 256,39,40
 352 656 352 656 298 632.5 c 128,-1,41
 244 609 244 609 204 568 c 128,-1,42
 164 527 164 527 140.5 472.5 c 128,-1,43
 117 418 117 418 117 356 c 256,24,25
EndSplineSet
EndChar

StartChar: T
Encoding: 84 84 68
Width: 536
Flags: W
LayerCount: 2
Back
Fore
SplineSet
492 714 m 1,0,-1
 492 649 l 1,1,-1
 302 649 l 1,2,-1
 302 0 l 1,3,-1
 233 0 l 1,4,-1
 233 649 l 1,5,-1
 45 649 l 1,6,-1
 45 714 l 1,7,-1
 492 714 l 1,0,-1
EndSplineSet
EndChar

StartChar: guilsinglleft
Encoding: 8249 8249 69
Width: 279
Flags: W
LayerCount: 2
Back
Fore
SplineSet
216 62 m 1,0,-1
 44 241 l 1,1,2
 57 253 57 253 80.5 278 c 128,-1,3
 104 303 104 303 130 330 c 128,-1,4
 156 357 156 357 179.5 382 c 128,-1,5
 203 407 203 407 216 419 c 1,6,-1
 216 352 l 1,7,8
 205 341 205 341 192 326.5 c 128,-1,9
 179 312 179 312 165.5 296.5 c 128,-1,10
 152 281 152 281 138.5 266.5 c 128,-1,11
 125 252 125 252 114 241 c 1,12,13
 125 230 125 230 138.5 215.5 c 128,-1,14
 152 201 152 201 165.5 185 c 128,-1,15
 179 169 179 169 192 154 c 128,-1,16
 205 139 205 139 216 128 c 1,17,-1
 216 62 l 1,0,-1
EndSplineSet
EndChar

StartChar: greater
Encoding: 62 62 70
Width: 558
Flags: W
LayerCount: 2
Back
Fore
SplineSet
83 -15 m 1,0,-1
 83 64 l 1,1,-1
 389 240 l 1,2,-1
 83 416 l 1,3,-1
 83 494 l 1,4,5
 194 431 194 431 303 367 c 128,-1,6
 412 303 412 303 523 240 c 1,7,-1
 83 -15 l 1,0,-1
EndSplineSet
EndChar

StartChar: less
Encoding: 60 60 71
Width: 558
Flags: W
LayerCount: 2
Back
Fore
SplineSet
476 64 m 1,0,-1
 476 -15 l 1,1,-1
 36 240 l 1,2,3
 147 303 147 303 256 367 c 128,-1,4
 365 431 365 431 476 494 c 1,5,-1
 476 416 l 1,6,7
 400 372 400 372 323.5 328.5 c 128,-1,8
 247 285 247 285 171 240 c 1,9,10
 247 195 247 195 323.5 151.5 c 128,-1,11
 400 108 400 108 476 64 c 1,0,-1
EndSplineSet
EndChar

StartChar: equal
Encoding: 61 61 72
Width: 651
Flags: W
LayerCount: 2
Back
Fore
SplineSet
581 184 m 1,0,-1
 581 127 l 1,1,-1
 71 127 l 1,2,-1
 71 184 l 1,3,-1
 581 184 l 1,0,-1
581 380 m 1,4,-1
 581 322 l 1,5,-1
 71 322 l 1,6,-1
 71 380 l 1,7,-1
 581 380 l 1,4,-1
EndSplineSet
EndChar

StartChar: at
Encoding: 64 64 73
Width: 935
Flags: W
LayerCount: 2
Back
Fore
SplineSet
238 198 m 0,0,1
 238 241 238 241 254.5 279.5 c 128,-1,2
 271 318 271 318 299.5 347 c 128,-1,3
 328 376 328 376 366 392.5 c 128,-1,4
 404 409 404 409 447 409 c 0,5,6
 477 409 477 409 503 401 c 128,-1,7
 529 393 529 393 549.5 379.5 c 128,-1,8
 570 366 570 366 584 349.5 c 128,-1,9
 598 333 598 333 605 317 c 1,10,-1
 609 400 l 1,11,-1
 660 400 l 1,12,-1
 660 51 l 1,13,-1
 715 51 l 2,14,15
 734 51 734 51 753 60 c 128,-1,16
 772 69 772 69 787.5 89.5 c 128,-1,17
 803 110 803 110 812.5 142 c 128,-1,18
 822 174 822 174 822 220 c 0,19,20
 822 287 822 287 797 349 c 128,-1,21
 772 411 772 411 726.5 457.5 c 128,-1,22
 681 504 681 504 616 532 c 128,-1,23
 551 560 551 560 471 560 c 0,24,25
 383 560 383 560 314.5 528.5 c 128,-1,26
 246 497 246 497 198.5 446 c 128,-1,27
 151 395 151 395 126 329.5 c 128,-1,28
 101 264 101 264 101 196 c 0,29,30
 101 122 101 122 129.5 56.5 c 128,-1,31
 158 -9 158 -9 206.5 -58 c 128,-1,32
 255 -107 255 -107 321 -135 c 128,-1,33
 387 -163 387 -163 462 -163 c 0,34,35
 522 -163 522 -163 576.5 -145 c 128,-1,36
 631 -127 631 -127 677 -95 c 1,37,-1
 709 -133 l 1,38,39
 658 -173 658 -173 592.5 -194 c 128,-1,40
 527 -215 527 -215 460 -215 c 0,41,42
 375 -215 375 -215 300 -182.5 c 128,-1,43
 225 -150 225 -150 168.5 -94 c 128,-1,44
 112 -38 112 -38 79.5 37 c 128,-1,45
 47 112 47 112 47 198 c 0,46,47
 47 278 47 278 77 353 c 128,-1,48
 107 428 107 428 162.5 485.5 c 128,-1,49
 218 543 218 543 296.5 577.5 c 128,-1,50
 375 612 375 612 472 612 c 0,51,52
 564 612 564 612 639 580 c 128,-1,53
 714 548 714 548 766.5 494 c 128,-1,54
 819 440 819 440 847.5 369 c 128,-1,55
 876 298 876 298 876 221 c 0,56,57
 876 162 876 162 863 120.5 c 128,-1,58
 850 79 850 79 827.5 52 c 128,-1,59
 805 25 805 25 775 12.5 c 128,-1,60
 745 0 745 0 712 0 c 2,61,-1
 605 0 l 1,62,-1
 605 41 l 2,63,64
 605 52 605 52 605.5 62 c 128,-1,65
 606 72 606 72 606 81 c 1,66,67
 599 64 599 64 585 48.5 c 128,-1,68
 571 33 571 33 550.5 20 c 128,-1,69
 530 7 530 7 504 -0.5 c 128,-1,70
 478 -8 478 -8 447 -8 c 0,71,72
 402 -8 402 -8 363.5 8.5 c 128,-1,73
 325 25 325 25 297.5 53 c 128,-1,74
 270 81 270 81 254 118.5 c 128,-1,75
 238 156 238 156 238 198 c 0,0,1
293 201 m 256,76,77
 293 168 293 168 305 140 c 128,-1,78
 317 112 317 112 338 91 c 128,-1,79
 359 70 359 70 387.5 58 c 128,-1,80
 416 46 416 46 449 46 c 256,81,82
 482 46 482 46 510.5 58 c 128,-1,83
 539 70 539 70 560 91 c 128,-1,84
 581 112 581 112 593 140 c 128,-1,85
 605 168 605 168 605 201 c 0,86,87
 605 233 605 233 593 261 c 128,-1,88
 581 289 581 289 560 310 c 128,-1,89
 539 331 539 331 510.5 343 c 128,-1,90
 482 355 482 355 449 355 c 256,91,92
 416 355 416 355 387.5 343 c 128,-1,93
 359 331 359 331 338 310.5 c 128,-1,94
 317 290 317 290 305 262 c 128,-1,95
 293 234 293 234 293 201 c 256,76,77
EndSplineSet
EndChar

StartChar: question
Encoding: 63 63 74
Width: 476
Flags: W
LayerCount: 2
Back
Fore
SplineSet
87 573 m 1,0,-1
 36 591 l 1,1,2
 44 615 44 615 59 641 c 128,-1,3
 74 667 74 667 97.5 688.5 c 128,-1,4
 121 710 121 710 154 724 c 128,-1,5
 187 738 187 738 232 738 c 0,6,7
 274 738 274 738 310 722.5 c 128,-1,8
 346 707 346 707 372.5 680 c 128,-1,9
 399 653 399 653 414.5 617 c 128,-1,10
 430 581 430 581 430 541 c 0,11,12
 430 486 430 486 403.5 444.5 c 128,-1,13
 377 403 377 403 331 369 c 0,14,15
 315 357 315 357 298.5 347 c 128,-1,16
 282 337 282 337 268.5 324 c 128,-1,17
 255 311 255 311 246.5 292 c 128,-1,18
 238 273 238 273 238 244 c 2,19,-1
 238 165 l 1,20,-1
 179 165 l 1,21,-1
 179 263 l 2,22,23
 179 295 179 295 189.5 315 c 128,-1,24
 200 335 200 335 217.5 350 c 128,-1,25
 235 365 235 365 257.5 378.5 c 128,-1,26
 280 392 280 392 303 412 c 0,27,28
 338 439 338 439 354 471.5 c 128,-1,29
 370 504 370 504 370 541 c 0,30,31
 370 571 370 571 359.5 596.5 c 128,-1,32
 349 622 349 622 331 641 c 128,-1,33
 313 660 313 660 287.5 670.5 c 128,-1,34
 262 681 262 681 232 681 c 0,35,36
 174 681 174 681 139 652.5 c 128,-1,37
 104 624 104 624 87 573 c 1,0,-1
208 9 m 0,38,39
 193 9 193 9 180.5 20.5 c 128,-1,40
 168 32 168 32 168 50 c 0,41,42
 168 67 168 67 180.5 79 c 128,-1,43
 193 91 193 91 208 91 c 0,44,45
 222 91 222 91 235 79 c 128,-1,46
 248 67 248 67 248 50 c 0,47,48
 248 32 248 32 235 20.5 c 128,-1,49
 222 9 222 9 208 9 c 0,38,39
EndSplineSet
EndChar

StartChar: exclam
Encoding: 33 33 75
Width: 252
Flags: W
LayerCount: 2
Back
Fore
SplineSet
97 756 m 1,0,-1
 156 756 l 1,1,-1
 156 167 l 1,2,-1
 97 167 l 1,3,-1
 97 756 l 1,0,-1
127 13 m 0,4,5
 111 13 111 13 99 25 c 128,-1,6
 87 37 87 37 87 54 c 0,7,8
 87 73 87 73 99 84 c 128,-1,9
 111 95 111 95 127 95 c 0,10,11
 142 95 142 95 154.5 84 c 128,-1,12
 167 73 167 73 167 54 c 0,13,14
 167 37 167 37 154.5 25 c 128,-1,15
 142 13 142 13 127 13 c 0,4,5
EndSplineSet
EndChar

StartChar: two
Encoding: 50 50 76
Width: 527
Flags: W
LayerCount: 2
Back
Fore
SplineSet
202 57 m 1,0,-1
 490 57 l 1,1,-1
 490 0 l 1,2,-1
 60 0 l 1,3,4
 123 62 123 62 182.5 122 c 128,-1,5
 242 182 242 182 288 238 c 128,-1,6
 334 294 334 294 362 346.5 c 128,-1,7
 390 399 390 399 390 447 c 0,8,9
 390 491 390 491 376.5 521.5 c 128,-1,10
 363 552 363 552 342.5 570.5 c 128,-1,11
 322 589 322 589 298 597.5 c 128,-1,12
 274 606 274 606 253 606 c 0,13,14
 211 606 211 606 183.5 591 c 128,-1,15
 156 576 156 576 140 554.5 c 128,-1,16
 124 533 124 533 118 508 c 128,-1,17
 112 483 112 483 112 464 c 0,18,19
 112 429 112 429 122.5 402 c 128,-1,20
 133 375 133 375 152 355 c 1,21,-1
 117 320 l 1,22,23
 102 331 102 331 90 347.5 c 128,-1,24
 78 364 78 364 70 383.5 c 128,-1,25
 62 403 62 403 57.5 423.5 c 128,-1,26
 53 444 53 444 53 464 c 0,27,28
 53 504 53 504 66 540.5 c 128,-1,29
 79 577 79 577 104.5 604 c 128,-1,30
 130 631 130 631 167.5 647 c 128,-1,31
 205 663 205 663 253 663 c 0,32,33
 297 663 297 663 333 647 c 128,-1,34
 369 631 369 631 395 603.5 c 128,-1,35
 421 576 421 576 435 538.5 c 128,-1,36
 449 501 449 501 449 459 c 0,37,38
 449 406 449 406 427 354.5 c 128,-1,39
 405 303 405 303 370 253.5 c 128,-1,40
 335 204 335 204 291 155 c 128,-1,41
 247 106 247 106 202 57 c 1,0,-1
EndSplineSet
EndChar

StartChar: one
Encoding: 49 49 77
Width: 297
Flags: W
LayerCount: 2
Back
Fore
SplineSet
42 598 m 1,0,-1
 42 655 l 1,1,-1
 187 655 l 1,2,-1
 187 0 l 1,3,-1
 127 0 l 1,4,-1
 127 598 l 1,5,-1
 42 598 l 1,0,-1
EndSplineSet
EndChar

StartChar: three
Encoding: 51 51 78
Width: 473
Flags: W
LayerCount: 2
Back
Fore
SplineSet
135 341 m 1,0,1
 177 406 177 406 222.5 469.5 c 128,-1,2
 268 533 268 533 310 598 c 1,3,-1
 71 598 l 1,4,-1
 71 655 l 1,5,-1
 407 655 l 1,6,7
 365 594 365 594 322.5 533 c 128,-1,8
 280 472 280 472 238 410 c 1,9,10
 275 403 275 403 307.5 385.5 c 128,-1,11
 340 368 340 368 364 341 c 128,-1,12
 388 314 388 314 401.5 279.5 c 128,-1,13
 415 245 415 245 415 205 c 0,14,15
 415 161 415 161 398 122.5 c 128,-1,16
 381 84 381 84 351.5 55 c 128,-1,17
 322 26 322 26 283 9 c 128,-1,18
 244 -8 244 -8 200 -8 c 0,19,20
 153 -8 153 -8 112.5 11 c 128,-1,21
 72 30 72 30 43 62 c 1,22,-1
 86 103 l 1,23,24
 106 78 106 78 135 63.5 c 128,-1,25
 164 49 164 49 199 49 c 0,26,27
 231 49 231 49 260 61.5 c 128,-1,28
 289 74 289 74 310.5 95.5 c 128,-1,29
 332 117 332 117 344.5 145 c 128,-1,30
 357 173 357 173 357 205 c 0,31,32
 357 238 357 238 344.5 266.5 c 128,-1,33
 332 295 332 295 310.5 316 c 128,-1,34
 289 337 289 337 260 349 c 128,-1,35
 231 361 231 361 199 361 c 0,36,37
 164 361 164 361 135 341 c 1,0,1
EndSplineSet
EndChar

StartChar: four
Encoding: 52 52 79
Width: 527
Flags: W
LayerCount: 2
Back
Fore
SplineSet
330 503 m 1,0,1
 306 472 306 472 279.5 437.5 c 128,-1,2
 253 403 253 403 226 368 c 128,-1,3
 199 333 199 333 172.5 298 c 128,-1,4
 146 263 146 263 122 232 c 1,5,-1
 330 232 l 1,6,-1
 330 503 l 1,0,1
8 175 m 1,7,8
 101 296 101 296 198.5 419.5 c 128,-1,9
 296 543 296 543 389 663 c 1,10,-1
 389 232 l 1,11,-1
 487 232 l 1,12,-1
 487 175 l 1,13,-1
 389 175 l 1,14,-1
 389 0 l 1,15,-1
 330 0 l 1,16,-1
 330 175 l 1,17,-1
 8 175 l 1,7,8
EndSplineSet
EndChar

StartChar: five
Encoding: 53 53 80
Width: 464
Flags: W
LayerCount: 2
Back
Fore
SplineSet
87 320 m 1,0,-1
 87 655 l 1,1,-1
 377 655 l 1,2,-1
 377 598 l 1,3,-1
 138 598 l 1,4,-1
 138 403 l 1,5,6
 152 409 152 409 166.5 413 c 128,-1,7
 181 417 181 417 199 417 c 0,8,9
 246 417 246 417 285.5 400.5 c 128,-1,10
 325 384 325 384 353.5 355.5 c 128,-1,11
 382 327 382 327 398 288.5 c 128,-1,12
 414 250 414 250 414 207 c 0,13,14
 414 162 414 162 397 123 c 128,-1,15
 380 84 380 84 350.5 54.5 c 128,-1,16
 321 25 321 25 281.5 8.5 c 128,-1,17
 242 -8 242 -8 198 -8 c 0,18,19
 156 -8 156 -8 118 7.5 c 128,-1,20
 80 23 80 23 51 52 c 1,21,-1
 94 91 l 1,22,23
 114 71 114 71 140.5 60 c 128,-1,24
 167 49 167 49 198 49 c 0,25,26
 230 49 230 49 259 61.5 c 128,-1,27
 288 74 288 74 309.5 95.5 c 128,-1,28
 331 117 331 117 343.5 145 c 128,-1,29
 356 173 356 173 356 205 c 256,30,31
 356 237 356 237 343.5 265.5 c 128,-1,32
 331 294 331 294 309.5 315 c 128,-1,33
 288 336 288 336 259 348 c 128,-1,34
 230 360 230 360 198 360 c 0,35,36
 168 360 168 360 138.5 351 c 128,-1,37
 109 342 109 342 87 320 c 1,0,-1
EndSplineSet
EndChar

StartChar: six
Encoding: 54 54 81
Width: 534
Flags: W
LayerCount: 2
Back
Fore
SplineSet
53 205 m 256,0,1
 53 256 53 256 68.5 302 c 128,-1,2
 84 348 84 348 110 388.5 c 128,-1,3
 136 429 136 429 170 465 c 128,-1,4
 204 501 204 501 241 532.5 c 128,-1,5
 278 564 278 564 314.5 591 c 128,-1,6
 351 618 351 618 383 641 c 1,7,-1
 420 595 l 1,8,9
 375 565 375 565 334 533 c 128,-1,10
 293 501 293 501 260 471 c 128,-1,11
 227 441 227 441 203 414.5 c 128,-1,12
 179 388 179 388 168 368 c 1,13,14
 185 390 185 390 211 403.5 c 128,-1,15
 237 417 237 417 267 417 c 0,16,17
 311 417 311 417 350 400.5 c 128,-1,18
 389 384 389 384 418.5 355 c 128,-1,19
 448 326 448 326 465 287.5 c 128,-1,20
 482 249 482 249 482 205 c 256,21,22
 482 161 482 161 465 122.5 c 128,-1,23
 448 84 448 84 419 55 c 128,-1,24
 390 26 390 26 351 9 c 128,-1,25
 312 -8 312 -8 268 -8 c 0,26,27
 228 -8 228 -8 189.5 6.5 c 128,-1,28
 151 21 151 21 120.5 48 c 128,-1,29
 90 75 90 75 71.5 114.5 c 128,-1,30
 53 154 53 154 53 205 c 256,0,1
113 205 m 256,31,32
 113 173 113 173 125 144.5 c 128,-1,33
 137 116 137 116 158 95 c 128,-1,34
 179 74 179 74 207 61.5 c 128,-1,35
 235 49 235 49 267 49 c 256,36,37
 299 49 299 49 327.5 61.5 c 128,-1,38
 356 74 356 74 377.5 95 c 128,-1,39
 399 116 399 116 411.5 144.5 c 128,-1,40
 424 173 424 173 424 205 c 256,41,42
 424 237 424 237 411.5 265.5 c 128,-1,43
 399 294 399 294 377.5 315 c 128,-1,44
 356 336 356 336 327.5 348 c 128,-1,45
 299 360 299 360 267 360 c 256,46,47
 235 360 235 360 207 348 c 128,-1,48
 179 336 179 336 158 315 c 128,-1,49
 137 294 137 294 125 265.5 c 128,-1,50
 113 237 113 237 113 205 c 256,31,32
EndSplineSet
EndChar

StartChar: seven
Encoding: 55 55 82
Width: 460
Flags: W
LayerCount: 2
Back
Fore
SplineSet
35 598 m 1,0,-1
 35 655 l 1,1,-1
 447 655 l 1,2,3
 376 486 376 486 308.5 325.5 c 128,-1,4
 241 165 241 165 173 0 c 1,5,-1
 105 0 l 1,6,7
 165 143 165 143 228.5 294.5 c 128,-1,8
 292 446 292 446 355 598 c 1,9,-1
 35 598 l 1,0,-1
EndSplineSet
EndChar

StartChar: eight
Encoding: 56 56 83
Width: 533
Flags: W
LayerCount: 2
Back
Fore
SplineSet
168 506 m 0,0,1
 168 468 168 468 197 442.5 c 128,-1,2
 226 417 226 417 267 417 c 256,3,4
 308 417 308 417 336 442.5 c 128,-1,5
 364 468 364 468 364 506 c 0,6,7
 364 526 364 526 356.5 544.5 c 128,-1,8
 349 563 349 563 336 576.5 c 128,-1,9
 323 590 323 590 305 598 c 128,-1,10
 287 606 287 606 267 606 c 256,11,12
 247 606 247 606 229 598 c 128,-1,13
 211 590 211 590 197.5 576.5 c 128,-1,14
 184 563 184 563 176 544.5 c 128,-1,15
 168 526 168 526 168 506 c 0,0,1
113 205 m 0,16,17
 113 173 113 173 125 145 c 128,-1,18
 137 117 137 117 157.5 95.5 c 128,-1,19
 178 74 178 74 205.5 61.5 c 128,-1,20
 233 49 233 49 265 49 c 256,21,22
 297 49 297 49 326 61.5 c 128,-1,23
 355 74 355 74 376.5 95.5 c 128,-1,24
 398 117 398 117 410.5 145 c 128,-1,25
 423 173 423 173 423 205 c 256,26,27
 423 237 423 237 410.5 265 c 128,-1,28
 398 293 398 293 377 314 c 128,-1,29
 356 335 356 335 327.5 347.5 c 128,-1,30
 299 360 299 360 267 360 c 256,31,32
 235 360 235 360 207 348 c 128,-1,33
 179 336 179 336 158 315 c 128,-1,34
 137 294 137 294 125 266 c 128,-1,35
 113 238 113 238 113 205 c 0,16,17
53 203 m 0,36,37
 53 239 53 239 63 270 c 128,-1,38
 73 301 73 301 90.5 325 c 128,-1,39
 108 349 108 349 131.5 366.5 c 128,-1,40
 155 384 155 384 182 393 c 1,41,42
 147 411 147 411 129 441.5 c 128,-1,43
 111 472 111 472 111 506 c 256,44,45
 111 540 111 540 123 568.5 c 128,-1,46
 135 597 135 597 156 618 c 128,-1,47
 177 639 177 639 205 651 c 128,-1,48
 233 663 233 663 265 663 c 256,49,50
 297 663 297 663 325 651 c 128,-1,51
 353 639 353 639 374 618 c 128,-1,52
 395 597 395 597 407.5 568 c 128,-1,53
 420 539 420 539 420 506 c 0,54,55
 420 471 420 471 402 441.5 c 128,-1,56
 384 412 384 412 350 393 c 1,57,58
 377 384 377 384 401 366.5 c 128,-1,59
 425 349 425 349 443 324.5 c 128,-1,60
 461 300 461 300 471.5 269.5 c 128,-1,61
 482 239 482 239 482 203 c 0,62,63
 482 160 482 160 466 122 c 128,-1,64
 450 84 450 84 421 55 c 128,-1,65
 392 26 392 26 352.5 9 c 128,-1,66
 313 -8 313 -8 266 -8 c 256,67,68
 219 -8 219 -8 180 9 c 128,-1,69
 141 26 141 26 112.5 55 c 128,-1,70
 84 84 84 84 68.5 122 c 128,-1,71
 53 160 53 160 53 203 c 0,36,37
EndSplineSet
EndChar

StartChar: colon
Encoding: 58 58 84
Width: 208
Flags: W
LayerCount: 2
Back
Fore
SplineSet
64 305 m 0,0,1
 64 322 64 322 76.5 334 c 128,-1,2
 89 346 89 346 105 346 c 0,3,4
 120 346 120 346 132.5 334 c 128,-1,5
 145 322 145 322 145 305 c 0,6,7
 145 287 145 287 132.5 275.5 c 128,-1,8
 120 264 120 264 105 264 c 0,9,10
 89 264 89 264 76.5 275.5 c 128,-1,11
 64 287 64 287 64 305 c 0,0,1
64 41 m 0,12,13
 64 58 64 58 76.5 70 c 128,-1,14
 89 82 89 82 105 82 c 0,15,16
 120 82 120 82 132.5 70 c 128,-1,17
 145 58 145 58 145 41 c 0,18,19
 145 23 145 23 132.5 11.5 c 128,-1,20
 120 0 120 0 105 0 c 0,21,22
 89 0 89 0 76.5 11.5 c 128,-1,23
 64 23 64 23 64 41 c 0,12,13
EndSplineSet
EndChar

StartChar: semicolon
Encoding: 59 59 85
Width: 248
Flags: W
LayerCount: 2
Back
Fore
SplineSet
94 293 m 0,0,1
 94 310 94 310 106 322 c 128,-1,2
 118 334 118 334 134 334 c 0,3,4
 149 334 149 334 161.5 322 c 128,-1,5
 174 310 174 310 174 293 c 0,6,7
 174 275 174 275 161.5 263.5 c 128,-1,8
 149 252 149 252 134 252 c 0,9,10
 118 252 118 252 106 263.5 c 128,-1,11
 94 275 94 275 94 293 c 0,0,1
157 87 m 1,12,13
 134 34 134 34 113 -17 c 128,-1,14
 92 -68 92 -68 70 -121 c 1,15,-1
 17 -121 l 1,16,17
 37 -68 37 -68 56 -17 c 128,-1,18
 75 34 75 34 95 87 c 1,19,-1
 157 87 l 1,12,13
EndSplineSet
EndChar

StartChar: quotedbl
Encoding: 34 34 86
Width: 335
Flags: W
LayerCount: 2
Back
Fore
SplineSet
72 476 m 1,0,-1
 72 726 l 1,1,-1
 132 726 l 1,2,-1
 128 476 l 1,3,-1
 72 476 l 1,0,-1
207 476 m 1,4,-1
 207 726 l 1,5,-1
 266 726 l 1,6,-1
 262 476 l 1,7,-1
 207 476 l 1,4,-1
EndSplineSet
EndChar

StartChar: numbersign
Encoding: 35 35 87
Width: 574
Flags: W
LayerCount: 2
Back
Fore
SplineSet
290 0 m 1,0,-1
 314 203 l 1,1,-1
 188 203 l 1,2,3
 182 152 182 152 175.5 101.5 c 128,-1,4
 169 51 169 51 164 0 c 1,5,-1
 105 0 l 1,6,7
 111 51 111 51 117 101.5 c 128,-1,8
 123 152 123 152 128 203 c 1,9,-1
 27 203 l 1,10,11
 29 217 29 217 30.5 231.5 c 128,-1,12
 32 246 32 246 33 260 c 1,13,-1
 136 260 l 1,14,15
 140 292 140 292 143 323.5 c 128,-1,16
 146 355 146 355 151 387 c 1,17,-1
 50 387 l 1,18,-1
 55 444 l 1,19,-1
 157 444 l 1,20,-1
 183 648 l 1,21,-1
 241 648 l 1,22,23
 235 597 235 597 229 546.5 c 128,-1,24
 223 496 223 496 216 444 c 1,25,-1
 343 444 l 1,26,-1
 368 648 l 1,27,-1
 427 648 l 1,28,29
 420 597 420 597 414 546.5 c 128,-1,30
 408 496 408 496 402 444 c 1,31,-1
 517 444 l 1,32,-1
 511 387 l 1,33,-1
 395 387 l 1,34,-1
 380 260 l 1,35,-1
 495 260 l 1,36,-1
 488 203 l 1,37,-1
 373 203 l 1,38,-1
 349 0 l 1,39,-1
 290 0 l 1,0,-1
210 387 m 1,40,41
 206 355 206 355 202.5 323.5 c 128,-1,42
 199 292 199 292 194 260 c 1,43,-1
 321 260 l 1,44,-1
 336 387 l 1,45,-1
 210 387 l 1,40,41
EndSplineSet
EndChar

StartChar: percent
Encoding: 37 37 88
Width: 673
Flags: W
LayerCount: 2
Back
Fore
SplineSet
448 112 m 256,0,1
 448 85 448 85 466 66.5 c 128,-1,2
 484 48 484 48 512 48 c 256,3,4
 540 48 540 48 558 66.5 c 128,-1,5
 576 85 576 85 576 112 c 256,6,7
 576 139 576 139 558 157.5 c 128,-1,8
 540 176 540 176 512 176 c 256,9,10
 484 176 484 176 466 157.5 c 128,-1,11
 448 139 448 139 448 112 c 256,0,1
512 -9 m 256,12,13
 487 -9 487 -9 464.5 0.5 c 128,-1,14
 442 10 442 10 425.5 26.5 c 128,-1,15
 409 43 409 43 399.5 65 c 128,-1,16
 390 87 390 87 390 113 c 0,17,18
 390 138 390 138 399.5 159.5 c 128,-1,19
 409 181 409 181 425.5 197.5 c 128,-1,20
 442 214 442 214 464.5 223.5 c 128,-1,21
 487 233 487 233 512 233 c 256,22,23
 537 233 537 233 559 223.5 c 128,-1,24
 581 214 581 214 597.5 197.5 c 128,-1,25
 614 181 614 181 624 159.5 c 128,-1,26
 634 138 634 138 634 113 c 0,27,28
 634 87 634 87 624 65 c 128,-1,29
 614 43 614 43 597.5 26.5 c 128,-1,30
 581 10 581 10 559 0.5 c 128,-1,31
 537 -9 537 -9 512 -9 c 256,12,13
102 392 m 256,32,33
 102 365 102 365 120 346.5 c 128,-1,34
 138 328 138 328 166 328 c 0,35,36
 193 328 193 328 211 346.5 c 128,-1,37
 229 365 229 365 229 392 c 256,38,39
 229 419 229 419 211 437 c 128,-1,40
 193 455 193 455 166 455 c 0,41,42
 138 455 138 455 120 437 c 128,-1,43
 102 419 102 419 102 392 c 256,32,33
166 271 m 0,44,45
 141 271 141 271 118.5 280.5 c 128,-1,46
 96 290 96 290 79.5 306 c 128,-1,47
 63 322 63 322 53 344 c 128,-1,48
 43 366 43 366 43 392 c 0,49,50
 43 417 43 417 53 439 c 128,-1,51
 63 461 63 461 79.5 477.5 c 128,-1,52
 96 494 96 494 118.5 503.5 c 128,-1,53
 141 513 141 513 166 513 c 0,54,55
 190 513 190 513 212.5 503.5 c 128,-1,56
 235 494 235 494 251.5 477.5 c 128,-1,57
 268 461 268 461 278 439 c 128,-1,58
 288 417 288 417 288 392 c 0,59,60
 288 366 288 366 278 344 c 128,-1,61
 268 322 268 322 251.5 306 c 128,-1,62
 235 290 235 290 212.5 280.5 c 128,-1,63
 190 271 190 271 166 271 c 0,44,45
154 0 m 1,64,65
 229 127 229 127 304 252 c 128,-1,66
 379 377 379 377 454 504 c 1,67,-1
 518 504 l 1,68,69
 443 377 443 377 368 252 c 128,-1,70
 293 127 293 127 218 0 c 1,71,-1
 154 0 l 1,64,65
EndSplineSet
EndChar

StartChar: quoteright
Encoding: 8217 8217 89
Width: 184
Flags: W
LayerCount: 2
Back
Fore
SplineSet
82 573 m 1,0,-1
 53 595 l 1,1,2
 75 615 75 615 84.5 645 c 128,-1,3
 94 675 94 675 87 710 c 1,4,-1
 127 717 l 1,5,6
 135 675 135 675 123 637.5 c 128,-1,7
 111 600 111 600 82 573 c 1,0,-1
EndSplineSet
EndChar

StartChar: parenleft
Encoding: 40 40 90
Width: 277
Flags: W
LayerCount: 2
Back
Fore
SplineSet
45 294 m 0,0,1
 45 369 45 369 59 437.5 c 128,-1,2
 73 506 73 506 96.5 565 c 128,-1,3
 120 624 120 624 149.5 671.5 c 128,-1,4
 179 719 179 719 211 752 c 1,5,-1
 259 729 l 1,6,7
 230 696 230 696 202 650.5 c 128,-1,8
 174 605 174 605 152 549.5 c 128,-1,9
 130 494 130 494 117 430 c 128,-1,10
 104 366 104 366 104 294 c 256,11,12
 104 222 104 222 117 157.5 c 128,-1,13
 130 93 130 93 152 37.5 c 128,-1,14
 174 -18 174 -18 202 -63.5 c 128,-1,15
 230 -109 230 -109 259 -142 c 1,16,-1
 211 -165 l 1,17,18
 179 -131 179 -131 149.5 -83.5 c 128,-1,19
 120 -36 120 -36 96.5 22.5 c 128,-1,20
 73 81 73 81 59 149.5 c 128,-1,21
 45 218 45 218 45 294 c 0,0,1
EndSplineSet
EndChar

StartChar: parenright
Encoding: 41 41 91
Width: 277
Flags: W
LayerCount: 2
Back
Fore
SplineSet
234 292 m 0,0,1
 234 216 234 216 220 147.5 c 128,-1,2
 206 79 206 79 183 20.5 c 128,-1,3
 160 -38 160 -38 130 -85.5 c 128,-1,4
 100 -133 100 -133 68 -167 c 1,5,6
 56 -161 56 -161 44 -155.5 c 128,-1,7
 32 -150 32 -150 20 -145 c 1,8,9
 49 -112 49 -112 77 -66.5 c 128,-1,10
 105 -21 105 -21 126.5 34.5 c 128,-1,11
 148 90 148 90 161.5 154 c 128,-1,12
 175 218 175 218 175 290 c 256,13,14
 175 362 175 362 161.5 426.5 c 128,-1,15
 148 491 148 491 126.5 546.5 c 128,-1,16
 105 602 105 602 77 647.5 c 128,-1,17
 49 693 49 693 20 726 c 1,18,19
 32 732 32 732 44 738 c 128,-1,20
 56 744 56 744 68 751 c 1,21,22
 100 717 100 717 130 669.5 c 128,-1,23
 160 622 160 622 183 563 c 128,-1,24
 206 504 206 504 220 435.5 c 128,-1,25
 234 367 234 367 234 292 c 0,0,1
EndSplineSet
EndChar

StartChar: asterisk
Encoding: 42 42 92
Width: 390
Flags: W
LayerCount: 2
Back
Fore
SplineSet
236 575 m 1,0,1
 259 562 259 562 282.5 549 c 128,-1,2
 306 536 306 536 329 522 c 1,3,4
 323 513 323 513 317.5 503.5 c 128,-1,5
 312 494 312 494 306 484 c 1,6,-1
 215 538 l 1,7,-1
 213 434 l 1,8,-1
 173 434 l 1,9,-1
 173 538 l 1,10,11
 150 525 150 525 128 512.5 c 128,-1,12
 106 500 106 500 83 486 c 1,13,-1
 60 525 l 1,14,-1
 152 576 l 1,15,-1
 61 630 l 1,16,17
 69 647 69 647 81 665 c 1,18,-1
 173 611 l 1,19,-1
 173 720 l 1,20,-1
 217 720 l 1,21,22
 217 693 217 693 216.5 666 c 128,-1,23
 216 639 216 639 216 611 c 1,24,-1
 310 664 l 1,25,26
 315 656 315 656 320 647 c 128,-1,27
 325 638 325 638 330 629 c 1,28,-1
 236 575 l 1,0,1
EndSplineSet
EndChar

StartChar: plus
Encoding: 43 43 93
Width: 456
Flags: W
LayerCount: 2
Back
Fore
SplineSet
199 51 m 1,0,-1
 199 205 l 1,1,-1
 47 205 l 1,2,-1
 47 261 l 1,3,-1
 199 261 l 1,4,-1
 199 414 l 1,5,-1
 258 414 l 1,6,-1
 258 261 l 1,7,-1
 410 261 l 1,8,-1
 410 205 l 1,9,-1
 258 205 l 1,10,-1
 258 51 l 1,11,-1
 199 51 l 1,0,-1
EndSplineSet
EndChar

StartChar: nine
Encoding: 57 57 94
Width: 534
Flags: W
LayerCount: 2
Back
Fore
SplineSet
423 428 m 256,0,1
 423 460 423 460 411 488.5 c 128,-1,2
 399 517 399 517 378 538 c 128,-1,3
 357 559 357 559 329 571.5 c 128,-1,4
 301 584 301 584 269 584 c 256,5,6
 237 584 237 584 208.5 571.5 c 128,-1,7
 180 559 180 559 158.5 538 c 128,-1,8
 137 517 137 517 124.5 488.5 c 128,-1,9
 112 460 112 460 112 428 c 256,10,11
 112 396 112 396 124.5 367.5 c 128,-1,12
 137 339 137 339 158.5 318 c 128,-1,13
 180 297 180 297 208.5 285 c 128,-1,14
 237 273 237 273 269 273 c 256,15,16
 301 273 301 273 329 285 c 128,-1,17
 357 297 357 297 378 318 c 128,-1,18
 399 339 399 339 411 367.5 c 128,-1,19
 423 396 423 396 423 428 c 256,0,1
482 428 m 0,20,21
 482 351 482 351 448.5 286.5 c 128,-1,22
 415 222 415 222 365 168 c 128,-1,23
 315 114 315 114 257.5 70.5 c 128,-1,24
 200 27 200 27 152 -8 c 1,25,26
 143 3 143 3 133.5 15 c 128,-1,27
 124 27 124 27 116 38 c 1,28,29
 161 68 161 68 202 99.5 c 128,-1,30
 243 131 243 131 276 161 c 128,-1,31
 309 191 309 191 333 218 c 128,-1,32
 357 245 357 245 368 265 c 1,33,34
 351 242 351 242 325 229 c 128,-1,35
 299 216 299 216 268 216 c 0,36,37
 224 216 224 216 185 232.5 c 128,-1,38
 146 249 146 249 116.5 277.5 c 128,-1,39
 87 306 87 306 70 345 c 128,-1,40
 53 384 53 384 53 428 c 256,41,42
 53 472 53 472 70 510.5 c 128,-1,43
 87 549 87 549 116.5 578 c 128,-1,44
 146 607 146 607 185 624 c 128,-1,45
 224 641 224 641 268 641 c 0,46,47
 307 641 307 641 345.5 626.5 c 128,-1,48
 384 612 384 612 414.5 585 c 128,-1,49
 445 558 445 558 463.5 518.5 c 128,-1,50
 482 479 482 479 482 428 c 0,20,21
EndSplineSet
EndChar

StartChar: bar
Encoding: 124 124 95
Width: 245
Flags: W
LayerCount: 2
Back
Fore
SplineSet
94 -234 m 1,0,-1
 94 706 l 1,1,-1
 152 706 l 1,2,-1
 152 -234 l 1,3,-1
 94 -234 l 1,0,-1
EndSplineSet
EndChar

StartChar: braceleft
Encoding: 123 123 96
Width: 306
Flags: W
LayerCount: 2
Back
Fore
SplineSet
33 269 m 1,0,-1
 33 330 l 1,1,2
 58 331 58 331 73.5 345 c 128,-1,3
 89 359 89 359 98 379 c 128,-1,4
 107 399 107 399 110 422.5 c 128,-1,5
 113 446 113 446 113 466 c 2,6,-1
 113 633 l 2,7,8
 113 679 113 679 121.5 703.5 c 128,-1,9
 130 728 130 728 145 739 c 128,-1,10
 160 750 160 750 179.5 751 c 128,-1,11
 199 752 199 752 220 752 c 2,12,-1
 274 752 l 1,13,-1
 274 695 l 1,14,-1
 225 695 l 2,15,16
 194 695 194 695 183 673 c 128,-1,17
 172 651 172 651 172 588 c 2,18,-1
 172 450 l 2,19,20
 172 413 172 413 166 388 c 128,-1,21
 160 363 160 363 150.5 345.5 c 128,-1,22
 141 328 141 328 129.5 318 c 128,-1,23
 118 308 118 308 107 301 c 1,24,25
 118 294 118 294 129.5 283.5 c 128,-1,26
 141 273 141 273 150.5 255.5 c 128,-1,27
 160 238 160 238 166 213 c 128,-1,28
 172 188 172 188 172 152 c 2,29,-1
 172 14 l 2,30,31
 172 -49 172 -49 183 -71 c 128,-1,32
 194 -93 194 -93 225 -93 c 2,33,-1
 274 -93 l 1,34,-1
 274 -150 l 1,35,-1
 220 -150 l 2,36,37
 198 -150 198 -150 178.5 -149 c 128,-1,38
 159 -148 159 -148 144.5 -136 c 128,-1,39
 130 -124 130 -124 121.5 -97 c 128,-1,40
 113 -70 113 -70 113 -18 c 2,41,-1
 113 133 l 2,42,43
 113 154 113 154 110 177 c 128,-1,44
 107 200 107 200 98 220.5 c 128,-1,45
 89 241 89 241 73.5 254.5 c 128,-1,46
 58 268 58 268 33 269 c 1,0,-1
EndSplineSet
EndChar

StartChar: braceright
Encoding: 125 125 97
Width: 305
Flags: W
LayerCount: 2
Back
Fore
SplineSet
273 330 m 1,0,-1
 273 269 l 1,1,2
 246 268 246 268 230.5 252 c 128,-1,3
 215 236 215 236 206.5 213 c 128,-1,4
 198 190 198 190 196 164.5 c 128,-1,5
 194 139 194 139 194 120 c 2,6,-1
 194 -31 l 2,7,8
 194 -78 194 -78 185 -102 c 128,-1,9
 176 -126 176 -126 161 -137 c 128,-1,10
 146 -148 146 -148 126.5 -149 c 128,-1,11
 107 -150 107 -150 86 -150 c 2,12,-1
 33 -150 l 1,13,-1
 33 -93 l 1,14,-1
 82 -93 l 2,15,16
 97 -93 97 -93 107 -88 c 128,-1,17
 117 -83 117 -83 123 -71 c 128,-1,18
 129 -59 129 -59 131.5 -38.5 c 128,-1,19
 134 -18 134 -18 134 14 c 2,20,-1
 134 166 l 2,21,22
 134 198 134 198 141 221 c 128,-1,23
 148 244 148 244 158 259.5 c 128,-1,24
 168 275 168 275 179.5 285 c 128,-1,25
 191 295 191 295 200 301 c 1,26,27
 189 308 189 308 177.5 318 c 128,-1,28
 166 328 166 328 156 345.5 c 128,-1,29
 146 363 146 363 140 388 c 128,-1,30
 134 413 134 413 134 450 c 2,31,-1
 134 588 l 2,32,33
 134 619 134 619 131.5 640 c 128,-1,34
 129 661 129 661 123 673 c 128,-1,35
 117 685 117 685 107 690 c 128,-1,36
 97 695 97 695 82 695 c 2,37,-1
 33 695 l 1,38,-1
 33 752 l 1,39,-1
 86 752 l 2,40,41
 107 752 107 752 126.5 751 c 128,-1,42
 146 750 146 750 161 739.5 c 128,-1,43
 176 729 176 729 185 704.5 c 128,-1,44
 194 680 194 680 194 633 c 2,45,-1
 194 480 l 2,46,47
 194 460 194 460 196 435 c 128,-1,48
 198 410 198 410 206.5 387 c 128,-1,49
 215 364 215 364 230.5 347.5 c 128,-1,50
 246 331 246 331 273 330 c 1,0,-1
EndSplineSet
EndChar

StartChar: zero
Encoding: 48 48 98
Width: 654
Flags: W
LayerCount: 2
Back
Fore
SplineSet
57 330 m 0,0,1
 57 396 57 396 75 456.5 c 128,-1,2
 93 517 93 517 128 563 c 128,-1,3
 163 609 163 609 214 636 c 128,-1,4
 265 663 265 663 330 663 c 0,5,6
 397 663 397 663 447 634 c 128,-1,7
 497 605 497 605 531 558 c 128,-1,8
 565 511 565 511 581.5 450.5 c 128,-1,9
 598 390 598 390 597 326 c 0,10,11
 597 251 597 251 575.5 189.5 c 128,-1,12
 554 128 554 128 517 84 c 128,-1,13
 480 40 480 40 431 16 c 128,-1,14
 382 -8 382 -8 325 -8 c 0,15,16
 269 -8 269 -8 220.5 16.5 c 128,-1,17
 172 41 172 41 135.5 85 c 128,-1,18
 99 129 99 129 78 191 c 128,-1,19
 57 253 57 253 57 330 c 0,0,1
116 329 m 0,20,21
 116 269 116 269 133 217.5 c 128,-1,22
 150 166 150 166 178.5 129 c 128,-1,23
 207 92 207 92 245 70.5 c 128,-1,24
 283 49 283 49 325 49 c 256,25,26
 367 49 367 49 405.5 69.5 c 128,-1,27
 444 90 444 90 473.5 127 c 128,-1,28
 503 164 503 164 521 215.5 c 128,-1,29
 539 267 539 267 539 327 c 0,30,31
 539 379 539 379 525.5 429.5 c 128,-1,32
 512 480 512 480 485.5 519 c 128,-1,33
 459 558 459 558 420 582 c 128,-1,34
 381 606 381 606 329 606 c 0,35,36
 276 606 276 606 236.5 582 c 128,-1,37
 197 558 197 558 170.5 518.5 c 128,-1,38
 144 479 144 479 130 429.5 c 128,-1,39
 116 380 116 380 116 329 c 0,20,21
EndSplineSet
EndChar

StartChar: hyphen
Encoding: 45 45 99
Width: 313
Flags: W
LayerCount: 2
Back
Fore
SplineSet
64 178 m 1,0,-1
 64 235 l 1,1,-1
 250 235 l 1,2,-1
 250 178 l 1,3,-1
 64 178 l 1,0,-1
EndSplineSet
EndChar

StartChar: slash
Encoding: 47 47 100
Width: 416
Flags: W
LayerCount: 2
Back
Fore
SplineSet
39 -19 m 1,0,1
 110 173 110 173 179.5 361.5 c 128,-1,2
 249 550 249 550 319 742 c 1,3,-1
 378 742 l 1,4,5
 307 550 307 550 238 361.5 c 128,-1,6
 169 173 169 173 98 -19 c 1,7,-1
 39 -19 l 1,0,1
EndSplineSet
EndChar

StartChar: backslash
Encoding: 92 92 101
Width: 423
Flags: W
LayerCount: 2
Back
Fore
SplineSet
104 742 m 1,0,-1
 385 -19 l 1,1,-1
 320 -19 l 1,2,-1
 39 742 l 1,3,-1
 104 742 l 1,0,-1
EndSplineSet
EndChar

StartChar: G
Encoding: 71 71 102
Width: 682
Flags: W
LayerCount: 2
Back
Fore
SplineSet
618 327 m 1,0,-1
 618 43 l 1,1,2
 577 19 577 19 525 5.5 c 128,-1,3
 473 -8 473 -8 416 -8 c 0,4,5
 332 -8 332 -8 264.5 19.5 c 128,-1,6
 197 47 197 47 149.5 95 c 128,-1,7
 102 143 102 143 76 208 c 128,-1,8
 50 273 50 273 50 348 c 0,9,10
 50 429 50 429 79.5 497.5 c 128,-1,11
 109 566 109 566 159.5 616 c 128,-1,12
 210 666 210 666 277.5 694 c 128,-1,13
 345 722 345 722 420 722 c 0,14,15
 471 722 471 722 523.5 709 c 128,-1,16
 576 696 576 696 617 671 c 1,17,-1
 583 615 l 1,18,19
 550 635 550 635 505.5 646.5 c 128,-1,20
 461 658 461 658 419 658 c 0,21,22
 358 658 358 658 303.5 634 c 128,-1,23
 249 610 249 610 207.5 569 c 128,-1,24
 166 528 166 528 142 472 c 128,-1,25
 118 416 118 416 118 353 c 0,26,27
 118 293 118 293 139.5 239 c 128,-1,28
 161 185 161 185 200 144.5 c 128,-1,29
 239 104 239 104 294 80.5 c 128,-1,30
 349 57 349 57 416 57 c 0,31,32
 449 57 449 57 485.5 64.5 c 128,-1,33
 522 72 522 72 555 87 c 1,34,-1
 555 267 l 1,35,-1
 401 267 l 1,36,-1
 401 327 l 1,37,-1
 618 327 l 1,0,-1
EndSplineSet
EndChar

StartChar: V
Encoding: 86 86 103
Width: 647
Flags: W
LayerCount: 2
Back
Fore
SplineSet
84 714 m 1,0,1
 98 680 98 680 116.5 634 c 128,-1,2
 135 588 135 588 156 536 c 128,-1,3
 177 484 177 484 199 428.5 c 128,-1,4
 221 373 221 373 242 321 c 128,-1,5
 263 269 263 269 281.5 223 c 128,-1,6
 300 177 300 177 314 143 c 2,7,-1
 324 111 l 1,8,-1
 334 143 l 2,9,10
 348 177 348 177 366.5 223 c 128,-1,11
 385 269 385 269 406 321 c 128,-1,12
 427 373 427 373 449 428.5 c 128,-1,13
 471 484 471 484 492 536 c 128,-1,14
 513 588 513 588 531.5 634 c 128,-1,15
 550 680 550 680 564 714 c 1,16,-1
 633 714 l 1,17,18
 617 677 617 677 592.5 618 c 128,-1,19
 568 559 568 559 539 488 c 128,-1,20
 510 417 510 417 478.5 340.5 c 128,-1,21
 447 264 447 264 418 193.5 c 128,-1,22
 389 123 389 123 364 63.5 c 128,-1,23
 339 4 339 4 324 -33 c 1,24,25
 309 4 309 4 284 63.5 c 128,-1,26
 259 123 259 123 230 193.5 c 128,-1,27
 201 264 201 264 170 340.5 c 128,-1,28
 139 417 139 417 110 488 c 128,-1,29
 81 559 81 559 56 618 c 128,-1,30
 31 677 31 677 16 714 c 1,31,-1
 84 714 l 1,0,1
EndSplineSet
EndChar

StartChar: S
Encoding: 83 83 104
Width: 550
Flags: W
LayerCount: 2
Back
Fore
SplineSet
477 677 m 1,0,-1
 452 622 l 1,1,2
 417 636 417 636 374.5 646 c 128,-1,3
 332 656 332 656 292 656 c 0,4,5
 256 656 256 656 227.5 647 c 128,-1,6
 199 638 199 638 179 622 c 128,-1,7
 159 606 159 606 148.5 585.5 c 128,-1,8
 138 565 138 565 138 541 c 0,9,10
 138 512 138 512 154 491.5 c 128,-1,11
 170 471 170 471 196 456 c 128,-1,12
 222 441 222 441 255 428.5 c 128,-1,13
 288 416 288 416 322.5 403 c 128,-1,14
 357 390 357 390 390 373.5 c 128,-1,15
 423 357 423 357 449 333 c 128,-1,16
 475 309 475 309 491 276 c 128,-1,17
 507 243 507 243 507 196 c 256,18,19
 507 149 507 149 490 111.5 c 128,-1,20
 473 74 473 74 441 47.5 c 128,-1,21
 409 21 409 21 362.5 6.5 c 128,-1,22
 316 -8 316 -8 257 -8 c 0,23,24
 215 -8 215 -8 179.5 -0.5 c 128,-1,25
 144 7 144 7 116.5 17.5 c 128,-1,26
 89 28 89 28 68.5 39 c 128,-1,27
 48 50 48 50 36 58 c 1,28,-1
 67 118 l 1,29,30
 85 107 85 107 107.5 96 c 128,-1,31
 130 85 130 85 154.5 77 c 128,-1,32
 179 69 179 69 205 64 c 128,-1,33
 231 59 231 59 256 59 c 0,34,35
 283 59 283 59 315.5 66.5 c 128,-1,36
 348 74 348 74 375.5 91 c 128,-1,37
 403 108 403 108 421.5 134.5 c 128,-1,38
 440 161 440 161 440 199 c 0,39,40
 440 246 440 246 412.5 275 c 128,-1,41
 385 304 385 304 344 324.5 c 128,-1,42
 303 345 303 345 255 361 c 128,-1,43
 207 377 207 377 166 398.5 c 128,-1,44
 125 420 125 420 97.5 452 c 128,-1,45
 70 484 70 484 70 535 c 0,46,47
 70 571 70 571 84.5 604.5 c 128,-1,48
 99 638 99 638 127 663 c 128,-1,49
 155 688 155 688 195 703 c 128,-1,50
 235 718 235 718 285 718 c 0,51,52
 313 718 313 718 342.5 713.5 c 128,-1,53
 372 709 372 709 398 702.5 c 128,-1,54
 424 696 424 696 445 689 c 128,-1,55
 466 682 466 682 477 677 c 1,0,-1
EndSplineSet
EndChar

StartChar: Z
Encoding: 90 90 105
Width: 633
Flags: W
LayerCount: 2
Back
Fore
SplineSet
140 714 m 2,0,-1
 589 714 l 1,1,-1
 131 66 l 1,2,-1
 608 66 l 1,3,-1
 608 0 l 1,4,-1
 12 0 l 1,5,6
 37 36 37 36 74 89.5 c 128,-1,7
 111 143 111 143 154 205 c 128,-1,8
 197 267 197 267 242.5 333 c 128,-1,9
 288 399 288 399 331 460.5 c 128,-1,10
 374 522 374 522 411 574 c 128,-1,11
 448 626 448 626 473 660 c 1,12,-1
 121 660 l 2,13,14
 89 660 89 660 67.5 673 c 128,-1,15
 46 686 46 686 46 715 c 2,16,-1
 46 750 l 1,17,-1
 109 750 l 1,18,-1
 109 737 l 2,19,20
 109 723 109 723 116 718.5 c 128,-1,21
 123 714 123 714 140 714 c 2,0,-1
EndSplineSet
EndChar

StartChar: W
Encoding: 87 87 106
Width: 943
Flags: W
LayerCount: 2
Back
Fore
SplineSet
926 712 m 1,0,1
 901 650 901 650 872.5 578 c 128,-1,2
 844 506 844 506 815 431.5 c 128,-1,3
 786 357 786 357 758 285 c 128,-1,4
 730 213 730 213 706 151 c 128,-1,5
 682 89 682 89 663.5 41 c 128,-1,6
 645 -7 645 -7 636 -32 c 1,7,-1
 480 371 l 2,8,9
 478 375 478 375 475.5 381 c 128,-1,10
 473 387 473 387 472 392 c 1,11,12
 471 390 471 390 470 386 c 128,-1,13
 469 382 469 382 468 379 c 0,14,15
 467 375 467 375 466 371 c 0,16,17
 436 293 436 293 407 219 c 0,18,19
 395 187 395 187 381.5 153.5 c 128,-1,20
 368 120 368 120 355 87 c 128,-1,21
 342 54 342 54 330 23 c 128,-1,22
 318 -8 318 -8 309 -33 c 1,23,24
 234 155 234 155 164 340 c 128,-1,25
 94 525 94 525 19 712 c 1,26,-1
 96 712 l 1,27,28
 115 663 115 663 137 606.5 c 128,-1,29
 159 550 159 550 181 493 c 128,-1,30
 203 436 203 436 223.5 381.5 c 128,-1,31
 244 327 244 327 261 281.5 c 128,-1,32
 278 236 278 236 289.5 203 c 128,-1,33
 301 170 301 170 305 156 c 2,34,-1
 313 126 l 2,35,36
 313 129 313 129 317 140.5 c 128,-1,37
 321 152 321 152 322 155 c 256,38,39
 323 158 323 158 328.5 173 c 128,-1,40
 334 188 334 188 342 210.5 c 128,-1,41
 350 233 350 233 360.5 261 c 128,-1,42
 371 289 371 289 382 318 c 0,43,44
 408 386 408 386 439 470 c 1,45,46
 417 532 417 532 399 583 c 0,47,48
 391 605 391 605 383.5 626 c 128,-1,49
 376 647 376 647 370 665 c 128,-1,50
 364 683 364 683 359.5 695.5 c 128,-1,51
 355 708 355 708 354 712 c 1,52,-1
 420 712 l 1,53,54
 467 591 467 591 507 483 c 0,55,56
 524 437 524 437 542 389 c 128,-1,57
 560 341 560 341 576 297.5 c 128,-1,58
 592 254 592 254 605.5 217 c 128,-1,59
 619 180 619 180 627 156 c 0,60,61
 629 148 629 148 631 141 c 128,-1,62
 633 134 633 134 635 126 c 2,63,-1
 643 156 l 2,64,65
 646 171 646 171 658 204.5 c 128,-1,66
 670 238 670 238 687 283.5 c 128,-1,67
 704 329 704 329 725 384 c 128,-1,68
 746 439 746 439 768 495.5 c 128,-1,69
 790 552 790 552 812.5 608 c 128,-1,70
 835 664 835 664 854 712 c 1,71,-1
 926 712 l 1,0,1
EndSplineSet
EndChar

StartChar: X
Encoding: 88 88 107
Width: 594
Flags: W
LayerCount: 2
Back
Fore
SplineSet
253 366 m 1,0,1
 242 383 242 383 224 410.5 c 128,-1,2
 206 438 206 438 185 471.5 c 128,-1,3
 164 505 164 505 140.5 540.5 c 128,-1,4
 117 576 117 576 96 609 c 128,-1,5
 75 642 75 642 57 669.5 c 128,-1,6
 39 697 39 697 28 714 c 1,7,-1
 112 714 l 1,8,9
 127 690 127 690 150.5 653 c 128,-1,10
 174 616 174 616 199.5 576 c 128,-1,11
 225 536 225 536 248.5 498.5 c 128,-1,12
 272 461 272 461 288 437 c 2,13,-1
 300 413 l 1,14,-1
 312 437 l 2,15,16
 327 461 327 461 350 498.5 c 128,-1,17
 373 536 373 536 398 576 c 128,-1,18
 423 616 423 616 446 653 c 128,-1,19
 469 690 469 690 484 714 c 1,20,-1
 565 714 l 1,21,-1
 342 363 l 1,22,23
 354 345 354 345 372.5 316 c 128,-1,24
 391 287 391 287 413.5 252.5 c 128,-1,25
 436 218 436 218 460 181 c 128,-1,26
 484 144 484 144 506.5 109.5 c 128,-1,27
 529 75 529 75 547.5 46.5 c 128,-1,28
 566 18 566 18 578 0 c 1,29,-1
 493 0 l 1,30,-1
 330 256 l 2,31,32
 323 266 323 266 312.5 284.5 c 128,-1,33
 302 303 302 303 294 314 c 1,34,35
 291 307 291 307 287.5 300 c 128,-1,36
 284 293 284 293 282 291 c 2,37,-1
 102 0 l 1,38,-1
 18 0 l 1,39,40
 30 18 30 18 48.5 47 c 128,-1,41
 67 76 67 76 89.5 111 c 128,-1,42
 112 146 112 146 136 183 c 128,-1,43
 160 220 160 220 182 255 c 128,-1,44
 204 290 204 290 223 319 c 128,-1,45
 242 348 242 348 253 366 c 1,0,1
EndSplineSet
EndChar

StartChar: AE
Encoding: 198 198 108
Width: 683
Flags: W
LayerCount: 2
Back
Fore
SplineSet
310 0 m 1,0,-1
 310 255 l 1,1,-1
 187 255 l 1,2,3
 158 180 158 180 131 113 c 128,-1,4
 104 46 104 46 84 0 c 1,5,-1
 16 0 l 1,6,7
 31 36 31 36 55 93 c 128,-1,8
 79 150 79 150 106.5 217.5 c 128,-1,9
 134 285 134 285 163.5 357 c 128,-1,10
 193 429 193 429 220.5 496.5 c 128,-1,11
 248 564 248 564 271.5 620.5 c 128,-1,12
 295 677 295 677 310 714 c 1,13,-1
 628 714 l 1,14,-1
 628 652 l 1,15,-1
 375 652 l 1,16,-1
 375 391 l 1,17,-1
 588 391 l 1,18,-1
 588 327 l 1,19,-1
 375 327 l 1,20,-1
 375 64 l 1,21,-1
 642 64 l 1,22,-1
 642 0 l 1,23,-1
 310 0 l 1,0,-1
310 562 m 1,24,25
 290 515 290 515 263.5 448.5 c 128,-1,26
 237 382 237 382 208 310 c 1,27,-1
 310 310 l 1,28,-1
 310 562 l 1,24,25
EndSplineSet
EndChar

StartChar: Ntilde
Encoding: 209 209 109
Width: 812
Flags: W
LayerCount: 2
Back
Fore
SplineSet
710 714 m 1,0,-1
 710 -33 l 1,1,2
 681 2 681 2 638.5 50.5 c 128,-1,3
 596 99 596 99 546.5 154 c 128,-1,4
 497 209 497 209 444.5 266.5 c 128,-1,5
 392 324 392 324 343 379 c 128,-1,6
 294 434 294 434 253.5 481.5 c 128,-1,7
 213 529 213 529 187 564 c 0,8,9
 184 568 184 568 178 575.5 c 128,-1,10
 172 583 172 583 167 590 c 1,11,-1
 170 558 l 1,12,-1
 170 0 l 1,13,-1
 102 0 l 1,14,-1
 102 747 l 1,15,16
 131 710 131 710 173 662 c 128,-1,17
 215 614 215 614 264.5 560 c 128,-1,18
 314 506 314 506 366 449 c 128,-1,19
 418 392 418 392 466.5 338.5 c 128,-1,20
 515 285 515 285 557 237.5 c 128,-1,21
 599 190 599 190 626 155 c 0,22,23
 628 150 628 150 634 142.5 c 128,-1,24
 640 135 640 135 645 128 c 1,25,-1
 642 161 l 1,26,-1
 642 714 l 1,27,-1
 710 714 l 1,0,-1
403 790 m 0,28,29
 387 807 387 807 375.5 812.5 c 128,-1,30
 364 818 364 818 350 818 c 0,31,32
 342 818 342 818 333 816 c 128,-1,33
 324 814 324 814 315 808.5 c 128,-1,34
 306 803 306 803 299.5 793 c 128,-1,35
 293 783 293 783 291 768 c 1,36,-1
 258 770 l 1,37,38
 259 790 259 790 267.5 805 c 128,-1,39
 276 820 276 820 288.5 830.5 c 128,-1,40
 301 841 301 841 316 846 c 128,-1,41
 331 851 331 851 346 851 c 0,42,43
 369 851 369 851 387 842 c 128,-1,44
 405 833 405 833 421 816 c 256,45,46
 437 799 437 799 448.5 793.5 c 128,-1,47
 460 788 460 788 474 788 c 0,48,49
 481 788 481 788 490.5 790 c 128,-1,50
 500 792 500 792 509 797.5 c 128,-1,51
 518 803 518 803 524.5 813 c 128,-1,52
 531 823 531 823 533 838 c 1,53,-1
 566 836 l 1,54,55
 565 816 565 816 556.5 801 c 128,-1,56
 548 786 548 786 535.5 775.5 c 128,-1,57
 523 765 523 765 508 760 c 128,-1,58
 493 755 493 755 478 755 c 0,59,60
 455 755 455 755 437 764.5 c 128,-1,61
 419 774 419 774 403 790 c 0,28,29
EndSplineSet
EndChar

StartChar: Aring
Encoding: 197 197 110
Width: 645
Flags: W
LayerCount: 2
Back
Fore
SplineSet
563 0 m 1,0,1
 543 46 543 46 516 113 c 128,-1,2
 489 180 489 180 460 255 c 1,3,-1
 186 255 l 1,4,5
 157 180 157 180 130 113 c 128,-1,6
 103 46 103 46 83 0 c 1,7,-1
 15 0 l 1,8,9
 30 36 30 36 55 95.5 c 128,-1,10
 80 155 80 155 109 226 c 128,-1,11
 138 297 138 297 169 373.5 c 128,-1,12
 200 450 200 450 229 521 c 128,-1,13
 258 592 258 592 282.5 651 c 128,-1,14
 307 710 307 710 323 747 c 1,15,16
 338 710 338 710 363 651 c 128,-1,17
 388 592 388 592 417 521 c 128,-1,18
 446 450 446 450 477.5 373.5 c 128,-1,19
 509 297 509 297 538 226 c 128,-1,20
 567 155 567 155 591.5 95.5 c 128,-1,21
 616 36 616 36 632 0 c 1,22,-1
 563 0 l 1,0,1
313 572 m 0,23,24
 293 525 293 525 265.5 457 c 128,-1,25
 238 389 238 389 209 314 c 1,26,-1
 437 314 l 1,27,28
 407 389 407 389 380 457 c 128,-1,29
 353 525 353 525 333 572 c 0,30,31
 331 576 331 576 328 585.5 c 128,-1,32
 325 595 325 595 323 603 c 1,33,34
 321 595 321 595 318 585.5 c 128,-1,35
 315 576 315 576 313 572 c 0,23,24
248 843 m 0,36,37
 248 874 248 874 270 896 c 128,-1,38
 292 918 292 918 324 918 c 256,39,40
 356 918 356 918 378 896 c 128,-1,41
 400 874 400 874 400 843 c 0,42,43
 400 811 400 811 378 789 c 128,-1,44
 356 767 356 767 324 767 c 256,45,46
 292 767 292 767 270 789 c 128,-1,47
 248 811 248 811 248 843 c 0,36,37
283 842 m 256,48,49
 283 825 283 825 295 813 c 128,-1,50
 307 801 307 801 324 801 c 256,51,52
 341 801 341 801 353 813 c 128,-1,53
 365 825 365 825 365 842 c 256,54,55
 365 859 365 859 353 871 c 128,-1,56
 341 883 341 883 324 883 c 256,57,58
 307 883 307 883 295 871 c 128,-1,59
 283 859 283 859 283 842 c 256,48,49
EndSplineSet
EndChar

StartChar: Aacute
Encoding: 193 193 111
Width: 645
Flags: W
LayerCount: 2
Back
Fore
SplineSet
632 0 m 1,0,1
 616 36 616 36 591.5 95.5 c 128,-1,2
 567 155 567 155 538 226 c 128,-1,3
 509 297 509 297 477.5 373.5 c 128,-1,4
 446 450 446 450 417 521 c 128,-1,5
 388 592 388 592 363 651 c 128,-1,6
 338 710 338 710 323 747 c 1,7,8
 307 710 307 710 282.5 651 c 128,-1,9
 258 592 258 592 229 521 c 128,-1,10
 200 450 200 450 169 373.5 c 128,-1,11
 138 297 138 297 109 226 c 128,-1,12
 80 155 80 155 55 95.5 c 128,-1,13
 30 36 30 36 15 0 c 1,14,-1
 83 0 l 1,15,16
 103 46 103 46 130 113 c 128,-1,17
 157 180 157 180 186 255 c 1,18,-1
 460 255 l 1,19,20
 489 180 489 180 516 113 c 128,-1,21
 543 46 543 46 563 0 c 1,22,-1
 632 0 l 1,0,1
313 572 m 0,23,24
 315 576 315 576 318 585.5 c 128,-1,25
 321 595 321 595 323 603 c 1,26,27
 325 595 325 595 328 585.5 c 128,-1,28
 331 576 331 576 333 572 c 0,29,30
 353 525 353 525 380 457 c 128,-1,31
 407 389 407 389 437 314 c 1,32,-1
 209 314 l 1,33,34
 238 389 238 389 265.5 457 c 128,-1,35
 293 525 293 525 313 572 c 0,23,24
293 760 m 1,36,-1
 384 894 l 1,37,-1
 443 894 l 1,38,39
 417 860 417 860 390 826.5 c 128,-1,40
 363 793 363 793 336 760 c 1,41,-1
 293 760 l 1,36,-1
EndSplineSet
EndChar

StartChar: Eacute
Encoding: 201 201 112
Width: 612
Flags: W
LayerCount: 2
Back
Fore
SplineSet
103 0 m 1,0,-1
 103 714 l 1,1,-1
 553 714 l 1,2,-1
 553 652 l 1,3,-1
 171 652 l 1,4,-1
 171 391 l 1,5,-1
 513 391 l 1,6,-1
 513 327 l 1,7,-1
 171 327 l 1,8,-1
 171 64 l 1,9,-1
 567 64 l 1,10,-1
 567 0 l 1,11,-1
 103 0 l 1,0,-1
294 760 m 1,12,-1
 385 894 l 1,13,-1
 444 894 l 1,14,15
 418 860 418 860 391 826.5 c 128,-1,16
 364 793 364 793 337 760 c 1,17,-1
 294 760 l 1,12,-1
EndSplineSet
EndChar

StartChar: Iacute
Encoding: 205 205 113
Width: 273
Flags: W
LayerCount: 2
Back
Fore
SplineSet
102 714 m 1,0,-1
 171 714 l 1,1,-1
 171 0 l 1,2,-1
 102 0 l 1,3,-1
 102 714 l 1,0,-1
99 760 m 1,4,-1
 190 894 l 1,5,-1
 249 894 l 1,6,7
 223 860 223 860 196 826.5 c 128,-1,8
 169 793 169 793 142 760 c 1,9,-1
 99 760 l 1,4,-1
EndSplineSet
EndChar

StartChar: Oacute
Encoding: 211 211 114
Width: 827
Flags: W
LayerCount: 2
Back
Fore
SplineSet
49 356 m 256,0,1
 49 431 49 431 77.5 497.5 c 128,-1,2
 106 564 106 564 155.5 614 c 128,-1,3
 205 664 205 664 271.5 693 c 128,-1,4
 338 722 338 722 413 722 c 256,5,6
 488 722 488 722 555 693 c 128,-1,7
 622 664 622 664 671.5 614 c 128,-1,8
 721 564 721 564 750 497.5 c 128,-1,9
 779 431 779 431 779 356 c 256,10,11
 779 281 779 281 750 214.5 c 128,-1,12
 721 148 721 148 671.5 98.5 c 128,-1,13
 622 49 622 49 555 20.5 c 128,-1,14
 488 -8 488 -8 413 -8 c 256,15,16
 338 -8 338 -8 271.5 20.5 c 128,-1,17
 205 49 205 49 155.5 98.5 c 128,-1,18
 106 148 106 148 77.5 214.5 c 128,-1,19
 49 281 49 281 49 356 c 256,0,1
117 356 m 256,20,21
 117 294 117 294 140.5 239.5 c 128,-1,22
 164 185 164 185 204 144.5 c 128,-1,23
 244 104 244 104 298 80.5 c 128,-1,24
 352 57 352 57 413 57 c 256,25,26
 474 57 474 57 528.5 80.5 c 128,-1,27
 583 104 583 104 623.5 144.5 c 128,-1,28
 664 185 664 185 687.5 239.5 c 128,-1,29
 711 294 711 294 711 356 c 256,30,31
 711 418 711 418 687.5 472.5 c 128,-1,32
 664 527 664 527 623.5 568 c 128,-1,33
 583 609 583 609 528.5 632.5 c 128,-1,34
 474 656 474 656 413 656 c 0,35,36
 351 656 351 656 297.5 632.5 c 128,-1,37
 244 609 244 609 203.5 568 c 128,-1,38
 163 527 163 527 140 472.5 c 128,-1,39
 117 418 117 418 117 356 c 256,20,21
370 760 m 1,40,-1
 461 894 l 1,41,-1
 520 894 l 1,42,43
 494 860 494 860 467 826.5 c 128,-1,44
 440 793 440 793 413 760 c 1,45,-1
 370 760 l 1,40,-1
EndSplineSet
EndChar

StartChar: Uacute
Encoding: 218 218 115
Width: 695
Flags: W
LayerCount: 2
Back
Fore
SplineSet
348 -8 m 0,0,1
 294 -8 294 -8 247.5 9.5 c 128,-1,2
 201 27 201 27 167 59 c 128,-1,3
 133 91 133 91 113.5 137.5 c 128,-1,4
 94 184 94 184 94 243 c 2,5,-1
 94 714 l 1,6,-1
 162 714 l 1,7,-1
 162 246 l 2,8,9
 162 203 162 203 176 168 c 128,-1,10
 190 133 190 133 215 108.5 c 128,-1,11
 240 84 240 84 274 70.5 c 128,-1,12
 308 57 308 57 348 57 c 0,13,14
 387 57 387 57 421 70.5 c 128,-1,15
 455 84 455 84 480 108.5 c 128,-1,16
 505 133 505 133 519.5 168 c 128,-1,17
 534 203 534 203 534 246 c 2,18,-1
 534 714 l 1,19,-1
 602 714 l 1,20,-1
 602 243 l 2,21,22
 602 184 602 184 582.5 137.5 c 128,-1,23
 563 91 563 91 528.5 59 c 128,-1,24
 494 27 494 27 447.5 9.5 c 128,-1,25
 401 -8 401 -8 348 -8 c 0,0,1
312 760 m 1,26,-1
 403 894 l 1,27,-1
 462 894 l 1,28,29
 436 860 436 860 409 826.5 c 128,-1,30
 382 793 382 793 355 760 c 1,31,-1
 312 760 l 1,26,-1
EndSplineSet
EndChar

StartChar: Adieresis
Encoding: 196 196 116
Width: 645
Flags: W
LayerCount: 2
Back
Fore
SplineSet
632 0 m 1,0,1
 616 36 616 36 591.5 95.5 c 128,-1,2
 567 155 567 155 538 226 c 128,-1,3
 509 297 509 297 477.5 373.5 c 128,-1,4
 446 450 446 450 417 521 c 128,-1,5
 388 592 388 592 363 651 c 128,-1,6
 338 710 338 710 323 747 c 1,7,8
 307 710 307 710 282.5 651 c 128,-1,9
 258 592 258 592 229 521 c 128,-1,10
 200 450 200 450 169 373.5 c 128,-1,11
 138 297 138 297 109 226 c 128,-1,12
 80 155 80 155 55 95.5 c 128,-1,13
 30 36 30 36 15 0 c 1,14,-1
 83 0 l 1,15,16
 103 46 103 46 130 113 c 128,-1,17
 157 180 157 180 186 255 c 1,18,-1
 460 255 l 1,19,20
 489 180 489 180 516 113 c 128,-1,21
 543 46 543 46 563 0 c 1,22,-1
 632 0 l 1,0,1
313 572 m 0,23,24
 315 576 315 576 318 585.5 c 128,-1,25
 321 595 321 595 323 603 c 1,26,27
 325 595 325 595 328 585.5 c 128,-1,28
 331 576 331 576 333 572 c 0,29,30
 353 525 353 525 380 457 c 128,-1,31
 407 389 407 389 437 314 c 1,32,-1
 209 314 l 1,33,34
 238 389 238 389 265.5 457 c 128,-1,35
 293 525 293 525 313 572 c 0,23,24
373 813 m 0,36,37
 373 830 373 830 385 842 c 128,-1,38
 397 854 397 854 413 854 c 0,39,40
 428 854 428 854 440.5 842 c 128,-1,41
 453 830 453 830 453 813 c 0,42,43
 453 795 453 795 440.5 783.5 c 128,-1,44
 428 772 428 772 413 772 c 0,45,46
 397 772 397 772 385 783.5 c 128,-1,47
 373 795 373 795 373 813 c 0,36,37
194 813 m 0,48,49
 194 830 194 830 206 842 c 128,-1,50
 218 854 218 854 234 854 c 0,51,52
 249 854 249 854 261.5 842 c 128,-1,53
 274 830 274 830 274 813 c 0,54,55
 274 795 274 795 261.5 783.5 c 128,-1,56
 249 772 249 772 234 772 c 0,57,58
 218 772 218 772 206 783.5 c 128,-1,59
 194 795 194 795 194 813 c 0,48,49
EndSplineSet
EndChar

StartChar: Edieresis
Encoding: 203 203 117
Width: 612
Flags: W
LayerCount: 2
Back
Fore
SplineSet
103 0 m 1,0,-1
 103 714 l 1,1,-1
 553 714 l 1,2,-1
 553 652 l 1,3,-1
 171 652 l 1,4,-1
 171 391 l 1,5,-1
 513 391 l 1,6,-1
 513 327 l 1,7,-1
 171 327 l 1,8,-1
 171 64 l 1,9,-1
 567 64 l 1,10,-1
 567 0 l 1,11,-1
 103 0 l 1,0,-1
389 813 m 0,12,13
 389 830 389 830 401 842 c 128,-1,14
 413 854 413 854 429 854 c 0,15,16
 444 854 444 854 456.5 842 c 128,-1,17
 469 830 469 830 469 813 c 0,18,19
 469 795 469 795 456.5 783.5 c 128,-1,20
 444 772 444 772 429 772 c 0,21,22
 413 772 413 772 401 783.5 c 128,-1,23
 389 795 389 795 389 813 c 0,12,13
210 813 m 0,24,25
 210 830 210 830 222 842 c 128,-1,26
 234 854 234 854 250 854 c 0,27,28
 265 854 265 854 277.5 842 c 128,-1,29
 290 830 290 830 290 813 c 0,30,31
 290 795 290 795 277.5 783.5 c 128,-1,32
 265 772 265 772 250 772 c 0,33,34
 234 772 234 772 222 783.5 c 128,-1,35
 210 795 210 795 210 813 c 0,24,25
EndSplineSet
EndChar

StartChar: Idieresis
Encoding: 207 207 118
Width: 273
Flags: W
LayerCount: 2
Back
Fore
SplineSet
102 714 m 1,0,-1
 171 714 l 1,1,-1
 171 0 l 1,2,-1
 102 0 l 1,3,-1
 102 714 l 1,0,-1
188 813 m 0,4,5
 188 830 188 830 200 842 c 128,-1,6
 212 854 212 854 228 854 c 0,7,8
 243 854 243 854 255.5 842 c 128,-1,9
 268 830 268 830 268 813 c 0,10,11
 268 795 268 795 255.5 783.5 c 128,-1,12
 243 772 243 772 228 772 c 0,13,14
 212 772 212 772 200 783.5 c 128,-1,15
 188 795 188 795 188 813 c 0,4,5
9 813 m 0,16,17
 9 830 9 830 21 842 c 128,-1,18
 33 854 33 854 49 854 c 0,19,20
 64 854 64 854 76.5 842 c 128,-1,21
 89 830 89 830 89 813 c 0,22,23
 89 795 89 795 76.5 783.5 c 128,-1,24
 64 772 64 772 49 772 c 0,25,26
 33 772 33 772 21 783.5 c 128,-1,27
 9 795 9 795 9 813 c 0,16,17
EndSplineSet
EndChar

StartChar: Odieresis
Encoding: 214 214 119
Width: 827
Flags: W
LayerCount: 2
Back
Fore
SplineSet
49 356 m 256,0,1
 49 431 49 431 77.5 497.5 c 128,-1,2
 106 564 106 564 155.5 614 c 128,-1,3
 205 664 205 664 271.5 693 c 128,-1,4
 338 722 338 722 413 722 c 256,5,6
 488 722 488 722 555 693 c 128,-1,7
 622 664 622 664 671.5 614 c 128,-1,8
 721 564 721 564 750 497.5 c 128,-1,9
 779 431 779 431 779 356 c 256,10,11
 779 281 779 281 750 214.5 c 128,-1,12
 721 148 721 148 671.5 98.5 c 128,-1,13
 622 49 622 49 555 20.5 c 128,-1,14
 488 -8 488 -8 413 -8 c 256,15,16
 338 -8 338 -8 271.5 20.5 c 128,-1,17
 205 49 205 49 155.5 98.5 c 128,-1,18
 106 148 106 148 77.5 214.5 c 128,-1,19
 49 281 49 281 49 356 c 256,0,1
117 356 m 256,20,21
 117 294 117 294 140.5 239.5 c 128,-1,22
 164 185 164 185 204 144.5 c 128,-1,23
 244 104 244 104 298 80.5 c 128,-1,24
 352 57 352 57 413 57 c 256,25,26
 474 57 474 57 528.5 80.5 c 128,-1,27
 583 104 583 104 623.5 144.5 c 128,-1,28
 664 185 664 185 687.5 239.5 c 128,-1,29
 711 294 711 294 711 356 c 256,30,31
 711 418 711 418 687.5 472.5 c 128,-1,32
 664 527 664 527 623.5 568 c 128,-1,33
 583 609 583 609 528.5 632.5 c 128,-1,34
 474 656 474 656 413 656 c 0,35,36
 351 656 351 656 297.5 632.5 c 128,-1,37
 244 609 244 609 203.5 568 c 128,-1,38
 163 527 163 527 140 472.5 c 128,-1,39
 117 418 117 418 117 356 c 256,20,21
461 813 m 0,40,41
 461 830 461 830 473 842 c 128,-1,42
 485 854 485 854 501 854 c 0,43,44
 516 854 516 854 528.5 842 c 128,-1,45
 541 830 541 830 541 813 c 0,46,47
 541 795 541 795 528.5 783.5 c 128,-1,48
 516 772 516 772 501 772 c 0,49,50
 485 772 485 772 473 783.5 c 128,-1,51
 461 795 461 795 461 813 c 0,40,41
282 813 m 0,52,53
 282 830 282 830 294 842 c 128,-1,54
 306 854 306 854 322 854 c 0,55,56
 337 854 337 854 349.5 842 c 128,-1,57
 362 830 362 830 362 813 c 0,58,59
 362 795 362 795 349.5 783.5 c 128,-1,60
 337 772 337 772 322 772 c 0,61,62
 306 772 306 772 294 783.5 c 128,-1,63
 282 795 282 795 282 813 c 0,52,53
EndSplineSet
EndChar

StartChar: Udieresis
Encoding: 220 220 120
Width: 695
Flags: W
LayerCount: 2
Back
Fore
SplineSet
348 -8 m 0,0,1
 294 -8 294 -8 247.5 9.5 c 128,-1,2
 201 27 201 27 167 59 c 128,-1,3
 133 91 133 91 113.5 137.5 c 128,-1,4
 94 184 94 184 94 243 c 2,5,-1
 94 714 l 1,6,-1
 162 714 l 1,7,-1
 162 246 l 2,8,9
 162 203 162 203 176 168 c 128,-1,10
 190 133 190 133 215 108.5 c 128,-1,11
 240 84 240 84 274 70.5 c 128,-1,12
 308 57 308 57 348 57 c 0,13,14
 387 57 387 57 421 70.5 c 128,-1,15
 455 84 455 84 480 108.5 c 128,-1,16
 505 133 505 133 519.5 168 c 128,-1,17
 534 203 534 203 534 246 c 2,18,-1
 534 714 l 1,19,-1
 602 714 l 1,20,-1
 602 243 l 2,21,22
 602 184 602 184 582.5 137.5 c 128,-1,23
 563 91 563 91 528.5 59 c 128,-1,24
 494 27 494 27 447.5 9.5 c 128,-1,25
 401 -8 401 -8 348 -8 c 0,0,1
408 813 m 0,26,27
 408 830 408 830 420 842 c 128,-1,28
 432 854 432 854 448 854 c 0,29,30
 463 854 463 854 475.5 842 c 128,-1,31
 488 830 488 830 488 813 c 0,32,33
 488 795 488 795 475.5 783.5 c 128,-1,34
 463 772 463 772 448 772 c 0,35,36
 432 772 432 772 420 783.5 c 128,-1,37
 408 795 408 795 408 813 c 0,26,27
229 813 m 0,38,39
 229 830 229 830 241 842 c 128,-1,40
 253 854 253 854 269 854 c 0,41,42
 284 854 284 854 296.5 842 c 128,-1,43
 309 830 309 830 309 813 c 0,44,45
 309 795 309 795 296.5 783.5 c 128,-1,46
 284 772 284 772 269 772 c 0,47,48
 253 772 253 772 241 783.5 c 128,-1,49
 229 795 229 795 229 813 c 0,38,39
EndSplineSet
EndChar

StartChar: Agrave
Encoding: 192 192 121
Width: 645
Flags: W
LayerCount: 2
Back
Fore
SplineSet
632 0 m 1,0,1
 616 36 616 36 591.5 95.5 c 128,-1,2
 567 155 567 155 538 226 c 128,-1,3
 509 297 509 297 477.5 373.5 c 128,-1,4
 446 450 446 450 417 521 c 128,-1,5
 388 592 388 592 363 651 c 128,-1,6
 338 710 338 710 323 747 c 1,7,8
 307 710 307 710 282.5 651 c 128,-1,9
 258 592 258 592 229 521 c 128,-1,10
 200 450 200 450 169 373.5 c 128,-1,11
 138 297 138 297 109 226 c 128,-1,12
 80 155 80 155 55 95.5 c 128,-1,13
 30 36 30 36 15 0 c 1,14,-1
 83 0 l 1,15,16
 103 46 103 46 130 113 c 128,-1,17
 157 180 157 180 186 255 c 1,18,-1
 460 255 l 1,19,20
 489 180 489 180 516 113 c 128,-1,21
 543 46 543 46 563 0 c 1,22,-1
 632 0 l 1,0,1
313 572 m 0,23,24
 315 576 315 576 318 585.5 c 128,-1,25
 321 595 321 595 323 603 c 1,26,27
 325 595 325 595 328 585.5 c 128,-1,28
 331 576 331 576 333 572 c 0,29,30
 353 525 353 525 380 457 c 128,-1,31
 407 389 407 389 437 314 c 1,32,-1
 209 314 l 1,33,34
 238 389 238 389 265.5 457 c 128,-1,35
 293 525 293 525 313 572 c 0,23,24
264 894 m 1,36,37
 287 860 287 860 309.5 826.5 c 128,-1,38
 332 793 332 793 355 760 c 1,39,-1
 311 760 l 1,40,-1
 204 894 l 1,41,-1
 264 894 l 1,36,37
EndSplineSet
EndChar

StartChar: Egrave
Encoding: 200 200 122
Width: 612
Flags: W
LayerCount: 2
Back
Fore
SplineSet
103 0 m 1,0,-1
 103 714 l 1,1,-1
 553 714 l 1,2,-1
 553 652 l 1,3,-1
 171 652 l 1,4,-1
 171 391 l 1,5,-1
 513 391 l 1,6,-1
 513 327 l 1,7,-1
 171 327 l 1,8,-1
 171 64 l 1,9,-1
 567 64 l 1,10,-1
 567 0 l 1,11,-1
 103 0 l 1,0,-1
301 894 m 1,12,13
 324 860 324 860 346.5 826.5 c 128,-1,14
 369 793 369 793 392 760 c 1,15,-1
 348 760 l 1,16,-1
 241 894 l 1,17,-1
 301 894 l 1,12,13
EndSplineSet
EndChar

StartChar: Igrave
Encoding: 204 204 123
Width: 273
Flags: W
LayerCount: 2
Back
Fore
SplineSet
102 714 m 1,0,-1
 171 714 l 1,1,-1
 171 0 l 1,2,-1
 102 0 l 1,3,-1
 102 714 l 1,0,-1
83 894 m 1,4,5
 106 860 106 860 128.5 826.5 c 128,-1,6
 151 793 151 793 174 760 c 1,7,-1
 130 760 l 1,8,-1
 23 894 l 1,9,-1
 83 894 l 1,4,5
EndSplineSet
EndChar

StartChar: Ograve
Encoding: 210 210 124
Width: 827
Flags: W
LayerCount: 2
Back
Fore
SplineSet
49 356 m 256,0,1
 49 431 49 431 77.5 497.5 c 128,-1,2
 106 564 106 564 155.5 614 c 128,-1,3
 205 664 205 664 271.5 693 c 128,-1,4
 338 722 338 722 413 722 c 256,5,6
 488 722 488 722 555 693 c 128,-1,7
 622 664 622 664 671.5 614 c 128,-1,8
 721 564 721 564 750 497.5 c 128,-1,9
 779 431 779 431 779 356 c 256,10,11
 779 281 779 281 750 214.5 c 128,-1,12
 721 148 721 148 671.5 98.5 c 128,-1,13
 622 49 622 49 555 20.5 c 128,-1,14
 488 -8 488 -8 413 -8 c 256,15,16
 338 -8 338 -8 271.5 20.5 c 128,-1,17
 205 49 205 49 155.5 98.5 c 128,-1,18
 106 148 106 148 77.5 214.5 c 128,-1,19
 49 281 49 281 49 356 c 256,0,1
117 356 m 256,20,21
 117 294 117 294 140.5 239.5 c 128,-1,22
 164 185 164 185 204 144.5 c 128,-1,23
 244 104 244 104 298 80.5 c 128,-1,24
 352 57 352 57 413 57 c 256,25,26
 474 57 474 57 528.5 80.5 c 128,-1,27
 583 104 583 104 623.5 144.5 c 128,-1,28
 664 185 664 185 687.5 239.5 c 128,-1,29
 711 294 711 294 711 356 c 256,30,31
 711 418 711 418 687.5 472.5 c 128,-1,32
 664 527 664 527 623.5 568 c 128,-1,33
 583 609 583 609 528.5 632.5 c 128,-1,34
 474 656 474 656 413 656 c 0,35,36
 351 656 351 656 297.5 632.5 c 128,-1,37
 244 609 244 609 203.5 568 c 128,-1,38
 163 527 163 527 140 472.5 c 128,-1,39
 117 418 117 418 117 356 c 256,20,21
365 894 m 1,40,41
 388 860 388 860 410.5 826.5 c 128,-1,42
 433 793 433 793 456 760 c 1,43,-1
 412 760 l 1,44,-1
 305 894 l 1,45,-1
 365 894 l 1,40,41
EndSplineSet
EndChar

StartChar: Ugrave
Encoding: 217 217 125
Width: 695
Flags: W
LayerCount: 2
Back
Fore
SplineSet
348 -8 m 0,0,1
 294 -8 294 -8 247.5 9.5 c 128,-1,2
 201 27 201 27 167 59 c 128,-1,3
 133 91 133 91 113.5 137.5 c 128,-1,4
 94 184 94 184 94 243 c 2,5,-1
 94 714 l 1,6,-1
 162 714 l 1,7,-1
 162 246 l 2,8,9
 162 203 162 203 176 168 c 128,-1,10
 190 133 190 133 215 108.5 c 128,-1,11
 240 84 240 84 274 70.5 c 128,-1,12
 308 57 308 57 348 57 c 0,13,14
 387 57 387 57 421 70.5 c 128,-1,15
 455 84 455 84 480 108.5 c 128,-1,16
 505 133 505 133 519.5 168 c 128,-1,17
 534 203 534 203 534 246 c 2,18,-1
 534 714 l 1,19,-1
 602 714 l 1,20,-1
 602 243 l 2,21,22
 602 184 602 184 582.5 137.5 c 128,-1,23
 563 91 563 91 528.5 59 c 128,-1,24
 494 27 494 27 447.5 9.5 c 128,-1,25
 401 -8 401 -8 348 -8 c 0,0,1
304 894 m 1,26,27
 327 860 327 860 349.5 826.5 c 128,-1,28
 372 793 372 793 395 760 c 1,29,-1
 351 760 l 1,30,-1
 244 894 l 1,31,-1
 304 894 l 1,26,27
EndSplineSet
EndChar

StartChar: Yacute
Encoding: 221 221 126
Width: 635
Flags: W
LayerCount: 2
Back
Fore
SplineSet
353 249 m 1,0,-1
 353 0 l 1,1,-1
 284 0 l 1,2,-1
 284 249 l 1,3,4
 271 271 271 271 249.5 307.5 c 128,-1,5
 228 344 228 344 203 388.5 c 128,-1,6
 178 433 178 433 150.5 481.5 c 128,-1,7
 123 530 123 530 98 574.5 c 128,-1,8
 73 619 73 619 52 655.5 c 128,-1,9
 31 692 31 692 18 714 c 1,10,-1
 95 714 l 1,11,12
 113 684 113 684 139 638 c 128,-1,13
 165 592 165 592 194.5 540.5 c 128,-1,14
 224 489 224 489 253.5 436 c 128,-1,15
 283 383 283 383 307 339 c 1,16,-1
 319 309 l 1,17,-1
 331 339 l 1,18,19
 356 383 356 383 385 436 c 128,-1,20
 414 489 414 489 442.5 540.5 c 128,-1,21
 471 592 471 592 496.5 638 c 128,-1,22
 522 684 522 684 540 714 c 1,23,-1
 618 714 l 1,24,-1
 353 249 l 1,0,-1
289 760 m 1,25,-1
 380 894 l 1,26,-1
 439 894 l 1,27,28
 413 860 413 860 386 826.5 c 128,-1,29
 359 793 359 793 332 760 c 1,30,-1
 289 760 l 1,25,-1
EndSplineSet
EndChar

StartChar: exclamdown
Encoding: 161 161 127
Width: 248
Flags: W
LayerCount: 2
Back
Fore
SplineSet
95 377 m 1,0,-1
 154 377 l 1,1,-1
 154 -212 l 1,2,-1
 95 -212 l 1,3,-1
 95 377 l 1,0,-1
125 531 m 0,4,5
 140 531 140 531 152.5 519 c 128,-1,6
 165 507 165 507 165 490 c 0,7,8
 165 471 165 471 152.5 460 c 128,-1,9
 140 449 140 449 125 449 c 0,10,11
 109 449 109 449 97 460 c 128,-1,12
 85 471 85 471 85 490 c 0,13,14
 85 507 85 507 97 519 c 128,-1,15
 109 531 109 531 125 531 c 0,4,5
EndSplineSet
EndChar

StartChar: Oslash
Encoding: 216 216 128
Width: 827
Flags: W
LayerCount: 2
Back
Fore
SplineSet
49 356 m 256,0,1
 49 431 49 431 77.5 497.5 c 128,-1,2
 106 564 106 564 155.5 614 c 128,-1,3
 205 664 205 664 271.5 693 c 128,-1,4
 338 722 338 722 413 722 c 0,5,6
 473 722 473 722 526.5 703.5 c 128,-1,7
 580 685 580 685 625 653 c 1,8,9
 643 673 643 673 658 691.5 c 128,-1,10
 673 710 673 710 686 725 c 1,11,-1
 719 695 l 1,12,-1
 660 625 l 1,13,14
 715 574 715 574 747 504.5 c 128,-1,15
 779 435 779 435 779 356 c 0,16,17
 779 281 779 281 750 214.5 c 128,-1,18
 721 148 721 148 671.5 98.5 c 128,-1,19
 622 49 622 49 555 20.5 c 128,-1,20
 488 -8 488 -8 413 -8 c 0,21,22
 349 -8 349 -8 292 12.5 c 128,-1,23
 235 33 235 33 188 69 c 1,24,-1
 122 -9 l 1,25,-1
 89 21 l 1,26,-1
 155 99 l 1,27,28
 105 149 105 149 77 215 c 128,-1,29
 49 281 49 281 49 356 c 256,0,1
231 120 m 1,30,31
 269 90 269 90 315 73.5 c 128,-1,32
 361 57 361 57 413 57 c 0,33,34
 474 57 474 57 528.5 80.5 c 128,-1,35
 583 104 583 104 623.5 144.5 c 128,-1,36
 664 185 664 185 687.5 239.5 c 128,-1,37
 711 294 711 294 711 356 c 0,38,39
 711 420 711 420 686 476 c 128,-1,40
 661 532 661 532 617 574 c 1,41,-1
 231 120 l 1,30,31
117 356 m 0,42,43
 117 296 117 296 138.5 243.5 c 128,-1,44
 160 191 160 191 198 150 c 1,45,-1
 582 602 l 1,46,47
 546 628 546 628 503.5 642 c 128,-1,48
 461 656 461 656 413 656 c 0,49,50
 351 656 351 656 297.5 632.5 c 128,-1,51
 244 609 244 609 203.5 568 c 128,-1,52
 163 527 163 527 140 472.5 c 128,-1,53
 117 418 117 418 117 356 c 0,42,43
EndSplineSet
EndChar

StartChar: questiondown
Encoding: 191 191 129
Width: 476
Flags: W
LayerCount: 2
Back
Fore
SplineSet
390 -34 m 1,0,-1
 441 -52 l 1,1,2
 433 -76 433 -76 418 -102 c 128,-1,3
 403 -128 403 -128 379.5 -149.5 c 128,-1,4
 356 -171 356 -171 323 -185 c 128,-1,5
 290 -199 290 -199 245 -199 c 0,6,7
 203 -199 203 -199 167 -183.5 c 128,-1,8
 131 -168 131 -168 104.5 -141 c 128,-1,9
 78 -114 78 -114 62.5 -78.5 c 128,-1,10
 47 -43 47 -43 47 -2 c 0,11,12
 47 53 47 53 73.5 94.5 c 128,-1,13
 100 136 100 136 146 170 c 0,14,15
 162 182 162 182 178.5 192 c 128,-1,16
 195 202 195 202 208.5 215 c 128,-1,17
 222 228 222 228 230.5 247 c 128,-1,18
 239 266 239 266 239 295 c 2,19,-1
 239 374 l 1,20,-1
 298 374 l 1,21,-1
 298 276 l 2,22,23
 298 244 298 244 287.5 224 c 128,-1,24
 277 204 277 204 259.5 189 c 128,-1,25
 242 174 242 174 219.5 160 c 128,-1,26
 197 146 197 146 174 127 c 0,27,28
 139 100 139 100 123 67.5 c 128,-1,29
 107 35 107 35 107 -2 c 0,30,31
 107 -32 107 -32 117.5 -57.5 c 128,-1,32
 128 -83 128 -83 146 -102 c 128,-1,33
 164 -121 164 -121 189.5 -131.5 c 128,-1,34
 215 -142 215 -142 245 -142 c 0,35,36
 303 -142 303 -142 338 -113.5 c 128,-1,37
 373 -85 373 -85 390 -34 c 1,0,-1
269 530 m 0,38,39
 284 530 284 530 296.5 518.5 c 128,-1,40
 309 507 309 507 309 489 c 0,41,42
 309 472 309 472 296.5 460 c 128,-1,43
 284 448 284 448 269 448 c 0,44,45
 255 448 255 448 242 460 c 128,-1,46
 229 472 229 472 229 489 c 0,47,48
 229 507 229 507 242 518.5 c 128,-1,49
 255 530 255 530 269 530 c 0,38,39
EndSplineSet
EndChar

StartChar: Atilde
Encoding: 195 195 130
Width: 645
Flags: W
LayerCount: 2
Back
Fore
SplineSet
632 0 m 1,0,1
 616 36 616 36 591.5 95.5 c 128,-1,2
 567 155 567 155 538 226 c 128,-1,3
 509 297 509 297 477.5 373.5 c 128,-1,4
 446 450 446 450 417 521 c 128,-1,5
 388 592 388 592 363 651 c 128,-1,6
 338 710 338 710 323 747 c 1,7,8
 307 710 307 710 282.5 651 c 128,-1,9
 258 592 258 592 229 521 c 128,-1,10
 200 450 200 450 169 373.5 c 128,-1,11
 138 297 138 297 109 226 c 128,-1,12
 80 155 80 155 55 95.5 c 128,-1,13
 30 36 30 36 15 0 c 1,14,-1
 83 0 l 1,15,16
 103 46 103 46 130 113 c 128,-1,17
 157 180 157 180 186 255 c 1,18,-1
 460 255 l 1,19,20
 489 180 489 180 516 113 c 128,-1,21
 543 46 543 46 563 0 c 1,22,-1
 632 0 l 1,0,1
313 572 m 0,23,24
 315 576 315 576 318 585.5 c 128,-1,25
 321 595 321 595 323 603 c 1,26,27
 325 595 325 595 328 585.5 c 128,-1,28
 331 576 331 576 333 572 c 0,29,30
 353 525 353 525 380 457 c 128,-1,31
 407 389 407 389 437 314 c 1,32,-1
 209 314 l 1,33,34
 238 389 238 389 265.5 457 c 128,-1,35
 293 525 293 525 313 572 c 0,23,24
315 793 m 0,36,37
 299 810 299 810 287.5 815.5 c 128,-1,38
 276 821 276 821 262 821 c 0,39,40
 254 821 254 821 245 819 c 128,-1,41
 236 817 236 817 227 811.5 c 128,-1,42
 218 806 218 806 211.5 796 c 128,-1,43
 205 786 205 786 203 771 c 1,44,-1
 170 773 l 1,45,46
 171 793 171 793 179.5 808 c 128,-1,47
 188 823 188 823 200.5 833.5 c 128,-1,48
 213 844 213 844 228 849 c 128,-1,49
 243 854 243 854 258 854 c 0,50,51
 281 854 281 854 299 845 c 128,-1,52
 317 836 317 836 333 819 c 256,53,54
 349 802 349 802 360.5 796.5 c 128,-1,55
 372 791 372 791 386 791 c 0,56,57
 393 791 393 791 402.5 793 c 128,-1,58
 412 795 412 795 421 800.5 c 128,-1,59
 430 806 430 806 436.5 816 c 128,-1,60
 443 826 443 826 445 841 c 1,61,-1
 478 839 l 1,62,63
 477 819 477 819 468.5 804 c 128,-1,64
 460 789 460 789 447.5 778.5 c 128,-1,65
 435 768 435 768 420 763 c 128,-1,66
 405 758 405 758 390 758 c 0,67,68
 367 758 367 758 349 767.5 c 128,-1,69
 331 777 331 777 315 793 c 0,36,37
EndSplineSet
EndChar

StartChar: Otilde
Encoding: 213 213 131
Width: 827
Flags: W
LayerCount: 2
Back
Fore
SplineSet
49 356 m 256,0,1
 49 431 49 431 77.5 497.5 c 128,-1,2
 106 564 106 564 155.5 614 c 128,-1,3
 205 664 205 664 271.5 693 c 128,-1,4
 338 722 338 722 413 722 c 256,5,6
 488 722 488 722 555 693 c 128,-1,7
 622 664 622 664 671.5 614 c 128,-1,8
 721 564 721 564 750 497.5 c 128,-1,9
 779 431 779 431 779 356 c 256,10,11
 779 281 779 281 750 214.5 c 128,-1,12
 721 148 721 148 671.5 98.5 c 128,-1,13
 622 49 622 49 555 20.5 c 128,-1,14
 488 -8 488 -8 413 -8 c 256,15,16
 338 -8 338 -8 271.5 20.5 c 128,-1,17
 205 49 205 49 155.5 98.5 c 128,-1,18
 106 148 106 148 77.5 214.5 c 128,-1,19
 49 281 49 281 49 356 c 256,0,1
117 356 m 256,20,21
 117 294 117 294 140.5 239.5 c 128,-1,22
 164 185 164 185 204 144.5 c 128,-1,23
 244 104 244 104 298 80.5 c 128,-1,24
 352 57 352 57 413 57 c 256,25,26
 474 57 474 57 528.5 80.5 c 128,-1,27
 583 104 583 104 623.5 144.5 c 128,-1,28
 664 185 664 185 687.5 239.5 c 128,-1,29
 711 294 711 294 711 356 c 256,30,31
 711 418 711 418 687.5 472.5 c 128,-1,32
 664 527 664 527 623.5 568 c 128,-1,33
 583 609 583 609 528.5 632.5 c 128,-1,34
 474 656 474 656 413 656 c 0,35,36
 351 656 351 656 297.5 632.5 c 128,-1,37
 244 609 244 609 203.5 568 c 128,-1,38
 163 527 163 527 140 472.5 c 128,-1,39
 117 418 117 418 117 356 c 256,20,21
398 824 m 0,40,41
 382 841 382 841 370.5 846.5 c 128,-1,42
 359 852 359 852 345 852 c 0,43,44
 337 852 337 852 328 850 c 128,-1,45
 319 848 319 848 310 842.5 c 128,-1,46
 301 837 301 837 294.5 827 c 128,-1,47
 288 817 288 817 286 802 c 1,48,-1
 253 804 l 1,49,50
 254 824 254 824 262.5 839 c 128,-1,51
 271 854 271 854 283.5 864.5 c 128,-1,52
 296 875 296 875 311 880 c 128,-1,53
 326 885 326 885 341 885 c 0,54,55
 364 885 364 885 382 876 c 128,-1,56
 400 867 400 867 416 850 c 256,57,58
 432 833 432 833 443.5 827.5 c 128,-1,59
 455 822 455 822 469 822 c 0,60,61
 476 822 476 822 485.5 824 c 128,-1,62
 495 826 495 826 504 831.5 c 128,-1,63
 513 837 513 837 519.5 847 c 128,-1,64
 526 857 526 857 528 872 c 1,65,-1
 561 870 l 1,66,67
 560 850 560 850 551.5 835 c 128,-1,68
 543 820 543 820 530.5 809.5 c 128,-1,69
 518 799 518 799 503 794 c 128,-1,70
 488 789 488 789 473 789 c 0,71,72
 450 789 450 789 432 798.5 c 128,-1,73
 414 808 414 808 398 824 c 0,40,41
EndSplineSet
EndChar

StartChar: acircumflex
Encoding: 226 226 132
Width: 528
Flags: W
LayerCount: 2
Back
Fore
SplineSet
39 198 m 0,0,1
 39 241 39 241 55.5 279.5 c 128,-1,2
 72 318 72 318 100.5 347 c 128,-1,3
 129 376 129 376 167 392.5 c 128,-1,4
 205 409 205 409 248 409 c 0,5,6
 278 409 278 409 304 401 c 128,-1,7
 330 393 330 393 350.5 379.5 c 128,-1,8
 371 366 371 366 385 349.5 c 128,-1,9
 399 333 399 333 406 317 c 1,10,-1
 410 400 l 1,11,-1
 461 400 l 1,12,-1
 461 0 l 1,13,-1
 406 0 l 1,14,-1
 406 41 l 2,15,16
 406 52 406 52 406.5 62 c 128,-1,17
 407 72 407 72 407 81 c 1,18,19
 400 64 400 64 386 48.5 c 128,-1,20
 372 33 372 33 351.5 20 c 128,-1,21
 331 7 331 7 305 -0.5 c 128,-1,22
 279 -8 279 -8 248 -8 c 0,23,24
 203 -8 203 -8 164.5 8.5 c 128,-1,25
 126 25 126 25 98.5 53 c 128,-1,26
 71 81 71 81 55 118.5 c 128,-1,27
 39 156 39 156 39 198 c 0,0,1
94 201 m 256,28,29
 94 168 94 168 106 140 c 128,-1,30
 118 112 118 112 139 91 c 128,-1,31
 160 70 160 70 188.5 58 c 128,-1,32
 217 46 217 46 250 46 c 256,33,34
 283 46 283 46 311.5 58 c 128,-1,35
 340 70 340 70 361 91 c 128,-1,36
 382 112 382 112 394 140 c 128,-1,37
 406 168 406 168 406 201 c 0,38,39
 406 233 406 233 394 261 c 128,-1,40
 382 289 382 289 361 310 c 128,-1,41
 340 331 340 331 311.5 343 c 128,-1,42
 283 355 283 355 250 355 c 256,43,44
 217 355 217 355 188.5 343 c 128,-1,45
 160 331 160 331 139 310.5 c 128,-1,46
 118 290 118 290 106 262 c 128,-1,47
 94 234 94 234 94 201 c 256,28,29
268 664 m 1,48,49
 298 619 298 619 328 573 c 128,-1,50
 358 527 358 527 389 482 c 1,51,-1
 345 482 l 1,52,53
 337 494 337 494 327 508 c 128,-1,54
 317 522 317 522 306.5 537 c 128,-1,55
 296 552 296 552 286 566.5 c 128,-1,56
 276 581 276 581 268 592 c 1,57,58
 260 581 260 581 250 566.5 c 128,-1,59
 240 552 240 552 229 537 c 128,-1,60
 218 522 218 522 208 508 c 128,-1,61
 198 494 198 494 190 482 c 1,62,-1
 147 482 l 1,63,-1
 268 664 l 1,48,49
EndSplineSet
EndChar

StartChar: ecircumflex
Encoding: 234 234 133
Width: 455
Flags: W
LayerCount: 2
Back
Fore
SplineSet
399 48 m 1,0,1
 370 22 370 22 331 7 c 128,-1,2
 292 -8 292 -8 250 -8 c 0,3,4
 206 -8 206 -8 167.5 8.5 c 128,-1,5
 129 25 129 25 100.5 53 c 128,-1,6
 72 81 72 81 55.5 119 c 128,-1,7
 39 157 39 157 39 200 c 256,8,9
 39 243 39 243 55.5 281.5 c 128,-1,10
 72 320 72 320 100.5 348.5 c 128,-1,11
 129 377 129 377 167 393.5 c 128,-1,12
 205 410 205 410 248 410 c 0,13,14
 314 410 314 410 362.5 370 c 128,-1,15
 411 330 411 330 434 268 c 1,16,17
 400 255 400 255 358.5 238.5 c 128,-1,18
 317 222 317 222 273.5 204.5 c 128,-1,19
 230 187 230 187 187 169.5 c 128,-1,20
 144 152 144 152 107 137 c 1,21,22
 125 96 125 96 162.5 71 c 128,-1,23
 200 46 200 46 248 46 c 0,24,25
 280 46 280 46 309 57 c 128,-1,26
 338 68 338 68 358 87 c 1,27,-1
 399 48 l 1,0,1
365 282 m 1,28,29
 348 316 348 316 317 335.5 c 128,-1,30
 286 355 286 355 248 355 c 0,31,32
 216 355 216 355 188 342.5 c 128,-1,33
 160 330 160 330 139 309 c 128,-1,34
 118 288 118 288 106 260.5 c 128,-1,35
 94 233 94 233 94 202 c 0,36,37
 94 186 94 186 97 174 c 1,38,39
 128 187 128 187 163 201 c 128,-1,40
 198 215 198 215 233 229.5 c 128,-1,41
 268 244 268 244 302 257.5 c 128,-1,42
 336 271 336 271 365 282 c 1,28,29
235 665 m 1,43,44
 265 620 265 620 295 574 c 128,-1,45
 325 528 325 528 356 483 c 1,46,-1
 312 483 l 1,47,48
 304 495 304 495 294 509 c 128,-1,49
 284 523 284 523 273.5 538 c 128,-1,50
 263 553 263 553 253 567.5 c 128,-1,51
 243 582 243 582 235 593 c 1,52,53
 227 582 227 582 217 567.5 c 128,-1,54
 207 553 207 553 196 538 c 128,-1,55
 185 523 185 523 175 509 c 128,-1,56
 165 495 165 495 157 483 c 1,57,-1
 114 483 l 1,58,-1
 235 665 l 1,43,44
EndSplineSet
EndChar

StartChar: icircumflex
Encoding: 238 238 134
Width: 190
Flags: W
LayerCount: 2
Back
Fore
SplineSet
123 0 m 1,0,-1
 68 0 l 1,1,-1
 68 400 l 1,2,-1
 123 400 l 1,3,-1
 123 0 l 1,0,-1
97 665 m 1,4,5
 127 620 127 620 157 574 c 128,-1,6
 187 528 187 528 218 483 c 1,7,-1
 174 483 l 1,8,9
 166 495 166 495 156 509 c 128,-1,10
 146 523 146 523 135.5 538 c 128,-1,11
 125 553 125 553 115 567.5 c 128,-1,12
 105 582 105 582 97 593 c 1,13,14
 89 582 89 582 79 567.5 c 128,-1,15
 69 553 69 553 58 538 c 128,-1,16
 47 523 47 523 37 509 c 128,-1,17
 27 495 27 495 19 483 c 1,18,-1
 -24 483 l 1,19,-1
 97 665 l 1,4,5
EndSplineSet
EndChar

StartChar: ocircumflex
Encoding: 244 244 135
Width: 497
Flags: W
LayerCount: 2
Back
Fore
SplineSet
39 200 m 0,0,1
 39 243 39 243 55.5 281.5 c 128,-1,2
 72 320 72 320 100.5 348.5 c 128,-1,3
 129 377 129 377 167.5 393.5 c 128,-1,4
 206 410 206 410 250 410 c 256,5,6
 294 410 294 410 332.5 393.5 c 128,-1,7
 371 377 371 377 399 348.5 c 128,-1,8
 427 320 427 320 443 281.5 c 128,-1,9
 459 243 459 243 459 200 c 256,10,11
 459 157 459 157 443 119 c 128,-1,12
 427 81 427 81 398.5 53 c 128,-1,13
 370 25 370 25 332 8.5 c 128,-1,14
 294 -8 294 -8 249 -8 c 0,15,16
 205 -8 205 -8 167 7.5 c 128,-1,17
 129 23 129 23 100.5 51 c 128,-1,18
 72 79 72 79 55.5 117 c 128,-1,19
 39 155 39 155 39 200 c 0,0,1
94 200 m 256,20,21
 94 168 94 168 106 140 c 128,-1,22
 118 112 118 112 139 91 c 128,-1,23
 160 70 160 70 188 58 c 128,-1,24
 216 46 216 46 248 46 c 256,25,26
 280 46 280 46 308.5 58 c 128,-1,27
 337 70 337 70 358 91 c 128,-1,28
 379 112 379 112 391 140 c 128,-1,29
 403 168 403 168 403 200 c 256,30,31
 403 232 403 232 391 260.5 c 128,-1,32
 379 289 379 289 358 310 c 128,-1,33
 337 331 337 331 308.5 343 c 128,-1,34
 280 355 280 355 248 355 c 256,35,36
 216 355 216 355 188 343 c 128,-1,37
 160 331 160 331 139 310 c 128,-1,38
 118 289 118 289 106 260.5 c 128,-1,39
 94 232 94 232 94 200 c 256,20,21
249 665 m 1,40,41
 279 620 279 620 309 574 c 128,-1,42
 339 528 339 528 370 483 c 1,43,-1
 326 483 l 1,44,45
 318 495 318 495 308 509 c 128,-1,46
 298 523 298 523 287.5 538 c 128,-1,47
 277 553 277 553 267 567.5 c 128,-1,48
 257 582 257 582 249 593 c 1,49,50
 241 582 241 582 231 567.5 c 128,-1,51
 221 553 221 553 210 538 c 128,-1,52
 199 523 199 523 189 509 c 128,-1,53
 179 495 179 495 171 483 c 1,54,-1
 128 483 l 1,55,-1
 249 665 l 1,40,41
EndSplineSet
EndChar

StartChar: ucircumflex
Encoding: 251 251 136
Width: 481
Flags: W
LayerCount: 2
Back
Fore
SplineSet
414 -5 m 1,0,-1
 368 -5 l 1,1,-1
 362 103 l 1,2,3
 341 53 341 53 298 22 c 128,-1,4
 255 -9 255 -9 194 -9 c 0,5,6
 135 -9 135 -9 100.5 24 c 128,-1,7
 66 57 66 57 64 111 c 2,8,-1
 64 400 l 1,9,-1
 119 400 l 1,10,-1
 119 130 l 2,11,12
 121 96 121 96 143 72 c 128,-1,13
 165 48 165 48 209 46 c 0,14,15
 240 46 240 46 267.5 56.5 c 128,-1,16
 295 67 295 67 315 85.5 c 128,-1,17
 335 104 335 104 347 130 c 128,-1,18
 359 156 359 156 359 187 c 2,19,-1
 359 400 l 1,20,-1
 414 400 l 1,21,-1
 414 -5 l 1,0,-1
257 665 m 1,22,23
 287 620 287 620 317 574 c 128,-1,24
 347 528 347 528 378 483 c 1,25,-1
 334 483 l 1,26,27
 326 495 326 495 316 509 c 128,-1,28
 306 523 306 523 295.5 538 c 128,-1,29
 285 553 285 553 275 567.5 c 128,-1,30
 265 582 265 582 257 593 c 1,31,32
 249 582 249 582 239 567.5 c 128,-1,33
 229 553 229 553 218 538 c 128,-1,34
 207 523 207 523 197 509 c 128,-1,35
 187 495 187 495 179 483 c 1,36,-1
 136 483 l 1,37,-1
 257 665 l 1,22,23
EndSplineSet
EndChar

StartChar: atilde
Encoding: 227 227 137
Width: 528
Flags: W
LayerCount: 2
Back
Fore
SplineSet
39 198 m 0,0,1
 39 241 39 241 55.5 279.5 c 128,-1,2
 72 318 72 318 100.5 347 c 128,-1,3
 129 376 129 376 167 392.5 c 128,-1,4
 205 409 205 409 248 409 c 0,5,6
 278 409 278 409 304 401 c 128,-1,7
 330 393 330 393 350.5 379.5 c 128,-1,8
 371 366 371 366 385 349.5 c 128,-1,9
 399 333 399 333 406 317 c 1,10,-1
 410 400 l 1,11,-1
 461 400 l 1,12,-1
 461 0 l 1,13,-1
 406 0 l 1,14,-1
 406 41 l 2,15,16
 406 52 406 52 406.5 62 c 128,-1,17
 407 72 407 72 407 81 c 1,18,19
 400 64 400 64 386 48.5 c 128,-1,20
 372 33 372 33 351.5 20 c 128,-1,21
 331 7 331 7 305 -0.5 c 128,-1,22
 279 -8 279 -8 248 -8 c 0,23,24
 203 -8 203 -8 164.5 8.5 c 128,-1,25
 126 25 126 25 98.5 53 c 128,-1,26
 71 81 71 81 55 118.5 c 128,-1,27
 39 156 39 156 39 198 c 0,0,1
94 201 m 256,28,29
 94 168 94 168 106 140 c 128,-1,30
 118 112 118 112 139 91 c 128,-1,31
 160 70 160 70 188.5 58 c 128,-1,32
 217 46 217 46 250 46 c 256,33,34
 283 46 283 46 311.5 58 c 128,-1,35
 340 70 340 70 361 91 c 128,-1,36
 382 112 382 112 394 140 c 128,-1,37
 406 168 406 168 406 201 c 0,38,39
 406 233 406 233 394 261 c 128,-1,40
 382 289 382 289 361 310 c 128,-1,41
 340 331 340 331 311.5 343 c 128,-1,42
 283 355 283 355 250 355 c 256,43,44
 217 355 217 355 188.5 343 c 128,-1,45
 160 331 160 331 139 310.5 c 128,-1,46
 118 290 118 290 106 262 c 128,-1,47
 94 234 94 234 94 201 c 256,28,29
262 491 m 0,48,49
 246 508 246 508 234.5 513.5 c 128,-1,50
 223 519 223 519 209 519 c 0,51,52
 201 519 201 519 192 517 c 128,-1,53
 183 515 183 515 174 509.5 c 128,-1,54
 165 504 165 504 158.5 494 c 128,-1,55
 152 484 152 484 150 469 c 1,56,-1
 117 471 l 1,57,58
 118 491 118 491 126.5 506 c 128,-1,59
 135 521 135 521 147.5 531.5 c 128,-1,60
 160 542 160 542 175 547 c 128,-1,61
 190 552 190 552 205 552 c 0,62,63
 228 552 228 552 246 543 c 128,-1,64
 264 534 264 534 280 517 c 256,65,66
 296 500 296 500 307.5 494.5 c 128,-1,67
 319 489 319 489 333 489 c 0,68,69
 340 489 340 489 349.5 491 c 128,-1,70
 359 493 359 493 368 498.5 c 128,-1,71
 377 504 377 504 383.5 514 c 128,-1,72
 390 524 390 524 392 539 c 1,73,-1
 425 537 l 1,74,75
 424 517 424 517 415.5 502 c 128,-1,76
 407 487 407 487 394.5 476.5 c 128,-1,77
 382 466 382 466 367 461 c 128,-1,78
 352 456 352 456 337 456 c 0,79,80
 314 456 314 456 296 465.5 c 128,-1,81
 278 475 278 475 262 491 c 0,48,49
EndSplineSet
EndChar

StartChar: grave
Encoding: 96 96 138
Width: 201
Flags: W
LayerCount: 2
Back
Fore
SplineSet
22 617 m 1,0,1
 45 583 45 583 67.5 549.5 c 128,-1,2
 90 516 90 516 113 483 c 1,3,-1
 69 483 l 1,4,-1
 -38 617 l 1,5,-1
 22 617 l 1,0,1
EndSplineSet
EndChar

StartChar: asciicircum
Encoding: 94 94 139
Width: 384
Flags: W
LayerCount: 2
Back
Fore
SplineSet
193 665 m 1,0,1
 223 620 223 620 253 574 c 128,-1,2
 283 528 283 528 314 483 c 1,3,-1
 270 483 l 1,4,5
 262 495 262 495 252 509 c 128,-1,6
 242 523 242 523 231.5 538 c 128,-1,7
 221 553 221 553 211 567.5 c 128,-1,8
 201 582 201 582 193 593 c 1,9,10
 185 582 185 582 175 567.5 c 128,-1,11
 165 553 165 553 154 538 c 128,-1,12
 143 523 143 523 133 509 c 128,-1,13
 123 495 123 495 115 483 c 1,14,-1
 72 483 l 1,15,-1
 193 665 l 1,0,1
EndSplineSet
EndChar

StartChar: otilde
Encoding: 245 245 140
Width: 497
Flags: W
LayerCount: 2
Back
Fore
SplineSet
39 200 m 0,0,1
 39 243 39 243 55.5 281.5 c 128,-1,2
 72 320 72 320 100.5 348.5 c 128,-1,3
 129 377 129 377 167.5 393.5 c 128,-1,4
 206 410 206 410 250 410 c 256,5,6
 294 410 294 410 332.5 393.5 c 128,-1,7
 371 377 371 377 399 348.5 c 128,-1,8
 427 320 427 320 443 281.5 c 128,-1,9
 459 243 459 243 459 200 c 256,10,11
 459 157 459 157 443 119 c 128,-1,12
 427 81 427 81 398.5 53 c 128,-1,13
 370 25 370 25 332 8.5 c 128,-1,14
 294 -8 294 -8 249 -8 c 0,15,16
 205 -8 205 -8 167 7.5 c 128,-1,17
 129 23 129 23 100.5 51 c 128,-1,18
 72 79 72 79 55.5 117 c 128,-1,19
 39 155 39 155 39 200 c 0,0,1
94 200 m 256,20,21
 94 168 94 168 106 140 c 128,-1,22
 118 112 118 112 139 91 c 128,-1,23
 160 70 160 70 188 58 c 128,-1,24
 216 46 216 46 248 46 c 256,25,26
 280 46 280 46 308.5 58 c 128,-1,27
 337 70 337 70 358 91 c 128,-1,28
 379 112 379 112 391 140 c 128,-1,29
 403 168 403 168 403 200 c 256,30,31
 403 232 403 232 391 260.5 c 128,-1,32
 379 289 379 289 358 310 c 128,-1,33
 337 331 337 331 308.5 343 c 128,-1,34
 280 355 280 355 248 355 c 256,35,36
 216 355 216 355 188 343 c 128,-1,37
 160 331 160 331 139 310 c 128,-1,38
 118 289 118 289 106 260.5 c 128,-1,39
 94 232 94 232 94 200 c 256,20,21
246 491 m 0,40,41
 230 508 230 508 218.5 513.5 c 128,-1,42
 207 519 207 519 193 519 c 0,43,44
 185 519 185 519 176 517 c 128,-1,45
 167 515 167 515 158 509.5 c 128,-1,46
 149 504 149 504 142.5 494 c 128,-1,47
 136 484 136 484 134 469 c 1,48,-1
 101 471 l 1,49,50
 102 491 102 491 110.5 506 c 128,-1,51
 119 521 119 521 131.5 531.5 c 128,-1,52
 144 542 144 542 159 547 c 128,-1,53
 174 552 174 552 189 552 c 0,54,55
 212 552 212 552 230 543 c 128,-1,56
 248 534 248 534 264 517 c 256,57,58
 280 500 280 500 291.5 494.5 c 128,-1,59
 303 489 303 489 317 489 c 0,60,61
 324 489 324 489 333.5 491 c 128,-1,62
 343 493 343 493 352 498.5 c 128,-1,63
 361 504 361 504 367.5 514 c 128,-1,64
 374 524 374 524 376 539 c 1,65,-1
 409 537 l 1,66,67
 408 517 408 517 399.5 502 c 128,-1,68
 391 487 391 487 378.5 476.5 c 128,-1,69
 366 466 366 466 351 461 c 128,-1,70
 336 456 336 456 321 456 c 0,71,72
 298 456 298 456 280 465.5 c 128,-1,73
 262 475 262 475 246 491 c 0,40,41
EndSplineSet
EndChar

StartChar: quotesingle
Encoding: 39 39 141
Width: 202
Flags: W
LayerCount: 2
Back
Fore
SplineSet
72 476 m 1,0,-1
 72 726 l 1,1,-1
 133 726 l 1,2,-1
 129 476 l 1,3,-1
 72 476 l 1,0,-1
EndSplineSet
EndChar

StartChar: underscore
Encoding: 95 95 142
Width: 530
Flags: W
LayerCount: 2
Back
Fore
SplineSet
467 0 m 1,0,-1
 64 0 l 1,1,-1
 64 57 l 1,2,-1
 467 57 l 1,3,-1
 467 0 l 1,0,-1
EndSplineSet
EndChar

StartChar: bracketleft
Encoding: 91 91 143
Width: 309
Flags: W
LayerCount: 2
Back
Fore
SplineSet
95 -150 m 1,0,-1
 95 752 l 1,1,-1
 278 752 l 1,2,-1
 278 695 l 1,3,-1
 154 695 l 1,4,-1
 154 -93 l 1,5,-1
 278 -93 l 1,6,-1
 278 -150 l 1,7,-1
 95 -150 l 1,0,-1
EndSplineSet
EndChar

StartChar: bracketright
Encoding: 93 93 144
Width: 309
Flags: W
LayerCount: 2
Back
Fore
SplineSet
215 752 m 1,0,-1
 215 -150 l 1,1,-1
 32 -150 l 1,2,-1
 32 -93 l 1,3,-1
 156 -93 l 1,4,-1
 156 695 l 1,5,-1
 32 695 l 1,6,-1
 32 752 l 1,7,-1
 215 752 l 1,0,-1
EndSplineSet
EndChar

StartChar: degree
Encoding: 176 176 145
Width: 295
Flags: W
LayerCount: 2
Back
Fore
SplineSet
149 510 m 256,0,1
 172 510 172 510 187.5 525.5 c 128,-1,2
 203 541 203 541 203 564 c 256,3,4
 203 587 203 587 187.5 602.5 c 128,-1,5
 172 618 172 618 149 618 c 256,6,7
 126 618 126 618 110.5 602.5 c 128,-1,8
 95 587 95 587 95 564 c 256,9,10
 95 541 95 541 110.5 525.5 c 128,-1,11
 126 510 126 510 149 510 c 256,0,1
55 564 m 256,12,13
 55 603 55 603 82 629.5 c 128,-1,14
 109 656 109 656 149 656 c 0,15,16
 168 656 168 656 185 649 c 128,-1,17
 202 642 202 642 214.5 629.5 c 128,-1,18
 227 617 227 617 234 600 c 128,-1,19
 241 583 241 583 241 564 c 0,20,21
 241 544 241 544 234 527.5 c 128,-1,22
 227 511 227 511 214.5 498.5 c 128,-1,23
 202 486 202 486 185 479 c 128,-1,24
 168 472 168 472 149 472 c 0,25,26
 109 472 109 472 82 498.5 c 128,-1,27
 55 525 55 525 55 564 c 256,12,13
EndSplineSet
EndChar

StartChar: ccedilla
Encoding: 231 231 146
Width: 413
Flags: W
LayerCount: 2
Back
Fore
SplineSet
348 79 m 1,0,-1
 382 38 l 1,1,2
 355 16 355 16 321.5 4 c 128,-1,3
 288 -8 288 -8 251 -8 c 1,4,5
 251 -22 251 -22 255 -30 c 128,-1,6
 259 -38 259 -38 265 -43.5 c 128,-1,7
 271 -49 271 -49 278.5 -53 c 128,-1,8
 286 -57 286 -57 292 -61 c 0,9,10
 314 -77 314 -77 323 -97 c 128,-1,11
 332 -117 332 -117 332 -138 c 0,12,13
 332 -184 332 -184 305.5 -213 c 128,-1,14
 279 -242 279 -242 234 -242 c 0,15,16
 203 -242 203 -242 176.5 -225 c 128,-1,17
 150 -208 150 -208 138 -173 c 1,18,19
 157 -163 157 -163 173 -156 c 1,20,21
 178 -174 178 -174 193 -185.5 c 128,-1,22
 208 -197 208 -197 230 -197 c 0,23,24
 256 -197 256 -197 272 -179 c 128,-1,25
 288 -161 288 -161 288 -135 c 0,26,27
 288 -112 288 -112 276.5 -99.5 c 128,-1,28
 265 -87 265 -87 250.5 -77 c 128,-1,29
 236 -67 236 -67 224.5 -55 c 128,-1,30
 213 -43 213 -43 213 -20 c 2,31,-1
 213 -5 l 1,32,33
 176 1 176 1 144 19.5 c 128,-1,34
 112 38 112 38 89 65 c 128,-1,35
 66 92 66 92 52.5 126.5 c 128,-1,36
 39 161 39 161 39 200 c 0,37,38
 39 243 39 243 55.5 281.5 c 128,-1,39
 72 320 72 320 100.5 348 c 128,-1,40
 129 376 129 376 167.5 392.5 c 128,-1,41
 206 409 206 409 250 409 c 0,42,43
 288 409 288 409 322 397 c 128,-1,44
 356 385 356 385 383 363 c 1,45,46
 375 352 375 352 366 342.5 c 128,-1,47
 357 333 357 333 348 322 c 1,48,49
 307 355 307 355 250 355 c 0,50,51
 217 355 217 355 188.5 343 c 128,-1,52
 160 331 160 331 139 310.5 c 128,-1,53
 118 290 118 290 106 261.5 c 128,-1,54
 94 233 94 233 94 200 c 0,55,56
 94 168 94 168 106 140 c 128,-1,57
 118 112 118 112 139 91 c 128,-1,58
 160 70 160 70 188.5 58 c 128,-1,59
 217 46 217 46 250 46 c 0,60,61
 307 46 307 46 348 79 c 1,0,-1
EndSplineSet
EndChar

StartChar: Ccedilla
Encoding: 199 199 147
Width: 644
Flags: W
LayerCount: 2
Back
Fore
SplineSet
618 48 m 1,0,1
 588 28 588 28 538.5 11 c 128,-1,2
 489 -6 489 -6 423 -8 c 1,3,4
 423 -22 423 -22 427 -30 c 128,-1,5
 431 -38 431 -38 437 -43.5 c 128,-1,6
 443 -49 443 -49 450.5 -53 c 128,-1,7
 458 -57 458 -57 464 -61 c 0,8,9
 486 -77 486 -77 495 -97 c 128,-1,10
 504 -117 504 -117 504 -138 c 0,11,12
 504 -184 504 -184 477.5 -213 c 128,-1,13
 451 -242 451 -242 406 -242 c 0,14,15
 375 -242 375 -242 348.5 -225 c 128,-1,16
 322 -208 322 -208 310 -173 c 1,17,18
 329 -163 329 -163 345 -156 c 1,19,20
 350 -174 350 -174 365 -185.5 c 128,-1,21
 380 -197 380 -197 402 -197 c 0,22,23
 428 -197 428 -197 444 -179 c 128,-1,24
 460 -161 460 -161 460 -135 c 0,25,26
 460 -112 460 -112 448.5 -99.5 c 128,-1,27
 437 -87 437 -87 422.5 -77 c 128,-1,28
 408 -67 408 -67 396.5 -55 c 128,-1,29
 385 -43 385 -43 385 -20 c 2,30,-1
 385 -7 l 1,31,32
 308 -3 308 -3 246 27.5 c 128,-1,33
 184 58 184 58 140.5 107 c 128,-1,34
 97 156 97 156 73.5 219 c 128,-1,35
 50 282 50 282 50 352 c 0,36,37
 50 431 50 431 79 499 c 128,-1,38
 108 567 108 567 158 616.5 c 128,-1,39
 208 666 208 666 275 694 c 128,-1,40
 342 722 342 722 418 722 c 0,41,42
 445 722 445 722 472.5 718.5 c 128,-1,43
 500 715 500 715 525 708 c 128,-1,44
 550 701 550 701 571 692 c 128,-1,45
 592 683 592 683 607 672 c 1,46,47
 602 664 602 664 599 659 c 128,-1,48
 596 654 596 654 593 648.5 c 128,-1,49
 590 643 590 643 586 636 c 128,-1,50
 582 629 582 629 576 618 c 1,51,52
 544 638 544 638 501.5 648 c 128,-1,53
 459 658 459 658 420 658 c 0,54,55
 357 658 357 658 302 634 c 128,-1,56
 247 610 247 610 206.5 568.5 c 128,-1,57
 166 527 166 527 142.5 472.5 c 128,-1,58
 119 418 119 418 119 357 c 0,59,60
 119 299 119 299 140 245.5 c 128,-1,61
 161 192 161 192 200 151.5 c 128,-1,62
 239 111 239 111 293 86.5 c 128,-1,63
 347 62 347 62 413 62 c 0,64,65
 442 62 442 62 469 66.5 c 128,-1,66
 496 71 496 71 519 78.5 c 128,-1,67
 542 86 542 86 559.5 94 c 128,-1,68
 577 102 577 102 587 110 c 1,69,-1
 618 48 l 1,0,1
EndSplineSet
EndChar

StartChar: endash
Encoding: 8211 8211 148
Width: 435
Flags: W
LayerCount: 2
Back
Fore
SplineSet
66 173 m 1,0,-1
 66 230 l 1,1,-1
 369 230 l 1,2,-1
 369 173 l 1,3,-1
 66 173 l 1,0,-1
EndSplineSet
EndChar

StartChar: emdash
Encoding: 8212 8212 149
Width: 638
Flags: W
LayerCount: 2
Back
Fore
SplineSet
66 173 m 1,0,-1
 66 230 l 1,1,-1
 572 230 l 1,2,-1
 572 173 l 1,3,-1
 66 173 l 1,0,-1
EndSplineSet
EndChar

StartChar: cedilla
Encoding: 184 184 150
Width: 455
Flags: W
LayerCount: 2
Back
Fore
SplineSet
189 0 m 1,0,-1
 227 0 l 1,1,-1
 227 -7 l 2,2,3
 227 -21 227 -21 231 -29.5 c 128,-1,4
 235 -38 235 -38 241 -43.5 c 128,-1,5
 247 -49 247 -49 254.5 -53 c 128,-1,6
 262 -57 262 -57 268 -61 c 0,7,8
 290 -77 290 -77 299 -97 c 128,-1,9
 308 -117 308 -117 308 -138 c 0,10,11
 308 -184 308 -184 281.5 -213 c 128,-1,12
 255 -242 255 -242 210 -242 c 0,13,14
 179 -242 179 -242 152.5 -225 c 128,-1,15
 126 -208 126 -208 114 -173 c 1,16,17
 133 -163 133 -163 149 -156 c 1,18,19
 154 -174 154 -174 169 -185.5 c 128,-1,20
 184 -197 184 -197 206 -197 c 0,21,22
 232 -197 232 -197 248 -179 c 128,-1,23
 264 -161 264 -161 264 -135 c 0,24,25
 264 -112 264 -112 252.5 -99 c 128,-1,26
 241 -86 241 -86 226.5 -76.5 c 128,-1,27
 212 -67 212 -67 200.5 -56.5 c 128,-1,28
 189 -46 189 -46 189 -28 c 2,29,-1
 189 0 l 1,0,-1
EndSplineSet
EndChar

StartChar: acute
Encoding: 180 180 151
Width: 255
Flags: W
LayerCount: 2
Back
Fore
SplineSet
101 483 m 1,0,-1
 192 617 l 1,1,-1
 251 617 l 1,2,3
 225 583 225 583 198 549.5 c 128,-1,4
 171 516 171 516 144 483 c 1,5,-1
 101 483 l 1,0,-1
EndSplineSet
EndChar

StartChar: dieresis
Encoding: 168 168 152
Width: 372
Flags: W
LayerCount: 2
Back
Fore
SplineSet
241 517 m 0,0,1
 241 534 241 534 253 546 c 128,-1,2
 265 558 265 558 281 558 c 0,3,4
 296 558 296 558 308.5 546 c 128,-1,5
 321 534 321 534 321 517 c 0,6,7
 321 499 321 499 308.5 487.5 c 128,-1,8
 296 476 296 476 281 476 c 0,9,10
 265 476 265 476 253 487.5 c 128,-1,11
 241 499 241 499 241 517 c 0,0,1
62 517 m 0,12,13
 62 534 62 534 74 546 c 128,-1,14
 86 558 86 558 102 558 c 0,15,16
 117 558 117 558 129.5 546 c 128,-1,17
 142 534 142 534 142 517 c 0,18,19
 142 499 142 499 129.5 487.5 c 128,-1,20
 117 476 117 476 102 476 c 0,21,22
 86 476 86 476 74 487.5 c 128,-1,23
 62 499 62 499 62 517 c 0,12,13
EndSplineSet
EndChar

StartChar: Eth
Encoding: 208 208 153
Width: 719
Flags: W
LayerCount: 2
Back
Fore
SplineSet
44 378 m 1,0,-1
 109 378 l 1,1,-1
 109 714 l 1,2,-1
 275 714 l 2,3,4
 383 714 383 714 458 681 c 128,-1,5
 533 648 533 648 580 596 c 128,-1,6
 627 544 627 544 648 479.5 c 128,-1,7
 669 415 669 415 669 352 c 0,8,9
 669 271 669 271 640 206 c 128,-1,10
 611 141 611 141 562 95 c 128,-1,11
 513 49 513 49 448 24.5 c 128,-1,12
 383 0 383 0 310 0 c 2,13,-1
 109 0 l 1,14,-1
 109 330 l 1,15,-1
 44 330 l 1,16,-1
 44 378 l 1,0,-1
303 65 m 2,17,18
 365 65 365 65 419.5 85 c 128,-1,19
 474 105 474 105 514.5 142.5 c 128,-1,20
 555 180 555 180 578 234 c 128,-1,21
 601 288 601 288 601 356 c 0,22,23
 601 418 601 418 579.5 471.5 c 128,-1,24
 558 525 558 525 518 564 c 128,-1,25
 478 603 478 603 422 625.5 c 128,-1,26
 366 648 366 648 296 648 c 2,27,-1
 178 648 l 1,28,-1
 178 378 l 1,29,-1
 336 378 l 1,30,-1
 336 330 l 1,31,-1
 178 330 l 1,32,-1
 178 65 l 1,33,-1
 303 65 l 2,17,18
EndSplineSet
EndChar

StartChar: thorn
Encoding: 254 254 154
Width: 529
Flags: W
LayerCount: 2
Back
Fore
SplineSet
490 200 m 0,0,1
 490 156 490 156 474.5 118 c 128,-1,2
 459 80 459 80 431 52 c 128,-1,3
 403 24 403 24 365 8 c 128,-1,4
 327 -8 327 -8 282 -8 c 0,5,6
 226 -8 226 -8 182.5 18 c 128,-1,7
 139 44 139 44 122 82 c 1,8,9
 122 72 122 72 122.5 62.5 c 128,-1,10
 123 53 123 53 123 42 c 2,11,-1
 123 -192 l 1,12,-1
 68 -192 l 1,13,-1
 68 766 l 1,14,-1
 123 766 l 1,15,-1
 123 316 l 1,16,17
 142 353 142 353 184 381 c 128,-1,18
 226 409 226 409 284 409 c 0,19,20
 329 409 329 409 366.5 393.5 c 128,-1,21
 404 378 404 378 431.5 350.5 c 128,-1,22
 459 323 459 323 474.5 284.5 c 128,-1,23
 490 246 490 246 490 200 c 0,0,1
431 200 m 0,24,25
 431 233 431 233 420 261.5 c 128,-1,26
 409 290 409 290 388.5 310.5 c 128,-1,27
 368 331 368 331 340 343 c 128,-1,28
 312 355 312 355 279 355 c 256,29,30
 246 355 246 355 217.5 343 c 128,-1,31
 189 331 189 331 168 310.5 c 128,-1,32
 147 290 147 290 135 262 c 128,-1,33
 123 234 123 234 123 201 c 256,34,35
 123 168 123 168 135 140 c 128,-1,36
 147 112 147 112 168 91 c 128,-1,37
 189 70 189 70 217.5 58 c 128,-1,38
 246 46 246 46 279 46 c 256,39,40
 312 46 312 46 340 58 c 128,-1,41
 368 70 368 70 388.5 91 c 128,-1,42
 409 112 409 112 420 140 c 128,-1,43
 431 168 431 168 431 200 c 0,24,25
EndSplineSet
EndChar

StartChar: eth
Encoding: 240 240 155
Width: 501
Flags: W
LayerCount: 2
Back
Fore
SplineSet
39 200 m 0,0,1
 39 243 39 243 55.5 281.5 c 128,-1,2
 72 320 72 320 100.5 348.5 c 128,-1,3
 129 377 129 377 167.5 393.5 c 128,-1,4
 206 410 206 410 250 410 c 0,5,6
 283 410 283 410 313 400 c 128,-1,7
 343 390 343 390 368 373 c 1,8,9
 352 424 352 424 319.5 486 c 128,-1,10
 287 548 287 548 233 614 c 1,11,-1
 166 543 l 1,12,-1
 135 572 l 1,13,14
 169 611 169 611 206 649 c 1,15,16
 183 675 183 675 158 699 c 128,-1,17
 133 723 133 723 107 744 c 1,18,-1
 139 775 l 1,19,20
 165 755 165 755 189.5 732.5 c 128,-1,21
 214 710 214 710 238 684 c 1,22,23
 254 701 254 701 269.5 718 c 128,-1,24
 285 735 285 735 301 753 c 1,25,-1
 332 725 l 1,26,-1
 265 651 l 1,27,28
 304 603 304 603 339.5 548 c 128,-1,29
 375 493 375 493 401.5 434.5 c 128,-1,30
 428 376 428 376 444 317.5 c 128,-1,31
 460 259 460 259 460 204 c 0,32,33
 460 200 460 200 459.5 196.5 c 128,-1,34
 459 193 459 193 459 191 c 0,35,36
 457 149 457 149 440.5 113 c 128,-1,37
 424 77 424 77 396 50 c 128,-1,38
 368 23 368 23 330 7.5 c 128,-1,39
 292 -8 292 -8 249 -8 c 0,40,41
 205 -8 205 -8 167 7.5 c 128,-1,42
 129 23 129 23 100.5 51 c 128,-1,43
 72 79 72 79 55.5 117 c 128,-1,44
 39 155 39 155 39 200 c 0,0,1
94 200 m 256,45,46
 94 168 94 168 106 140 c 128,-1,47
 118 112 118 112 139 91 c 128,-1,48
 160 70 160 70 188 58 c 128,-1,49
 216 46 216 46 248 46 c 256,50,51
 280 46 280 46 308.5 58 c 128,-1,52
 337 70 337 70 358 91 c 128,-1,53
 379 112 379 112 391 140 c 128,-1,54
 403 168 403 168 403 200 c 256,55,56
 403 232 403 232 391 260.5 c 128,-1,57
 379 289 379 289 358 310 c 128,-1,58
 337 331 337 331 308.5 343 c 128,-1,59
 280 355 280 355 248 355 c 256,60,61
 216 355 216 355 188 343 c 128,-1,62
 160 331 160 331 139 310 c 128,-1,63
 118 289 118 289 106 260.5 c 128,-1,64
 94 232 94 232 94 200 c 256,45,46
EndSplineSet
EndChar

StartChar: Thorn
Encoding: 222 222 156
Width: 539
Flags: W
LayerCount: 2
Back
Fore
SplineSet
103 0 m 1,0,-1
 103 706 l 1,1,-1
 171 706 l 1,2,-1
 171 567 l 1,3,-1
 276 567 l 2,4,5
 321 567 321 567 363 554.5 c 128,-1,6
 405 542 405 542 437.5 516 c 128,-1,7
 470 490 470 490 489.5 451 c 128,-1,8
 509 412 509 412 509 358 c 0,9,10
 509 317 509 317 496 277.5 c 128,-1,11
 483 238 483 238 455.5 207.5 c 128,-1,12
 428 177 428 177 384 158 c 128,-1,13
 340 139 340 139 278 139 c 2,14,-1
 171 139 l 1,15,-1
 171 0 l 1,16,-1
 103 0 l 1,0,-1
171 204 m 1,17,-1
 277 204 l 2,18,19
 325 204 325 204 357 219.5 c 128,-1,20
 389 235 389 235 407.5 258.5 c 128,-1,21
 426 282 426 282 433.5 308.5 c 128,-1,22
 441 335 441 335 441 357 c 0,23,24
 441 384 441 384 430.5 410.5 c 128,-1,25
 420 437 420 437 400 457.5 c 128,-1,26
 380 478 380 478 349 490.5 c 128,-1,27
 318 503 318 503 278 503 c 2,28,-1
 171 503 l 1,29,-1
 171 204 l 1,17,-1
EndSplineSet
EndChar

StartChar: Acircumflex
Encoding: 194 194 157
Width: 645
Flags: W
LayerCount: 2
Back
Fore
SplineSet
632 0 m 1,0,1
 616 36 616 36 591.5 95.5 c 128,-1,2
 567 155 567 155 538 226 c 128,-1,3
 509 297 509 297 477.5 373.5 c 128,-1,4
 446 450 446 450 417 521 c 128,-1,5
 388 592 388 592 363 651 c 128,-1,6
 338 710 338 710 323 747 c 1,7,8
 307 710 307 710 282.5 651 c 128,-1,9
 258 592 258 592 229 521 c 128,-1,10
 200 450 200 450 169 373.5 c 128,-1,11
 138 297 138 297 109 226 c 128,-1,12
 80 155 80 155 55 95.5 c 128,-1,13
 30 36 30 36 15 0 c 1,14,-1
 83 0 l 1,15,16
 103 46 103 46 130 113 c 128,-1,17
 157 180 157 180 186 255 c 1,18,-1
 460 255 l 1,19,20
 489 180 489 180 516 113 c 128,-1,21
 543 46 543 46 563 0 c 1,22,-1
 632 0 l 1,0,1
313 572 m 0,23,24
 315 576 315 576 318 585.5 c 128,-1,25
 321 595 321 595 323 603 c 1,26,27
 325 595 325 595 328 585.5 c 128,-1,28
 331 576 331 576 333 572 c 0,29,30
 353 525 353 525 380 457 c 128,-1,31
 407 389 407 389 437 314 c 1,32,-1
 209 314 l 1,33,34
 238 389 238 389 265.5 457 c 128,-1,35
 293 525 293 525 313 572 c 0,23,24
349 942 m 1,36,37
 379 897 379 897 409 851 c 128,-1,38
 439 805 439 805 470 760 c 1,39,-1
 426 760 l 1,40,41
 418 772 418 772 408 786 c 128,-1,42
 398 800 398 800 387.5 815 c 128,-1,43
 377 830 377 830 367 844.5 c 128,-1,44
 357 859 357 859 349 870 c 1,45,46
 341 859 341 859 331 844.5 c 128,-1,47
 321 830 321 830 310 815 c 128,-1,48
 299 800 299 800 289 786 c 128,-1,49
 279 772 279 772 271 760 c 1,50,-1
 228 760 l 1,51,-1
 349 942 l 1,36,37
EndSplineSet
EndChar

StartChar: Ecircumflex
Encoding: 202 202 158
Width: 612
Flags: W
LayerCount: 2
Back
Fore
SplineSet
103 0 m 1,0,-1
 103 714 l 1,1,-1
 553 714 l 1,2,-1
 553 652 l 1,3,-1
 171 652 l 1,4,-1
 171 391 l 1,5,-1
 513 391 l 1,6,-1
 513 327 l 1,7,-1
 171 327 l 1,8,-1
 171 64 l 1,9,-1
 567 64 l 1,10,-1
 567 0 l 1,11,-1
 103 0 l 1,0,-1
336 942 m 1,12,13
 366 897 366 897 396 851 c 128,-1,14
 426 805 426 805 457 760 c 1,15,-1
 413 760 l 1,16,17
 405 772 405 772 395 786 c 128,-1,18
 385 800 385 800 374.5 815 c 128,-1,19
 364 830 364 830 354 844.5 c 128,-1,20
 344 859 344 859 336 870 c 1,21,22
 328 859 328 859 318 844.5 c 128,-1,23
 308 830 308 830 297 815 c 128,-1,24
 286 800 286 800 276 786 c 128,-1,25
 266 772 266 772 258 760 c 1,26,-1
 215 760 l 1,27,-1
 336 942 l 1,12,13
EndSplineSet
EndChar

StartChar: Icircumflex
Encoding: 206 206 159
Width: 273
Flags: W
LayerCount: 2
Back
Fore
SplineSet
102 714 m 1,0,-1
 171 714 l 1,1,-1
 171 0 l 1,2,-1
 102 0 l 1,3,-1
 102 714 l 1,0,-1
138 942 m 1,4,5
 168 897 168 897 198 851 c 128,-1,6
 228 805 228 805 259 760 c 1,7,-1
 215 760 l 1,8,9
 207 772 207 772 197 786 c 128,-1,10
 187 800 187 800 176.5 815 c 128,-1,11
 166 830 166 830 156 844.5 c 128,-1,12
 146 859 146 859 138 870 c 1,13,14
 130 859 130 859 120 844.5 c 128,-1,15
 110 830 110 830 99 815 c 128,-1,16
 88 800 88 800 78 786 c 128,-1,17
 68 772 68 772 60 760 c 1,18,-1
 17 760 l 1,19,-1
 138 942 l 1,4,5
EndSplineSet
EndChar

StartChar: Ocircumflex
Encoding: 212 212 160
Width: 827
Flags: W
LayerCount: 2
Back
Fore
SplineSet
49 356 m 256,0,1
 49 431 49 431 77.5 497.5 c 128,-1,2
 106 564 106 564 155.5 614 c 128,-1,3
 205 664 205 664 271.5 693 c 128,-1,4
 338 722 338 722 413 722 c 256,5,6
 488 722 488 722 555 693 c 128,-1,7
 622 664 622 664 671.5 614 c 128,-1,8
 721 564 721 564 750 497.5 c 128,-1,9
 779 431 779 431 779 356 c 256,10,11
 779 281 779 281 750 214.5 c 128,-1,12
 721 148 721 148 671.5 98.5 c 128,-1,13
 622 49 622 49 555 20.5 c 128,-1,14
 488 -8 488 -8 413 -8 c 256,15,16
 338 -8 338 -8 271.5 20.5 c 128,-1,17
 205 49 205 49 155.5 98.5 c 128,-1,18
 106 148 106 148 77.5 214.5 c 128,-1,19
 49 281 49 281 49 356 c 256,0,1
117 356 m 256,20,21
 117 294 117 294 140.5 239.5 c 128,-1,22
 164 185 164 185 204 144.5 c 128,-1,23
 244 104 244 104 298 80.5 c 128,-1,24
 352 57 352 57 413 57 c 256,25,26
 474 57 474 57 528.5 80.5 c 128,-1,27
 583 104 583 104 623.5 144.5 c 128,-1,28
 664 185 664 185 687.5 239.5 c 128,-1,29
 711 294 711 294 711 356 c 256,30,31
 711 418 711 418 687.5 472.5 c 128,-1,32
 664 527 664 527 623.5 568 c 128,-1,33
 583 609 583 609 528.5 632.5 c 128,-1,34
 474 656 474 656 413 656 c 0,35,36
 351 656 351 656 297.5 632.5 c 128,-1,37
 244 609 244 609 203.5 568 c 128,-1,38
 163 527 163 527 140 472.5 c 128,-1,39
 117 418 117 418 117 356 c 256,20,21
411 942 m 1,40,41
 441 897 441 897 471 851 c 128,-1,42
 501 805 501 805 532 760 c 1,43,-1
 488 760 l 1,44,45
 480 772 480 772 470 786 c 128,-1,46
 460 800 460 800 449.5 815 c 128,-1,47
 439 830 439 830 429 844.5 c 128,-1,48
 419 859 419 859 411 870 c 1,49,50
 403 859 403 859 393 844.5 c 128,-1,51
 383 830 383 830 372 815 c 128,-1,52
 361 800 361 800 351 786 c 128,-1,53
 341 772 341 772 333 760 c 1,54,-1
 290 760 l 1,55,-1
 411 942 l 1,40,41
EndSplineSet
EndChar

StartChar: Ucircumflex
Encoding: 219 219 161
Width: 695
Flags: W
LayerCount: 2
Back
Fore
SplineSet
348 -8 m 0,0,1
 294 -8 294 -8 247.5 9.5 c 128,-1,2
 201 27 201 27 167 59 c 128,-1,3
 133 91 133 91 113.5 137.5 c 128,-1,4
 94 184 94 184 94 243 c 2,5,-1
 94 714 l 1,6,-1
 162 714 l 1,7,-1
 162 246 l 2,8,9
 162 203 162 203 176 168 c 128,-1,10
 190 133 190 133 215 108.5 c 128,-1,11
 240 84 240 84 274 70.5 c 128,-1,12
 308 57 308 57 348 57 c 0,13,14
 387 57 387 57 421 70.5 c 128,-1,15
 455 84 455 84 480 108.5 c 128,-1,16
 505 133 505 133 519.5 168 c 128,-1,17
 534 203 534 203 534 246 c 2,18,-1
 534 714 l 1,19,-1
 602 714 l 1,20,-1
 602 243 l 2,21,22
 602 184 602 184 582.5 137.5 c 128,-1,23
 563 91 563 91 528.5 59 c 128,-1,24
 494 27 494 27 447.5 9.5 c 128,-1,25
 401 -8 401 -8 348 -8 c 0,0,1
355 955 m 1,26,27
 385 910 385 910 415 864 c 128,-1,28
 445 818 445 818 476 773 c 1,29,-1
 432 773 l 1,30,31
 424 785 424 785 414 799 c 128,-1,32
 404 813 404 813 393.5 828 c 128,-1,33
 383 843 383 843 373 857.5 c 128,-1,34
 363 872 363 872 355 883 c 1,35,36
 347 872 347 872 337 857.5 c 128,-1,37
 327 843 327 843 316 828 c 128,-1,38
 305 813 305 813 295 799 c 128,-1,39
 285 785 285 785 277 773 c 1,40,-1
 234 773 l 1,41,-1
 355 955 l 1,26,27
EndSplineSet
EndChar

StartChar: plusminus
Encoding: 177 177 162
Width: 520
Flags: W
LayerCount: 2
Back
Fore
SplineSet
231 213 m 1,0,-1
 231 366 l 1,1,-1
 79 366 l 1,2,-1
 79 423 l 1,3,-1
 231 423 l 1,4,-1
 231 575 l 1,5,-1
 290 575 l 1,6,-1
 290 423 l 1,7,-1
 442 423 l 1,8,-1
 442 366 l 1,9,-1
 290 366 l 1,10,-1
 290 213 l 1,11,-1
 231 213 l 1,0,-1
442 106 m 1,12,-1
 79 106 l 1,13,-1
 79 163 l 1,14,-1
 442 163 l 1,15,-1
 442 106 l 1,12,-1
EndSplineSet
EndChar

StartChar: dollar
Encoding: 36 36 163
Width: 551
Flags: W
LayerCount: 2
Back
Fore
SplineSet
479 677 m 1,0,-1
 454 622 l 1,1,2
 419 636 419 636 377 645.5 c 128,-1,3
 335 655 335 655 296 656 c 1,4,-1
 296 413 l 1,5,6
 333 399 333 399 371 382.5 c 128,-1,7
 409 366 409 366 440 342 c 128,-1,8
 471 318 471 318 490 283.5 c 128,-1,9
 509 249 509 249 509 198 c 0,10,11
 509 110 509 110 451 56.5 c 128,-1,12
 393 3 393 3 296 -6 c 1,13,-1
 296 -68 l 1,14,-1
 254 -68 l 1,15,-1
 254 -8 l 1,16,17
 212 -8 212 -8 177.5 0 c 128,-1,18
 143 8 143 8 115.5 18.5 c 128,-1,19
 88 29 88 29 68.5 40 c 128,-1,20
 49 51 49 51 38 58 c 1,21,-1
 69 118 l 1,22,23
 104 95 104 95 154.5 77.5 c 128,-1,24
 205 60 205 60 254 59 c 1,25,-1
 254 362 l 1,26,27
 219 375 219 375 186.5 389 c 128,-1,28
 154 403 154 403 128.5 423 c 128,-1,29
 103 443 103 443 87.5 470 c 128,-1,30
 72 497 72 497 72 535 c 0,31,32
 72 568 72 568 84.5 598.5 c 128,-1,33
 97 629 97 629 120.5 653.5 c 128,-1,34
 144 678 144 678 177.5 694.5 c 128,-1,35
 211 711 211 711 254 716 c 1,36,-1
 254 780 l 1,37,-1
 296 780 l 1,38,-1
 296 718 l 1,39,40
 323 717 323 717 351.5 712.5 c 128,-1,41
 380 708 380 708 404.5 701.5 c 128,-1,42
 429 695 429 695 448.5 688.5 c 128,-1,43
 468 682 468 682 479 677 c 1,0,-1
442 199 m 0,44,45
 442 229 442 229 430 251.5 c 128,-1,46
 418 274 418 274 398 291.5 c 128,-1,47
 378 309 378 309 351.5 322 c 128,-1,48
 325 335 325 335 296 346 c 1,49,-1
 296 62 l 1,50,51
 321 66 321 66 347 76 c 128,-1,52
 373 86 373 86 394 102.5 c 128,-1,53
 415 119 415 119 428.5 143 c 128,-1,54
 442 167 442 167 442 199 c 0,44,45
140 541 m 0,55,56
 140 519 140 519 149 502.5 c 128,-1,57
 158 486 158 486 173 472.5 c 128,-1,58
 188 459 188 459 209 448.5 c 128,-1,59
 230 438 230 438 254 429 c 1,60,-1
 254 652 l 1,61,62
 200 643 200 643 170 612 c 128,-1,63
 140 581 140 581 140 541 c 0,55,56
EndSplineSet
EndChar

StartChar: cent
Encoding: 162 162 164
Width: 428
Flags: W
LayerCount: 2
Back
Fore
SplineSet
349 79 m 1,0,-1
 383 38 l 1,1,2
 357 17 357 17 324.5 5 c 128,-1,3
 292 -7 292 -7 256 -8 c 1,4,-1
 256 -68 l 1,5,-1
 214 -68 l 1,6,-1
 214 -5 l 1,7,8
 177 1 177 1 145 19.5 c 128,-1,9
 113 38 113 38 90 65 c 128,-1,10
 67 92 67 92 53.5 126.5 c 128,-1,11
 40 161 40 161 40 200 c 256,12,13
 40 239 40 239 53.5 273.5 c 128,-1,14
 67 308 67 308 90 335.5 c 128,-1,15
 113 363 113 363 145 381.5 c 128,-1,16
 177 400 177 400 214 406 c 1,17,-1
 214 465 l 1,18,-1
 256 465 l 1,19,-1
 256 409 l 1,20,21
 293 408 293 408 325.5 396 c 128,-1,22
 358 384 358 384 384 363 c 1,23,24
 376 352 376 352 367 342.5 c 128,-1,25
 358 333 358 333 349 322 c 1,26,27
 310 353 310 353 256 355 c 1,28,-1
 256 46 l 1,29,30
 310 47 310 47 349 79 c 1,0,-1
95 200 m 0,31,32
 95 144 95 144 128 103 c 128,-1,33
 161 62 161 62 214 50 c 1,34,-1
 214 351 l 1,35,36
 161 339 161 339 128 298 c 128,-1,37
 95 257 95 257 95 200 c 0,31,32
EndSplineSet
EndChar

StartChar: bullet
Encoding: 8226 8226 165
Width: 376
Flags: W
LayerCount: 2
Back
Fore
SplineSet
83 302 m 256,0,1
 83 324 83 324 91 343.5 c 128,-1,2
 99 363 99 363 113.5 377.5 c 128,-1,3
 128 392 128 392 147 400.5 c 128,-1,4
 166 409 166 409 188 409 c 256,5,6
 210 409 210 409 229.5 400.5 c 128,-1,7
 249 392 249 392 263 377.5 c 128,-1,8
 277 363 277 363 285.5 343.5 c 128,-1,9
 294 324 294 324 294 302 c 256,10,11
 294 280 294 280 285.5 261 c 128,-1,12
 277 242 277 242 263 228 c 128,-1,13
 249 214 249 214 229.5 206 c 128,-1,14
 210 198 210 198 188 198 c 256,15,16
 166 198 166 198 147 206 c 128,-1,17
 128 214 128 214 113.5 228 c 128,-1,18
 99 242 99 242 91 261 c 128,-1,19
 83 280 83 280 83 302 c 256,0,1
EndSplineSet
EndChar

StartChar: quotedblleft
Encoding: 8220 8220 166
Width: 288
Flags: W
LayerCount: 2
Back
Fore
SplineSet
132 595 m 1,0,-1
 103 573 l 1,1,2
 74 600 74 600 62 637.5 c 128,-1,3
 50 675 50 675 58 717 c 1,4,-1
 98 710 l 1,5,6
 91 675 91 675 101 645 c 128,-1,7
 111 615 111 615 132 595 c 1,0,-1
236 595 m 1,8,9
 223 584 223 584 208 573 c 1,10,11
 179 600 179 600 167 637.5 c 128,-1,12
 155 675 155 675 163 717 c 1,13,-1
 203 710 l 1,14,15
 196 675 196 675 205.5 645 c 128,-1,16
 215 615 215 615 236 595 c 1,8,9
EndSplineSet
EndChar

StartChar: quotedblright
Encoding: 8221 8221 167
Width: 289
Flags: W
LayerCount: 2
Back
Fore
SplineSet
186 573 m 1,0,-1
 158 595 l 1,1,2
 179 615 179 615 188.5 645 c 128,-1,3
 198 675 198 675 191 710 c 1,4,-1
 232 717 l 1,5,6
 240 675 240 675 227.5 637.5 c 128,-1,7
 215 600 215 600 186 573 c 1,0,-1
82 573 m 1,8,-1
 53 595 l 1,9,10
 75 615 75 615 84.5 645 c 128,-1,11
 94 675 94 675 87 710 c 1,12,-1
 127 717 l 1,13,14
 135 675 135 675 123 637.5 c 128,-1,15
 111 600 111 600 82 573 c 1,8,-1
EndSplineSet
EndChar

StartChar: quoteleft
Encoding: 8216 8216 168
Width: 184
Flags: W
LayerCount: 2
Back
Fore
SplineSet
132 595 m 1,0,-1
 104 573 l 1,1,2
 75 600 75 600 62.5 637.5 c 128,-1,3
 50 675 50 675 58 717 c 1,4,-1
 99 710 l 1,5,6
 92 675 92 675 101.5 645 c 128,-1,7
 111 615 111 615 132 595 c 1,0,-1
EndSplineSet
EndChar

StartChar: quotedblbase
Encoding: 8222 8222 169
Width: 299
Flags: W
LayerCount: 2
Back
Fore
SplineSet
178 -51 m 1,0,-1
 149 -29 l 1,1,2
 171 -9 171 -9 180.5 21 c 128,-1,3
 190 51 190 51 183 86 c 1,4,-1
 223 93 l 1,5,6
 231 51 231 51 219 13.5 c 128,-1,7
 207 -24 207 -24 178 -51 c 1,0,-1
73 -51 m 1,8,9
 58 -40 58 -40 45 -29 c 1,10,11
 66 -9 66 -9 75.5 21 c 128,-1,12
 85 51 85 51 78 86 c 1,13,-1
 118 93 l 1,14,15
 126 51 126 51 114 13.5 c 128,-1,16
 102 -24 102 -24 73 -51 c 1,8,9
EndSplineSet
EndChar

StartChar: quotesinglbase
Encoding: 8218 8218 170
Width: 194
Flags: W
LayerCount: 2
Back
Fore
SplineSet
73 -51 m 1,0,1
 58 -40 58 -40 45 -29 c 1,2,3
 66 -9 66 -9 75.5 21 c 128,-1,4
 85 51 85 51 78 86 c 1,5,-1
 118 93 l 1,6,7
 126 51 126 51 114 13.5 c 128,-1,8
 102 -24 102 -24 73 -51 c 1,0,1
EndSplineSet
EndChar

StartChar: guilsinglright
Encoding: 8250 8250 171
Width: 279
Flags: W
LayerCount: 2
Back
Fore
SplineSet
64 128 m 1,0,1
 74 139 74 139 87.5 154 c 128,-1,2
 101 169 101 169 114.5 185 c 128,-1,3
 128 201 128 201 141.5 215.5 c 128,-1,4
 155 230 155 230 166 241 c 1,5,6
 155 252 155 252 141.5 266.5 c 128,-1,7
 128 281 128 281 114.5 296.5 c 128,-1,8
 101 312 101 312 87.5 326.5 c 128,-1,9
 74 341 74 341 64 352 c 1,10,-1
 64 419 l 1,11,12
 77 407 77 407 100.5 382 c 128,-1,13
 124 357 124 357 150 330 c 128,-1,14
 176 303 176 303 199.5 278 c 128,-1,15
 223 253 223 253 236 241 c 1,16,-1
 64 62 l 1,17,-1
 64 128 l 1,0,1
EndSplineSet
EndChar

StartChar: guillemotleft
Encoding: 171 171 172
Width: 452
Flags: W
LayerCount: 2
Back
Fore
SplineSet
389 62 m 1,0,-1
 216 241 l 1,1,2
 229 253 229 253 252.5 278 c 128,-1,3
 276 303 276 303 302 330 c 128,-1,4
 328 357 328 357 352 382 c 128,-1,5
 376 407 376 407 389 419 c 1,6,-1
 389 353 l 1,7,8
 378 342 378 342 364.5 327.5 c 128,-1,9
 351 313 351 313 337.5 297 c 128,-1,10
 324 281 324 281 310.5 266.5 c 128,-1,11
 297 252 297 252 287 241 c 1,12,13
 297 230 297 230 310.5 215.5 c 128,-1,14
 324 201 324 201 337.5 185 c 128,-1,15
 351 169 351 169 364.5 154 c 128,-1,16
 378 139 378 139 389 128 c 1,17,-1
 389 62 l 1,0,-1
216 62 m 1,18,-1
 44 241 l 1,19,20
 57 253 57 253 80.5 278 c 128,-1,21
 104 303 104 303 130 330 c 128,-1,22
 156 357 156 357 179.5 382 c 128,-1,23
 203 407 203 407 216 419 c 1,24,-1
 216 352 l 1,25,26
 205 341 205 341 192 326.5 c 128,-1,27
 179 312 179 312 165.5 296.5 c 128,-1,28
 152 281 152 281 138.5 266.5 c 128,-1,29
 125 252 125 252 114 241 c 1,30,31
 125 230 125 230 138.5 215.5 c 128,-1,32
 152 201 152 201 165.5 185 c 128,-1,33
 179 169 179 169 192 154 c 128,-1,34
 205 139 205 139 216 128 c 1,35,-1
 216 62 l 1,18,-1
EndSplineSet
EndChar

StartChar: guillemotright
Encoding: 187 187 173
Width: 452
Flags: W
LayerCount: 2
Back
Fore
SplineSet
64 128 m 1,0,1
 75 139 75 139 88.5 154 c 128,-1,2
 102 169 102 169 115.5 185 c 128,-1,3
 129 201 129 201 142 215.5 c 128,-1,4
 155 230 155 230 166 241 c 1,5,6
 155 252 155 252 142 266.5 c 128,-1,7
 129 281 129 281 115.5 297 c 128,-1,8
 102 313 102 313 88.5 327.5 c 128,-1,9
 75 342 75 342 64 353 c 1,10,-1
 64 419 l 1,11,12
 77 407 77 407 101 382 c 128,-1,13
 125 357 125 357 151 330 c 128,-1,14
 177 303 177 303 200.5 278 c 128,-1,15
 224 253 224 253 237 241 c 1,16,-1
 64 62 l 1,17,-1
 64 128 l 1,0,1
237 128 m 1,18,19
 247 139 247 139 260.5 154 c 128,-1,20
 274 169 274 169 287.5 185 c 128,-1,21
 301 201 301 201 314.5 215.5 c 128,-1,22
 328 230 328 230 339 241 c 1,23,24
 328 252 328 252 314.5 266.5 c 128,-1,25
 301 281 301 281 287.5 296.5 c 128,-1,26
 274 312 274 312 260.5 326.5 c 128,-1,27
 247 341 247 341 237 352 c 1,28,-1
 237 419 l 1,29,30
 250 407 250 407 273.5 382 c 128,-1,31
 297 357 297 357 323 330 c 128,-1,32
 349 303 349 303 372.5 278 c 128,-1,33
 396 253 396 253 409 241 c 1,34,-1
 237 62 l 1,35,-1
 237 128 l 1,18,19
EndSplineSet
EndChar

StartChar: yen
Encoding: 165 165 174
Width: 661
Flags: W
LayerCount: 2
Back
Fore
SplineSet
366 249 m 1,0,-1
 366 141 l 1,1,-1
 498 141 l 1,2,-1
 498 100 l 1,3,-1
 366 100 l 1,4,-1
 366 0 l 1,5,-1
 297 0 l 1,6,-1
 297 100 l 1,7,-1
 165 100 l 1,8,-1
 165 141 l 1,9,-1
 297 141 l 1,10,-1
 297 249 l 1,11,-1
 288 263 l 1,12,-1
 165 263 l 1,13,-1
 165 304 l 1,14,-1
 264 304 l 1,15,16
 247 334 247 334 226 370.5 c 128,-1,17
 205 407 205 407 182.5 446.5 c 128,-1,18
 160 486 160 486 138 526 c 128,-1,19
 116 566 116 566 95.5 601.5 c 128,-1,20
 75 637 75 637 58.5 666.5 c 128,-1,21
 42 696 42 696 31 714 c 1,22,-1
 108 714 l 1,23,24
 126 684 126 684 152 638 c 128,-1,25
 178 592 178 592 207.5 540.5 c 128,-1,26
 237 489 237 489 266.5 436 c 128,-1,27
 296 383 296 383 320 339 c 1,28,-1
 332 309 l 1,29,-1
 344 339 l 1,30,31
 369 383 369 383 398 436 c 128,-1,32
 427 489 427 489 455.5 540.5 c 128,-1,33
 484 592 484 592 509.5 638 c 128,-1,34
 535 684 535 684 553 714 c 1,35,-1
 631 714 l 1,36,-1
 397 304 l 1,37,-1
 498 304 l 1,38,-1
 498 263 l 1,39,-1
 374 263 l 1,40,-1
 366 249 l 1,0,-1
EndSplineSet
EndChar

StartChar: copyright
Encoding: 169 169 175
Width: 645
Flags: W
LayerCount: 2
Back
Fore
SplineSet
322 138 m 0,0,1
 371 138 371 138 414 155.5 c 128,-1,2
 457 173 457 173 488.5 204.5 c 128,-1,3
 520 236 520 236 538.5 278.5 c 128,-1,4
 557 321 557 321 557 371 c 0,5,6
 557 422 557 422 538.5 465 c 128,-1,7
 520 508 520 508 488.5 539.5 c 128,-1,8
 457 571 457 571 414 589 c 128,-1,9
 371 607 371 607 322 607 c 0,10,11
 274 607 274 607 231.5 589 c 128,-1,12
 189 571 189 571 157.5 539.5 c 128,-1,13
 126 508 126 508 107.5 465 c 128,-1,14
 89 422 89 422 89 371 c 0,15,16
 89 321 89 321 107.5 278.5 c 128,-1,17
 126 236 126 236 157.5 204.5 c 128,-1,18
 189 173 189 173 231.5 155.5 c 128,-1,19
 274 138 274 138 322 138 c 0,0,1
323 115 m 256,20,21
 269 115 269 115 222 134.5 c 128,-1,22
 175 154 175 154 140 188.5 c 128,-1,23
 105 223 105 223 85 270 c 128,-1,24
 65 317 65 317 65 372 c 0,25,26
 65 428 65 428 85 475 c 128,-1,27
 105 522 105 522 140 556.5 c 128,-1,28
 175 591 175 591 222 610.5 c 128,-1,29
 269 630 269 630 323 630 c 256,30,31
 377 630 377 630 424 610.5 c 128,-1,32
 471 591 471 591 506 556.5 c 128,-1,33
 541 522 541 522 561 475 c 128,-1,34
 581 428 581 428 581 372 c 0,35,36
 581 317 581 317 561 270 c 128,-1,37
 541 223 541 223 506 188.5 c 128,-1,38
 471 154 471 154 424 134.5 c 128,-1,39
 377 115 377 115 323 115 c 256,20,21
422 235 m 1,40,41
 408 226 408 226 384 217.5 c 128,-1,42
 360 209 360 209 328 209 c 0,43,44
 291 209 291 209 261 222 c 128,-1,45
 231 235 231 235 209.5 257.5 c 128,-1,46
 188 280 188 280 176.5 309.5 c 128,-1,47
 165 339 165 339 165 372 c 0,48,49
 165 408 165 408 178 438.5 c 128,-1,50
 191 469 191 469 214 491.5 c 128,-1,51
 237 514 237 514 267 527 c 128,-1,52
 297 540 297 540 332 540 c 0,53,54
 357 540 357 540 380 533.5 c 128,-1,55
 403 527 403 527 417 517 c 1,56,57
 412 510 412 510 410.5 506.5 c 128,-1,58
 409 503 409 503 403 493 c 1,59,60
 389 502 389 502 369.5 506.5 c 128,-1,61
 350 511 350 511 333 511 c 0,62,63
 304 511 304 511 279 500 c 128,-1,64
 254 489 254 489 236 470.5 c 128,-1,65
 218 452 218 452 207.5 427 c 128,-1,66
 197 402 197 402 197 375 c 256,67,68
 197 348 197 348 206.5 324 c 128,-1,69
 216 300 216 300 233.5 281.5 c 128,-1,70
 251 263 251 263 275 252 c 128,-1,71
 299 241 299 241 329 241 c 0,72,73
 355 241 355 241 377 248.5 c 128,-1,74
 399 256 399 256 408 263 c 1,75,-1
 422 235 l 1,40,41
EndSplineSet
EndChar

StartChar: registered
Encoding: 174 174 176
Width: 645
Flags: W
LayerCount: 2
Back
Fore
SplineSet
323 115 m 256,0,1
 269 115 269 115 222 134.5 c 128,-1,2
 175 154 175 154 140 188.5 c 128,-1,3
 105 223 105 223 85 270 c 128,-1,4
 65 317 65 317 65 372 c 0,5,6
 65 428 65 428 85 475 c 128,-1,7
 105 522 105 522 140 556.5 c 128,-1,8
 175 591 175 591 222 610.5 c 128,-1,9
 269 630 269 630 323 630 c 256,10,11
 377 630 377 630 424 610.5 c 128,-1,12
 471 591 471 591 506 556.5 c 128,-1,13
 541 522 541 522 561 475 c 128,-1,14
 581 428 581 428 581 372 c 0,15,16
 581 317 581 317 561 270 c 128,-1,17
 541 223 541 223 506 188.5 c 128,-1,18
 471 154 471 154 424 134.5 c 128,-1,19
 377 115 377 115 323 115 c 256,0,1
322 138 m 0,20,21
 371 138 371 138 414 155.5 c 128,-1,22
 457 173 457 173 488.5 204.5 c 128,-1,23
 520 236 520 236 538.5 278.5 c 128,-1,24
 557 321 557 321 557 371 c 0,25,26
 557 422 557 422 538.5 465 c 128,-1,27
 520 508 520 508 488.5 539.5 c 128,-1,28
 457 571 457 571 414 589 c 128,-1,29
 371 607 371 607 322 607 c 0,30,31
 274 607 274 607 231.5 589 c 128,-1,32
 189 571 189 571 157.5 539.5 c 128,-1,33
 126 508 126 508 107.5 465 c 128,-1,34
 89 422 89 422 89 371 c 0,35,36
 89 321 89 321 107.5 278.5 c 128,-1,37
 126 236 126 236 157.5 204.5 c 128,-1,38
 189 173 189 173 231.5 155.5 c 128,-1,39
 274 138 274 138 322 138 c 0,20,21
236 210 m 1,40,-1
 236 548 l 1,41,-1
 318 548 l 2,42,43
 339 548 339 548 359 542 c 128,-1,44
 379 536 379 536 394 523.5 c 128,-1,45
 409 511 409 511 418.5 492.5 c 128,-1,46
 428 474 428 474 428 449 c 0,47,48
 428 420 428 420 415 394.5 c 128,-1,49
 402 369 402 369 373 355 c 1,50,51
 379 344 379 344 391.5 324 c 128,-1,52
 404 304 404 304 417.5 282 c 128,-1,53
 431 260 431 260 443.5 240 c 128,-1,54
 456 220 456 220 462 210 c 1,55,-1
 423 210 l 1,56,57
 418 218 418 218 407 236 c 128,-1,58
 396 254 396 254 384 274 c 128,-1,59
 372 294 372 294 360 314 c 128,-1,60
 348 334 348 334 340 346 c 1,61,62
 335 345 335 345 329.5 345 c 128,-1,63
 324 345 324 345 319 345 c 2,64,-1
 268 345 l 1,65,-1
 268 210 l 1,66,-1
 236 210 l 1,40,-1
268 376 m 1,67,-1
 318 376 l 2,68,69
 341 376 341 376 356 383.5 c 128,-1,70
 371 391 371 391 380 402 c 128,-1,71
 389 413 389 413 392.5 425.5 c 128,-1,72
 396 438 396 438 396 449 c 0,73,74
 396 475 396 475 376.5 496 c 128,-1,75
 357 517 357 517 319 517 c 2,76,-1
 268 517 l 1,77,-1
 268 376 l 1,67,-1
EndSplineSet
EndChar

StartChar: divide
Encoding: 247 247 177
Width: 503
Flags: W
LayerCount: 2
Back
Fore
SplineSet
433 209 m 1,0,-1
 70 209 l 1,1,-1
 70 266 l 1,2,-1
 433 266 l 1,3,-1
 433 209 l 1,0,-1
214 376 m 0,4,5
 214 393 214 393 226.5 405 c 128,-1,6
 239 417 239 417 255 417 c 0,7,8
 270 417 270 417 282.5 405 c 128,-1,9
 295 393 295 393 295 376 c 0,10,11
 295 358 295 358 282.5 346.5 c 128,-1,12
 270 335 270 335 255 335 c 0,13,14
 239 335 239 335 226.5 346.5 c 128,-1,15
 214 358 214 358 214 376 c 0,4,5
214 100 m 0,16,17
 214 117 214 117 226.5 129 c 128,-1,18
 239 141 239 141 255 141 c 0,19,20
 270 141 270 141 282.5 129 c 128,-1,21
 295 117 295 117 295 100 c 0,22,23
 295 82 295 82 282.5 70.5 c 128,-1,24
 270 59 270 59 255 59 c 0,25,26
 239 59 239 59 226.5 70.5 c 128,-1,27
 214 82 214 82 214 100 c 0,16,17
EndSplineSet
EndChar

StartChar: onehalf
Encoding: 189 189 178
Width: 833
Flags: W
LayerCount: 2
Back
Fore
SplineSet
592 40 m 1,0,-1
 796 40 l 1,1,-1
 796 0 l 1,2,-1
 491 0 l 1,3,4
 536 44 536 44 578 86.5 c 128,-1,5
 620 129 620 129 653 169 c 128,-1,6
 686 209 686 209 705.5 246 c 128,-1,7
 725 283 725 283 725 316 c 0,8,9
 725 347 725 347 715.5 368.5 c 128,-1,10
 706 390 706 390 691.5 403.5 c 128,-1,11
 677 417 677 417 660 423 c 128,-1,12
 643 429 643 429 628 429 c 0,13,14
 598 429 598 429 578.5 418.5 c 128,-1,15
 559 408 559 408 548 392.5 c 128,-1,16
 537 377 537 377 532.5 359.5 c 128,-1,17
 528 342 528 342 528 328 c 0,18,19
 528 304 528 304 535.5 284.5 c 128,-1,20
 543 265 543 265 557 251 c 1,21,-1
 532 227 l 1,22,23
 511 243 511 243 499 272 c 128,-1,24
 487 301 487 301 487 328 c 0,25,26
 487 357 487 357 496 382.5 c 128,-1,27
 505 408 505 408 523 427.5 c 128,-1,28
 541 447 541 447 567.5 458 c 128,-1,29
 594 469 594 469 628 469 c 0,30,31
 659 469 659 469 684.5 457.5 c 128,-1,32
 710 446 710 446 728.5 426.5 c 128,-1,33
 747 407 747 407 757 381 c 128,-1,34
 767 355 767 355 767 325 c 0,35,36
 767 287 767 287 751.5 250.5 c 128,-1,37
 736 214 736 214 711 179 c 128,-1,38
 686 144 686 144 654.5 109 c 128,-1,39
 623 74 623 74 592 40 c 1,0,-1
197 -19 m 1,40,-1
 477 741 l 1,41,-1
 536 741 l 1,42,43
 465 550 465 550 396 361.5 c 128,-1,44
 327 173 327 173 256 -19 c 1,45,-1
 197 -19 l 1,40,-1
39 658 m 1,46,-1
 39 699 l 1,47,-1
 142 699 l 1,48,-1
 142 234 l 1,49,-1
 99 234 l 1,50,-1
 99 658 l 1,51,-1
 39 658 l 1,46,-1
EndSplineSet
EndChar

StartChar: onequarter
Encoding: 188 188 179
Width: 794
Flags: W
LayerCount: 2
Back
Fore
SplineSet
403 130 m 1,0,1
 472 220 472 220 544.5 312 c 128,-1,2
 617 404 617 404 686 494 c 1,3,-1
 686 173 l 1,4,-1
 758 173 l 1,5,-1
 758 130 l 1,6,-1
 686 130 l 1,7,-1
 686 0 l 1,8,-1
 642 0 l 1,9,-1
 642 130 l 1,10,-1
 403 130 l 1,0,1
189 -19 m 1,11,-1
 469 741 l 1,12,-1
 528 741 l 1,13,14
 457 550 457 550 388 361.5 c 128,-1,15
 319 173 319 173 248 -19 c 1,16,-1
 189 -19 l 1,11,-1
41 658 m 1,17,-1
 41 699 l 1,18,-1
 144 699 l 1,19,-1
 144 234 l 1,20,-1
 101 234 l 1,21,-1
 101 658 l 1,22,-1
 41 658 l 1,17,-1
642 375 m 1,23,-1
 487 173 l 1,24,-1
 642 173 l 1,25,-1
 642 375 l 1,23,-1
EndSplineSet
EndChar

StartChar: ordfeminine
Encoding: 170 170 180
Width: 429
Flags: W
LayerCount: 2
Back
Fore
SplineSet
50 449 m 0,0,1
 50 480 50 480 62 507.5 c 128,-1,2
 74 535 74 535 94.5 556 c 128,-1,3
 115 577 115 577 142.5 589 c 128,-1,4
 170 601 170 601 201 601 c 0,5,6
 223 601 223 601 241.5 595 c 128,-1,7
 260 589 260 589 275 579.5 c 128,-1,8
 290 570 290 570 300 558.5 c 128,-1,9
 310 547 310 547 315 535 c 1,10,-1
 318 594 l 1,11,-1
 355 594 l 1,12,-1
 355 306 l 1,13,-1
 315 306 l 1,14,-1
 315 336 l 2,15,16
 315 344 315 344 315.5 351 c 128,-1,17
 316 358 316 358 316 364 c 1,18,19
 305 341 305 341 275.5 320.5 c 128,-1,20
 246 300 246 300 201 300 c 0,21,22
 168 300 168 300 140.5 312 c 128,-1,23
 113 324 113 324 93 344 c 128,-1,24
 73 364 73 364 61.5 391.5 c 128,-1,25
 50 419 50 419 50 449 c 0,0,1
90 451 m 256,26,27
 90 403 90 403 122 371 c 128,-1,28
 154 339 154 339 202 339 c 0,29,30
 226 339 226 339 247 347.5 c 128,-1,31
 268 356 268 356 283 371 c 128,-1,32
 298 386 298 386 306.5 406.5 c 128,-1,33
 315 427 315 427 315 451 c 0,34,35
 315 474 315 474 306.5 494.5 c 128,-1,36
 298 515 298 515 283 530 c 128,-1,37
 268 545 268 545 247 553.5 c 128,-1,38
 226 562 226 562 202 562 c 0,39,40
 154 562 154 562 122 530.5 c 128,-1,41
 90 499 90 499 90 451 c 256,26,27
EndSplineSet
EndChar

StartChar: sterling
Encoding: 163 163 181
Width: 590
Flags: W
LayerCount: 2
Back
Fore
SplineSet
176 57 m 1,0,-1
 377 57 l 2,1,2
 408 57 408 57 429 59.5 c 128,-1,3
 450 62 450 62 462 68 c 128,-1,4
 474 74 474 74 479 84 c 128,-1,5
 484 94 484 94 484 110 c 2,6,-1
 484 159 l 1,7,-1
 543 159 l 1,8,-1
 543 86 l 2,9,10
 543 68 543 68 539.5 52.5 c 128,-1,11
 536 37 536 37 524 25.5 c 128,-1,12
 512 14 512 14 488.5 7 c 128,-1,13
 465 0 465 0 424 0 c 2,14,-1
 42 0 l 1,15,-1
 42 57 l 1,16,-1
 86 57 l 2,17,18
 103 57 103 57 113.5 62 c 128,-1,19
 124 67 124 67 129.5 80 c 128,-1,20
 135 93 135 93 137 116.5 c 128,-1,21
 139 140 139 140 139 176 c 2,22,-1
 139 289 l 1,23,-1
 73 289 l 1,24,-1
 73 346 l 1,25,-1
 139 346 l 1,26,-1
 139 524 l 2,27,28
 139 595 139 595 191.5 635 c 128,-1,29
 244 675 244 675 329 675 c 0,30,31
 399 675 399 675 439.5 649 c 128,-1,32
 480 623 480 623 503 578 c 1,33,-1
 459 553 l 1,34,35
 451 565 451 565 441.5 577 c 128,-1,36
 432 589 432 589 418 598 c 128,-1,37
 404 607 404 607 383 612.5 c 128,-1,38
 362 618 362 618 331 618 c 0,39,40
 260 618 260 618 229 588.5 c 128,-1,41
 198 559 198 559 198 511 c 2,42,-1
 198 346 l 1,43,-1
 320 346 l 1,44,-1
 320 289 l 1,45,-1
 198 289 l 1,46,-1
 198 145 l 2,47,48
 198 116 198 116 194.5 93.5 c 128,-1,49
 191 71 191 71 176 57 c 1,0,-1
EndSplineSet
EndChar

StartChar: onesuperior
Encoding: 185 185 182
Width: 187
Flags: W
LayerCount: 2
Back
Fore
SplineSet
48 676 m 1,0,-1
 48 702 l 1,1,-1
 114 702 l 1,2,-1
 114 401 l 1,3,-1
 87 401 l 1,4,-1
 87 676 l 1,5,-1
 48 676 l 1,0,-1
EndSplineSet
EndChar

StartChar: threequarters
Encoding: 190 190 183
Width: 985
Flags: W
LayerCount: 2
Back
Fore
SplineSet
593 130 m 1,0,1
 662 220 662 220 734.5 312 c 128,-1,2
 807 404 807 404 876 494 c 1,3,-1
 876 173 l 1,4,-1
 949 173 l 1,5,-1
 949 130 l 1,6,-1
 876 130 l 1,7,-1
 876 0 l 1,8,-1
 832 0 l 1,9,-1
 832 130 l 1,10,-1
 593 130 l 1,0,1
356 -19 m 1,11,12
 427 173 427 173 496.5 361.5 c 128,-1,13
 566 550 566 550 636 742 c 1,14,-1
 695 742 l 1,15,16
 624 550 624 550 555 361.5 c 128,-1,17
 486 173 486 173 415 -19 c 1,18,-1
 356 -19 l 1,11,12
115 469 m 1,19,20
 147 520 147 520 182 569 c 128,-1,21
 217 618 217 618 250 668 c 1,22,-1
 65 668 l 1,23,-1
 65 712 l 1,24,-1
 324 712 l 1,25,26
 292 664 292 664 259 617.5 c 128,-1,27
 226 571 226 571 194 523 c 1,28,29
 223 518 223 518 248 504 c 128,-1,30
 273 490 273 490 291.5 469.5 c 128,-1,31
 310 449 310 449 320.5 422 c 128,-1,32
 331 395 331 395 331 364 c 0,33,34
 331 330 331 330 317.5 300.5 c 128,-1,35
 304 271 304 271 281.5 248.5 c 128,-1,36
 259 226 259 226 229 213 c 128,-1,37
 199 200 199 200 165 200 c 0,38,39
 129 200 129 200 98 214.5 c 128,-1,40
 67 229 67 229 44 254 c 1,41,-1
 77 286 l 1,42,43
 93 266 93 266 115 255 c 128,-1,44
 137 244 137 244 164 244 c 0,45,46
 189 244 189 244 211 253.5 c 128,-1,47
 233 263 233 263 249.5 279.5 c 128,-1,48
 266 296 266 296 276 318 c 128,-1,49
 286 340 286 340 286 364 c 0,50,51
 286 389 286 389 276 411.5 c 128,-1,52
 266 434 266 434 249.5 450 c 128,-1,53
 233 466 233 466 211 475.5 c 128,-1,54
 189 485 189 485 164 485 c 0,55,56
 135 485 135 485 115 469 c 1,19,20
832 375 m 1,57,-1
 677 173 l 1,58,-1
 832 173 l 1,59,-1
 832 375 l 1,57,-1
EndSplineSet
EndChar

StartChar: twosuperior
Encoding: 178 178 184
Width: 343
Flags: W
LayerCount: 2
Back
Fore
SplineSet
139 403 m 1,0,-1
 282 403 l 1,1,-1
 282 375 l 1,2,-1
 69 375 l 1,3,4
 100 406 100 406 129.5 435.5 c 128,-1,5
 159 465 159 465 182 492.5 c 128,-1,6
 205 520 205 520 218.5 546 c 128,-1,7
 232 572 232 572 232 596 c 0,8,9
 232 618 232 618 225.5 633 c 128,-1,10
 219 648 219 648 209 657 c 128,-1,11
 199 666 199 666 187 670 c 128,-1,12
 175 674 175 674 165 674 c 0,13,14
 144 674 144 674 130.5 666.5 c 128,-1,15
 117 659 117 659 109 648.5 c 128,-1,16
 101 638 101 638 98 626 c 128,-1,17
 95 614 95 614 95 604 c 0,18,19
 95 572 95 572 115 550 c 1,20,-1
 97 533 l 1,21,22
 83 544 83 544 74.5 564 c 128,-1,23
 66 584 66 584 66 604 c 0,24,25
 66 645 66 645 91.5 673.5 c 128,-1,26
 117 702 117 702 165 702 c 0,27,28
 209 702 209 702 235.5 673 c 128,-1,29
 262 644 262 644 262 602 c 0,30,31
 262 576 262 576 251 550.5 c 128,-1,32
 240 525 240 525 222.5 500 c 128,-1,33
 205 475 205 475 183 451 c 128,-1,34
 161 427 161 427 139 403 c 1,0,-1
EndSplineSet
EndChar

StartChar: paragraph
Encoding: 182 182 185
Width: 539
Flags: W
LayerCount: 2
Back
Fore
SplineSet
260 0 m 1,0,-1
 202 0 l 1,1,-1
 202 426 l 1,2,3
 167 426 167 426 137 439 c 128,-1,4
 107 452 107 452 85 474 c 128,-1,5
 63 496 63 496 50 526 c 128,-1,6
 37 556 37 556 37 591 c 0,7,8
 37 625 37 625 50 655.5 c 128,-1,9
 63 686 63 686 85 708 c 128,-1,10
 107 730 107 730 137 743 c 128,-1,11
 167 756 167 756 202 756 c 2,12,-1
 424 756 l 1,13,-1
 424 0 l 1,14,-1
 366 0 l 1,15,-1
 366 699 l 1,16,-1
 260 699 l 1,17,-1
 260 0 l 1,0,-1
EndSplineSet
EndChar

StartChar: logicalnot
Encoding: 172 172 186
Width: 514
Flags: W
LayerCount: 2
Back
Fore
SplineSet
385 149 m 1,0,-1
 385 204 l 1,1,-1
 81 204 l 1,2,-1
 81 247 l 1,3,-1
 444 247 l 1,4,-1
 444 149 l 1,5,-1
 385 149 l 1,0,-1
EndSplineSet
EndChar

StartChar: threesuperior
Encoding: 179 179 187
Width: 292
Flags: W
LayerCount: 2
Back
Fore
SplineSet
100 548 m 1,0,1
 120 580 120 580 143 611 c 128,-1,2
 166 642 166 642 186 674 c 1,3,-1
 68 674 l 1,4,-1
 68 703 l 1,5,-1
 234 703 l 1,6,-1
 151 582 l 1,7,8
 188 575 188 575 213 548 c 128,-1,9
 238 521 238 521 238 481 c 0,10,11
 238 459 238 459 229.5 440 c 128,-1,12
 221 421 221 421 206.5 406.5 c 128,-1,13
 192 392 192 392 173 384 c 128,-1,14
 154 376 154 376 132 376 c 0,15,16
 109 376 109 376 89 385.5 c 128,-1,17
 69 395 69 395 55 411 c 1,18,-1
 76 431 l 1,19,20
 97 404 97 404 131 404 c 0,21,22
 147 404 147 404 161.5 410.5 c 128,-1,23
 176 417 176 417 186.5 427.5 c 128,-1,24
 197 438 197 438 203 452 c 128,-1,25
 209 466 209 466 209 481 c 0,26,27
 209 513 209 513 186 535.5 c 128,-1,28
 163 558 163 558 131 558 c 0,29,30
 115 558 115 558 100 548 c 1,0,1
EndSplineSet
EndChar

StartChar: brokenbar
Encoding: 166 166 188
Width: 247
Flags: W
LayerCount: 2
Back
Fore
SplineSet
153 -235 m 1,0,-1
 95 -235 l 1,1,-1
 95 118 l 1,2,-1
 153 118 l 1,3,-1
 153 -235 l 1,0,-1
153 353 m 1,4,-1
 95 353 l 1,5,-1
 95 706 l 1,6,-1
 153 706 l 1,7,-1
 153 353 l 1,4,-1
EndSplineSet
EndChar

StartChar: ampersand
Encoding: 38 38 189
Width: 650
Flags: W
LayerCount: 2
Back
Fore
SplineSet
614 0 m 1,0,-1
 548 0 l 2,1,2
 547 0 547 0 528.5 22.5 c 128,-1,3
 510 45 510 45 481 82 c 1,4,5
 450 42 450 42 396.5 17 c 128,-1,6
 343 -8 343 -8 277 -8 c 0,7,8
 226 -8 226 -8 183.5 7.5 c 128,-1,9
 141 23 141 23 110 51 c 128,-1,10
 79 79 79 79 62 116 c 128,-1,11
 45 153 45 153 45 197 c 0,12,13
 45 237 45 237 59.5 272 c 128,-1,14
 74 307 74 307 99 334 c 128,-1,15
 124 361 124 361 158 379.5 c 128,-1,16
 192 398 192 398 230 406 c 1,17,18
 207 437 207 437 191 460 c 128,-1,19
 175 483 175 483 169 495 c 0,20,21
 155 522 155 522 145 547 c 128,-1,22
 135 572 135 572 135 604 c 0,23,24
 135 638 135 638 148.5 666 c 128,-1,25
 162 694 162 694 184.5 713.5 c 128,-1,26
 207 733 207 733 237 743.5 c 128,-1,27
 267 754 267 754 301 754 c 0,28,29
 345 755 345 755 382 741.5 c 128,-1,30
 419 728 419 728 442 713 c 0,31,32
 442 712 442 712 437.5 705.5 c 128,-1,33
 433 699 433 699 427.5 691.5 c 128,-1,34
 422 684 422 684 417.5 678 c 128,-1,35
 413 672 413 672 413 671 c 1,36,37
 393 682 393 682 371 690.5 c 128,-1,38
 349 699 349 699 323 701 c 0,39,40
 298 702 298 702 275 696 c 128,-1,41
 252 690 252 690 234 677 c 128,-1,42
 216 664 216 664 205 644.5 c 128,-1,43
 194 625 194 625 194 599 c 0,44,45
 194 583 194 583 198 568.5 c 128,-1,46
 202 554 202 554 206.5 542.5 c 128,-1,47
 211 531 211 531 215 523.5 c 128,-1,48
 219 516 219 516 220 515 c 2,49,-1
 472 185 l 1,50,-1
 558 410 l 1,51,-1
 617 410 l 1,52,-1
 511 135 l 1,53,-1
 614 0 l 1,0,-1
268 355 m 1,54,55
 238 354 238 354 208 342.5 c 128,-1,56
 178 331 178 331 154 310 c 128,-1,57
 130 289 130 289 115.5 261 c 128,-1,58
 101 233 101 233 101 199 c 0,59,60
 101 162 101 162 116 133.5 c 128,-1,61
 131 105 131 105 155.5 85.5 c 128,-1,62
 180 66 180 66 212.5 56 c 128,-1,63
 245 46 245 46 280 46 c 0,64,65
 305 46 305 46 330.5 52 c 128,-1,66
 356 58 356 58 378 68.5 c 128,-1,67
 400 79 400 79 418 93.5 c 128,-1,68
 436 108 436 108 447 125 c 1,69,70
 405 178 405 178 357.5 238.5 c 128,-1,71
 310 299 310 299 268 355 c 1,54,55
EndSplineSet
EndChar

StartChar: germandbls
Encoding: 223 223 190
Width: 550
Flags: W
LayerCount: 2
Back
Fore
SplineSet
203 14 m 1,0,-1
 227 65 l 1,1,2
 258 48 258 48 296 48 c 0,3,4
 329 48 329 48 357.5 60.5 c 128,-1,5
 386 73 386 73 407.5 94.5 c 128,-1,6
 429 116 429 116 441.5 144.5 c 128,-1,7
 454 173 454 173 454 205 c 256,8,9
 454 237 454 237 441.5 265 c 128,-1,10
 429 293 429 293 407.5 314 c 128,-1,11
 386 335 386 335 357.5 347 c 128,-1,12
 329 359 329 359 297 359 c 2,13,-1
 296 359 l 1,14,-1
 296 416 l 1,15,16
 338 416 338 416 365.5 440.5 c 128,-1,17
 393 465 393 465 393 507 c 0,18,19
 393 546 393 546 365.5 576 c 128,-1,20
 338 606 338 606 284 606 c 0,21,22
 216 606 216 606 184.5 557 c 128,-1,23
 153 508 153 508 153 426 c 2,24,-1
 153 0 l 1,25,-1
 95 0 l 1,26,-1
 95 350 l 1,27,-1
 30 350 l 1,28,-1
 30 407 l 1,29,-1
 95 407 l 1,30,-1
 95 428 l 2,31,32
 95 483 95 483 108.5 526.5 c 128,-1,33
 122 570 122 570 146 600 c 128,-1,34
 170 630 170 630 203.5 646 c 128,-1,35
 237 662 237 662 277 663 c 0,36,37
 323 663 323 663 356 650 c 128,-1,38
 389 637 389 637 410 616 c 128,-1,39
 431 595 431 595 441 568 c 128,-1,40
 451 541 451 541 451 512 c 0,41,42
 451 471 451 471 432 439 c 128,-1,43
 413 407 413 407 377 393 c 1,44,45
 402 387 402 387 426.5 370 c 128,-1,46
 451 353 451 353 470 328 c 128,-1,47
 489 303 489 303 500.5 271.5 c 128,-1,48
 512 240 512 240 512 204 c 0,49,50
 512 160 512 160 495 121.5 c 128,-1,51
 478 83 478 83 448.5 54 c 128,-1,52
 419 25 419 25 379.5 8 c 128,-1,53
 340 -9 340 -9 296 -9 c 0,54,55
 246 -9 246 -9 203 14 c 1,0,-1
EndSplineSet
EndChar

StartChar: currency
Encoding: 164 164 191
Width: 456
Flags: W
LayerCount: 2
Back
Fore
SplineSet
85 361 m 0,0,1
 85 384 85 384 92 405.5 c 128,-1,2
 99 427 99 427 112 444 c 1,3,-1
 80 477 l 1,4,-1
 110 506 l 1,5,-1
 142 474 l 1,6,7
 160 488 160 488 181.5 496 c 128,-1,8
 203 504 203 504 228 504 c 256,9,10
 253 504 253 504 275 495.5 c 128,-1,11
 297 487 297 487 314 473 c 1,12,-1
 346 506 l 1,13,-1
 376 476 l 1,14,-1
 344 445 l 1,15,16
 372 408 372 408 372 361 c 0,17,18
 372 313 372 313 342 275 c 1,19,-1
 376 240 l 1,20,-1
 347 211 l 1,21,-1
 312 245 l 1,22,23
 295 232 295 232 273 225 c 128,-1,24
 251 218 251 218 228 218 c 256,25,26
 205 218 205 218 183.5 225 c 128,-1,27
 162 232 162 232 145 244 c 1,28,-1
 110 210 l 1,29,-1
 80 239 l 1,30,-1
 115 274 l 1,31,32
 85 312 85 312 85 361 c 0,0,1
127 361 m 256,33,34
 127 340 127 340 135 321 c 128,-1,35
 143 302 143 302 157 288 c 128,-1,36
 171 274 171 274 189 266 c 128,-1,37
 207 258 207 258 228 258 c 256,38,39
 249 258 249 258 268 266 c 128,-1,40
 287 274 287 274 300.5 288 c 128,-1,41
 314 302 314 302 322 321 c 128,-1,42
 330 340 330 340 330 361 c 256,43,44
 330 382 330 382 322 400.5 c 128,-1,45
 314 419 314 419 300.5 433 c 128,-1,46
 287 447 287 447 268 455 c 128,-1,47
 249 463 249 463 228 463 c 256,48,49
 207 463 207 463 189 455 c 128,-1,50
 171 447 171 447 157 433 c 128,-1,51
 143 419 143 419 135 400.5 c 128,-1,52
 127 382 127 382 127 361 c 256,33,34
EndSplineSet
EndChar

StartChar: section
Encoding: 167 167 192
Width: 373
Flags: W
LayerCount: 2
Back
Fore
SplineSet
157 152 m 0,0,1
 135 187 135 187 121 210.5 c 128,-1,2
 107 234 107 234 98 249.5 c 128,-1,3
 89 265 89 265 83.5 274.5 c 128,-1,4
 78 284 78 284 74 292 c 0,5,6
 62 314 62 314 58 339.5 c 128,-1,7
 54 365 54 365 58.5 389.5 c 128,-1,8
 63 414 63 414 75.5 435.5 c 128,-1,9
 88 457 88 457 109 472 c 0,10,11
 148 496 148 496 196 488 c 1,12,13
 182 508 182 508 171 529 c 128,-1,14
 160 550 160 550 147 572 c 0,15,16
 130 602 130 602 123.5 624 c 128,-1,17
 117 646 117 646 118.5 662 c 128,-1,18
 120 678 120 678 128.5 689.5 c 128,-1,19
 137 701 137 701 149 710 c 0,20,21
 164 724 164 724 184.5 734.5 c 128,-1,22
 205 745 205 745 223 756 c 1,23,-1
 252 707 l 1,24,25
 241 701 241 701 230.5 695 c 128,-1,26
 220 689 220 689 209 682 c 0,27,28
 184 668 184 668 184 646.5 c 128,-1,29
 184 625 184 625 210 580 c 1,30,-1
 211 580 l 1,31,-1
 300 429 l 2,32,33
 313 406 313 406 317 381.5 c 128,-1,34
 321 357 321 357 316 333 c 128,-1,35
 311 309 311 309 297.5 288 c 128,-1,36
 284 267 284 267 263 252 c 0,37,38
 224 226 224 226 177 234 c 1,39,-1
 227 149 l 2,40,41
 245 119 245 119 251.5 97 c 128,-1,42
 258 75 258 75 256 58.5 c 128,-1,43
 254 42 254 42 245.5 30.5 c 128,-1,44
 237 19 237 19 225 10 c 0,45,46
 211 -4 211 -4 190.5 -14.5 c 128,-1,47
 170 -25 170 -25 152 -36 c 1,48,49
 145 -24 145 -24 137.5 -11.5 c 128,-1,50
 130 1 130 1 123 14 c 1,51,-1
 166 39 l 2,52,53
 179 46 179 46 185 55 c 128,-1,54
 191 64 191 64 190 77 c 128,-1,55
 189 90 189 90 181 108 c 128,-1,56
 173 126 173 126 157 152 c 0,0,1
116 345 m 0,57,58
 120 318 120 318 142 301.5 c 128,-1,59
 164 285 164 285 191 286 c 0,60,61
 223 288 223 288 244 312 c 128,-1,62
 265 336 265 336 263 367 c 0,63,64
 261 400 261 400 237 420.5 c 128,-1,65
 213 441 213 441 182 441 c 0,66,67
 163 439 163 439 148 430.5 c 128,-1,68
 133 422 133 422 124 408.5 c 128,-1,69
 115 395 115 395 112.5 378.5 c 128,-1,70
 110 362 110 362 116 345 c 0,57,58
EndSplineSet
EndChar

StartChar: periodcentered
Encoding: 183 183 193
Width: 207
Flags: W
LayerCount: 2
Back
Fore
SplineSet
64 284 m 0,0,1
 64 301 64 301 76 313 c 128,-1,2
 88 325 88 325 104 325 c 0,3,4
 119 325 119 325 131.5 313 c 128,-1,5
 144 301 144 301 144 284 c 0,6,7
 144 266 144 266 131.5 254.5 c 128,-1,8
 119 243 119 243 104 243 c 0,9,10
 88 243 88 243 76 254.5 c 128,-1,11
 64 266 64 266 64 284 c 0,0,1
EndSplineSet
EndChar

StartChar: ordmasculine
Encoding: 186 186 194
Width: 402
Flags: W
LayerCount: 2
Back
Fore
SplineSet
50 450 m 0,0,1
 50 481 50 481 62 509 c 128,-1,2
 74 537 74 537 94.5 557.5 c 128,-1,3
 115 578 115 578 142.5 590 c 128,-1,4
 170 602 170 602 202 602 c 256,5,6
 234 602 234 602 261.5 590 c 128,-1,7
 289 578 289 578 309.5 557.5 c 128,-1,8
 330 537 330 537 341.5 509 c 128,-1,9
 353 481 353 481 353 450 c 256,10,11
 353 419 353 419 341.5 391.5 c 128,-1,12
 330 364 330 364 309.5 344 c 128,-1,13
 289 324 289 324 261.5 312 c 128,-1,14
 234 300 234 300 202 300 c 256,15,16
 170 300 170 300 142.5 311.5 c 128,-1,17
 115 323 115 323 94.5 343 c 128,-1,18
 74 363 74 363 62 390.5 c 128,-1,19
 50 418 50 418 50 450 c 0,0,1
90 450 m 256,20,21
 90 427 90 427 98.5 406.5 c 128,-1,22
 107 386 107 386 122 371 c 128,-1,23
 137 356 137 356 157.5 347.5 c 128,-1,24
 178 339 178 339 201 339 c 256,25,26
 224 339 224 339 244.5 347.5 c 128,-1,27
 265 356 265 356 280 371 c 128,-1,28
 295 386 295 386 304 406.5 c 128,-1,29
 313 427 313 427 313 450 c 256,30,31
 313 473 313 473 304 493.5 c 128,-1,32
 295 514 295 514 280 529 c 128,-1,33
 265 544 265 544 244.5 553 c 128,-1,34
 224 562 224 562 201 562 c 256,35,36
 178 562 178 562 157.5 553 c 128,-1,37
 137 544 137 544 122 529 c 128,-1,38
 107 514 107 514 98.5 493.5 c 128,-1,39
 90 473 90 473 90 450 c 256,20,21
EndSplineSet
EndChar

StartChar: macron
Encoding: 175 175 195
Width: 402
Flags: W
LayerCount: 2
Back
Fore
SplineSet
86 487 m 1,0,-1
 86 526 l 1,1,-1
 318 526 l 1,2,-1
 318 487 l 1,3,-1
 86 487 l 1,0,-1
EndSplineSet
EndChar

StartChar: mu
Encoding: 181 181 196
Width: 534
Flags: W
LayerCount: 2
Back
Fore
SplineSet
439 -5 m 1,0,-1
 393 -5 l 1,1,-1
 387 103 l 1,2,3
 366 53 366 53 323 22 c 128,-1,4
 280 -9 280 -9 219 -9 c 0,5,6
 176 -9 176 -9 144 10 c 1,7,-1
 144 -201 l 1,8,-1
 90 -201 l 1,9,-1
 90 97 l 2,10,11
 89 101 89 101 89 111 c 2,12,-1
 89 400 l 1,13,-1
 144 400 l 1,14,-1
 144 130 l 2,15,16
 146 96 146 96 168 72 c 128,-1,17
 190 48 190 48 234 46 c 0,18,19
 265 46 265 46 292.5 56.5 c 128,-1,20
 320 67 320 67 340 85.5 c 128,-1,21
 360 104 360 104 372 130 c 128,-1,22
 384 156 384 156 384 187 c 2,23,-1
 384 400 l 1,24,-1
 439 400 l 1,25,-1
 439 -5 l 1,0,-1
EndSplineSet
EndChar

